<?xml version="1.0" encoding="utf-8"?>
<!-- Generator: Adobe Illustrator 16.0.0, SVG Export Plug-In . SVG Version: 6.00 Build 0)  -->
<!DOCTYPE svg PUBLIC "-//W3C//DTD SVG 1.1//EN" "http://www.w3.org/Graphics/SVG/1.1/DTD/svg11.dtd">
<svg version="1.1" id="Layer_1" xmlns="http://www.w3.org/2000/svg" xmlns:xlink="http://www.w3.org/1999/xlink" x="0px" y="0px"
	 width="1000px" height="1000px" viewBox="0 0 1000 1000" enable-background="new 0 0 1000 1000" xml:space="preserve">
<g>
	<g>
		<circle fill="#FFFFFF" cx="478.403" cy="241.32" r="204.682"/>
		<path fill="#371A45" d="M478.726,447.015c-5.225,0-10.465-0.195-15.727-0.592c-113.096-8.494-198.193-107.414-189.697-220.508
			C281.796,112.823,380.72,27.737,493.808,36.218c113.096,8.496,198.193,107.416,189.697,220.508l-0.994-0.074l0.994,0.074
			c-4.113,54.785-29.316,104.689-70.965,140.518C574.892,429.63,527.874,447.015,478.726,447.015z M478.259,37.63
			c-105.449,0-194.943,81.6-202.967,188.436c-8.412,111.996,75.859,209.955,187.855,218.367
			c54.248,4.072,106.846-13.221,148.09-48.703c41.244-35.48,66.203-84.898,70.277-139.152
			c8.412-111.996-75.859-209.955-187.855-218.369C488.499,37.821,483.353,37.63,478.259,37.63z"/>
	</g>
	<g>
		<path fill="#865FA8" d="M688.698,261.276c0,96.461-92.744,154.984-207.146,154.984c-114.406,0-207.148-58.523-207.148-154.984
			S367.146,66.94,481.552,66.94C595.954,66.94,688.698,164.815,688.698,261.276z"/>
		<ellipse fill="#A888BF" cx="391.638" cy="237.333" rx="89.492" ry="106.852"/>
		<ellipse fill="#A888BF" cx="570.622" cy="237.333" rx="89.492" ry="106.852"/>
		<polygon fill="#A888BF" points="460.778,305.175 501.481,305.175 491.099,260.706 508.351,224.972 494.86,224.972 481.13,235.093 
			460.778,221.491 448.458,228.515 470.401,260.706 		"/>
		<g>
			<ellipse fill="#FFFFFF" cx="571.042" cy="236.267" rx="70.555" ry="84.24"/>
			<ellipse fill="#865FA8" cx="571.044" cy="236.267" rx="56.82" ry="67.84"/>
			<path fill="#311B13" d="M613.524,236.267c0,28.012-19.02,50.719-42.482,50.719c-23.459,0-42.48-22.707-42.48-50.719
				c0-28.014,19.021-50.723,42.48-50.723C594.505,185.544,613.524,208.253,613.524,236.267z"/>
			<path fill="#FFFFFF" d="M559.101,187.017c9.938,13.088,11.377,30.859,3.217,39.693c-8.162,8.836-22.834,5.385-32.771-7.703
				c-9.938-13.09-11.379-30.861-3.217-39.695C534.493,170.478,549.163,173.927,559.101,187.017z"/>
			<ellipse fill="#FFFFFF" cx="587.646" cy="256.089" rx="12.366" ry="14.768"/>
		</g>
		<g>
			<ellipse fill="#FFFFFF" cx="392.058" cy="236.267" rx="70.555" ry="84.24"/>
			<ellipse fill="#865FA8" cx="392.059" cy="236.267" rx="56.819" ry="67.84"/>
			<ellipse fill="#311B13" cx="392.058" cy="236.267" rx="42.48" ry="50.719"/>
			<path fill="#FFFFFF" d="M380.116,187.017c9.938,13.088,11.377,30.859,3.217,39.693c-8.164,8.836-22.834,5.385-32.771-7.703
				c-9.939-13.09-11.379-30.861-3.217-39.695S370.179,173.927,380.116,187.017z"/>
			<ellipse fill="#FFFFFF" cx="408.662" cy="256.089" rx="12.366" ry="14.768"/>
		</g>
		<path fill="#F6EEA4" d="M481.552,289.88c-7.529,0.115-14.945,2.729-22.242,8.08c-4.398,3.227-6.197,9.857-4.115,15.498
			c6.279,16.996,15.791,30.586,26.357,43.066c10.563-12.48,20.076-26.07,26.354-43.066c2.084-5.641,0.285-12.271-4.113-15.498
			C496.495,292.608,489.077,289.995,481.552,289.88z"/>
		<path fill="#652F8F" d="M471.853,167.608c-20.619-25.131-123.248-22.416-123.248-38.396c1.898-9.973,27.461-4.686,27.461-4.686
			c-53.32-17.648-27.461-42.686-27.461-42.686c16.318,31.914,91.355,24.932,123.248,58.342
			c31.895-33.41,106.932-26.428,123.252-58.342c0,0,25.857,25.037-27.463,42.686c0,0,25.564-5.287,27.463,4.686
			C595.104,145.192,492.474,142.478,471.853,167.608z"/>
	</g>
	<ellipse fill="#804099" cx="482.915" cy="78.011" rx="125.504" ry="28.195"/>
	<ellipse fill="#804099" cx="480.673" cy="66.942" rx="99.551" ry="28.193"/>
	
		<ellipse transform="matrix(0.6938 0.7202 -0.7202 0.6938 280.6585 -413.6946)" fill="#804099" cx="626.84" cy="123.211" rx="64.894" ry="14.386"/>
	
		<ellipse transform="matrix(-0.815 0.5795 -0.5795 -0.815 701.9651 9.9714)" fill="#804099" cx="349.391" cy="117.053" rx="67.074" ry="12.054"/>
	
		<ellipse transform="matrix(0.8597 -0.5108 0.5108 0.8597 5.1191 203.4397)" fill="#804099" cx="372.89" cy="92.401" rx="60.528" ry="16.537"/>
	
		<ellipse transform="matrix(0.9544 -0.2985 0.2985 0.9544 -7.2549 125.9571)" fill="#804099" cx="408.662" cy="86.726" rx="60.529" ry="19.715"/>
	
		<ellipse transform="matrix(0.9037 0.4281 -0.4281 0.9037 97.3628 -238.8095)" fill="#804099" cx="579.702" cy="97.093" rx="60.527" ry="21.879"/>
	
		<ellipse transform="matrix(0.6989 0.7152 -0.7152 0.6989 286.9607 -411.6312)" fill="#804099" cx="632.385" cy="135.015" rx="60.527" ry="12.167"/>
	<g>
		<g>
			<g>
				<path fill="#FFFFFF" d="M648.29,454.651v216.873c0,28.893-23.391,52.285-52.283,52.285H367.368
					c-28.852,0-52.27-23.393-52.27-52.285V454.651c0-12.152,4.166-23.404,11.182-32.268c0.055-0.082,0.125-0.166,0.193-0.25
					c5.391-6.764,12.404-12.168,20.475-15.6c6.279-2.666,13.168-4.139,20.42-4.139h228.639c7.291,0,14.238,1.486,20.529,4.195
					c5.154,2.182,9.863,5.182,14.002,8.82c0.459,0.389,0.902,0.791,1.334,1.209C641.983,426.149,648.29,439.663,648.29,454.651z"/>
			</g>
			<g>
				<path fill="#371A45" d="M600.229,729.37H363.165c-29.568,0-53.621-24.055-53.621-53.621V450.456
					c0-29.566,24.053-53.621,53.621-53.621h237.064c29.568,0,53.621,24.055,53.621,53.621v225.293
					C653.851,705.315,629.798,729.37,600.229,729.37z M363.165,407.948c-23.439,0-42.51,19.068-42.51,42.508v225.293
					c0,23.439,19.07,42.508,42.51,42.508h237.064c23.439,0,42.51-19.068,42.51-42.508V450.456c0-23.439-19.07-42.508-42.51-42.508
					H363.165z"/>
			</g>
			<g>
				<path fill="#804099" d="M692.347,575.185c-62.994,8.514-109.014-40.783-109.014-40.783l-9.182-72.189l-8.266-65.035
					c0,0,86.941,77.273,114.32,25.295c4.32-8.197,7.166-19.629,7.945-35.074c0.07-1.32,0.111-2.682,0.152-4.057l0.625,0.209
					l96.082,32.197C785.011,415.747,796.774,561.085,692.347,575.185z"/>
			</g>
			<g opacity="0.25">
				<path fill="#371A45" d="M692.347,575.185c-62.994,8.514-109.014-40.783-109.014-40.783l-9.182-72.189l18.516-4.557
					c0,0,10.836,58.188,67.814,74.537c56.381,16.182,66.674-17.154,56.131-32.115c-12.57-17.85-40.463-34.781-36.406-77.605
					c0.68-7.182,2.25-15.1,4.959-23.865c1.25-4.084,2.236-7.807,2.986-11.209c0.291-1.334,0.541-2.611,0.777-3.848l96.082,32.197
					C785.011,415.747,796.774,561.085,692.347,575.185z"/>
			</g>
			<g>
				<path fill="#371A45" d="M677.479,581.743c-56.85,0.006-96.414-41.623-98.213-43.549c-2.094-2.244-1.973-5.76,0.27-7.854
					c2.244-2.096,5.76-1.973,7.854,0.27c0.439,0.467,44.908,47.08,104.213,39.068c40.791-5.51,67.975-32.65,80.793-80.67
					c7.992-29.941,7.674-59.184,7.266-69.189l-86.16-28.875c-1.992,27.625-10.973,45.072-26.744,51.908
					c-38.438,16.66-101.885-39.135-104.564-41.52c-2.295-2.037-2.502-5.549-0.463-7.842c2.037-2.295,5.549-2.502,7.842-0.465
					c16.811,14.924,66.242,51.133,92.771,39.629c12.828-5.564,19.695-22.203,20.41-49.457l0.195-7.508l107.297,35.957l0.297,3.654
					c0.123,1.523,2.9,37.727-7.338,76.301c-13.852,52.189-45.014,82.996-90.113,89.09
					C687.761,581.411,682.548,581.743,677.479,581.743z"/>
			</g>
			<g>
				<g>
					<path fill="#804099" d="M262.159,647.47c0,0-17.178,53.553,39.275,65.059c10.162,2.076,19.896,1.234,28.574-1.951
						c37.467-13.795,55.574-71.553,6.389-129.346c-2.596-3.061-5.387-6.119-8.375-9.18c-0.125-0.125-0.25-0.25-0.375-0.377
						c0,0,2.611-4.33,10.967-10.412c5.244-3.83,12.777-8.355,23.314-12.938l20.238-61.908l0.035-0.107l25.461-77.816
						c0,0-20.057,6.799-45.68,18.412c-10.807,4.885-22.635,10.646-34.336,17.123c0,0-5.564,2.988-14.262,8.393
						C268.851,480.136,142.295,571.175,262.159,647.47z"/>
				</g>
				<g opacity="0.25">
					<path fill="#371A45" d="M367.97,497.952l-6.037,50.373c-27.361,11.873-34.293,23.342-34.293,23.342
						c0.131,0.131,0.26,0.26,0.375,0.389c-7.332-6.051-17.174-12.967-27.504-16.842c0,0,19.047-10.461,25.4-17.939
						c27.404-32.258,20.35-51.402,46.111-48.117C376.071,489.677,370.646,492.417,367.97,497.952z"/>
				</g>
				<g>
					<path fill="#371A45" d="M312.296,719.196c-3.941,0-7.943-0.4-11.969-1.221c-18.498-3.771-31.701-12.213-39.24-25.092
						c-9.51-16.242-7.078-34.783-5.303-42.932c-33.805-22.461-50.406-48.283-49.359-76.795
						c2.605-70.859,113.846-131.484,118.58-134.029c39.367-21.725,80.461-35.75,80.871-35.889c2.904-0.982,6.061,0.572,7.045,3.479
						s-0.572,6.061-3.477,7.045c-0.402,0.137-40.598,13.861-79.125,35.123c-1.154,0.621-110.432,60.178-112.789,124.689
						c-0.922,25.223,15.096,48.508,47.607,69.205l3.617,2.303l-1.311,4.082c-0.063,0.199-6.588,21.416,3.271,38.172
						c5.883,9.998,16.592,16.643,31.832,19.75c20.967,4.27,40.486-5.043,50.945-24.314c13.008-23.973,12.006-64.727-29.816-107.215
						l-3.031-3.08l2.238-3.695c0.707-1.168,7.6-11.74,31.492-23.117c2.77-1.316,6.086-0.143,7.404,2.627
						c1.32,2.771,0.145,6.086-2.627,7.406c-13.318,6.342-20.541,12.266-24.033,15.738c42.568,45.535,42.654,89.887,28.139,116.635
						C352.573,707.763,333.356,719.194,312.296,719.196z"/>
				</g>
				<g>
					<path fill="#371A45" d="M266.062,643.038c2.16,1.23,4.402,2.578,6.6,3.908c2.223,1.307,4.422,2.68,6.645,4.025l13.504,8.166
						c-2.697-0.045-5.367-0.373-8.027-0.764c-2.648-0.424-5.271-0.969-7.867-1.602c-2.588-0.646-5.17-1.336-7.699-2.162
						c-2.551-0.807-5.031-1.652-7.549-2.713L266.062,643.038z"/>
				</g>
				<g opacity="0.25">
					<path fill="#371A45" d="M301.431,712.534c-55.781-11.375-39.666-63.814-39.291-65.059l0.018-0.018
						c0,0,9.686,51.91,60.111,37.672c32.248-9.125,29.52-54.57,23.363-86.137c0.545-1.244,0.99-2.541,1.348-3.854c0,0,0,0,0.018,0
						C391.505,661.356,351.942,722.833,301.431,712.534z"/>
				</g>
				<g>
					<path fill="#371A45" d="M224.476,619.007c-3.063,0-5.549-2.479-5.555-5.541c-0.041-16.453,13.523-33.461,34.561-43.332
						c23.754-11.145,59.854-14.104,89.936,11.021c2.355,1.967,2.67,5.471,0.703,7.826c-1.967,2.354-5.471,2.67-7.826,0.703
						c-26.076-21.779-57.438-19.184-78.092-9.49c-17.143,8.043-28.201,21.092-28.17,33.242c0.008,3.07-2.473,5.564-5.543,5.57
						C224.485,619.007,224.481,619.007,224.476,619.007z"/>
				</g>
				<g>
					<path fill="#371A45" d="M326.245,575.56c-1.814-1.91-3.854-3.875-5.863-5.754c-2.027-1.887-4.105-3.729-6.232-5.523
						c-4.271-3.564-8.721-6.939-13.639-9.736c5.523,1.262,10.938,3.266,16.221,5.52c2.637,1.141,5.252,2.35,7.842,3.623
						c2.605,1.289,5.121,2.578,7.748,4.072L326.245,575.56z"/>
				</g>
			</g>
			<g>
				<path fill="#371A45" d="M434.337,899.866c-1.01,0-2.031-0.275-2.949-0.852c-27.232-17.105-67.23-9.539-67.633-9.461
					c-3.008,0.59-5.93-1.373-6.521-4.383c-0.592-3.008,1.365-5.928,4.373-6.521c1.809-0.357,44.68-8.525,75.691,10.955
					c2.6,1.631,3.383,5.061,1.75,7.66C437.993,898.944,436.187,899.866,434.337,899.866z"/>
			</g>
			<g>
				<path fill="#804099" d="M592.667,433.522c15.715,78.455,40.02,184.938,29.311,290.432
					c-6.867,67.654-21.25,156.578-21.25,156.578s42.775,14.775,39.715,46.607c-0.078,0.861,1.811,34.131-82.9,30.803
					c-35.912-1.41-60.334-8.617-69.072-28.422c-7.832-17.746-6.709-96.67-6.709-96.67V721.198h-0.111v111.652
					c0,0,1.123,78.924-6.707,96.67c-8.74,19.805-29.17,27.012-65.08,28.422c-84.713,3.328-86.816-29.941-86.893-30.803
					c-3.063-31.832,39.713-46.607,39.713-46.607s-14.383-88.924-21.25-156.578c-10.965-108.029,14.379-217.455,30.441-296.025"/>
			</g>
			<g>
				<path fill="#371A45" d="M595.386,457.081c11.238,34.264,17.633,69.727,23.957,105.248
					c6.035,35.566,10.352,71.578,11.332,107.859c0.229,9.068,0.16,18.148-0.043,27.229c-0.283,9.078-0.744,18.158-1.496,27.223
					c-0.783,9.096-1.797,18.049-2.861,26.99c-1.063,8.945-2.195,17.877-3.389,26.795c-2.354,17.844-5.084,35.619-7.84,53.387
					c-2.768,17.771-5.682,35.488-8.842,53.219l-3.738-6.205l0.006,0.002c2.523,0.871,4.623,1.75,6.861,2.746
					c2.197,0.986,4.354,2.051,6.479,3.193c4.242,2.293,8.354,4.904,12.229,7.967c3.863,3.064,7.504,6.592,10.574,10.76
					c3.055,4.158,5.504,9.033,6.689,14.328c0.592,2.641,0.869,5.357,0.848,8.051c-0.027,0.668-0.025,1.352-0.082,2.006l-0.078,0.988
					l-0.018,0.221l0.018-0.184c0.004-0.102,0.002-0.088,0-0.008l-0.023,0.607c-0.092,1.656-0.381,3.162-0.805,4.605
					c-1.703,5.793-5.385,10.326-9.422,13.742c-4.09,3.414-8.596,5.875-13.166,7.76c-4.576,1.893-9.234,3.293-13.9,4.334
					c-9.34,2.129-18.709,3.057-28.02,3.518c-9.322,0.438-18.568,0.27-27.816-0.16c-9.256-0.502-18.566-1.355-27.893-3.25
					c-4.66-0.938-9.322-2.17-13.93-3.818c-4.598-1.676-9.156-3.797-13.412-6.688c-4.254-2.857-8.15-6.588-11.137-11
					c-0.752-1.1-1.422-2.25-2.064-3.412l-0.889-1.781c-0.287-0.621-0.553-1.32-0.82-1.98c-0.932-2.592-1.549-5.021-2.025-7.4
					c-1.891-9.498-2.574-18.646-3.209-27.857c-1.137-18.377-1.383-36.631-1.283-54.938l0.027-109.078l5.557,5.555h-0.111
					l5.557-5.555l0.025,108.914c0.105,18.281-0.141,36.508-1.266,54.857c-0.621,9.193-1.314,18.334-3.16,27.803
					c-0.482,2.379-1.074,4.797-1.953,7.354l-0.809,2.002c-0.279,0.615-0.566,1.168-0.852,1.756
					c-0.596,1.148-1.223,2.287-1.928,3.387c-2.768,4.428-6.447,8.363-10.623,11.426c-4.182,3.059-8.748,5.361-13.371,7.063
					c-4.627,1.721-9.32,2.932-13.994,3.84c-9.359,1.822-18.666,2.545-27.902,2.951c-9.229,0.35-18.486,0.395-27.791-0.152
					c-9.297-0.533-18.645-1.664-27.932-3.91c-4.637-1.152-9.26-2.574-13.791-4.494c-4.516-1.938-8.979-4.322-13.051-7.59
					c-4.043-3.266-7.785-7.408-10.006-12.865c-0.547-1.379-0.992-2.793-1.264-4.498l-0.086-0.678l-0.043-0.506l-0.076-0.986
					c-0.049-0.658-0.057-1.338-0.076-2.006c-0.01-2.689,0.266-5.402,0.871-8.035c1.193-5.287,3.654-10.143,6.707-14.291
					c3.07-4.158,6.709-7.674,10.568-10.732c3.869-3.055,7.977-5.66,12.213-7.949c2.121-1.141,4.275-2.201,6.469-3.188
					c2.234-0.994,4.33-1.871,6.854-2.742l0.004-0.002l-3.738,6.205c-3.197-17.955-6.148-35.9-8.945-53.896
					c-2.789-17.994-5.541-35.998-7.922-54.068c-1.203-9.035-2.338-18.082-3.414-27.143l-1.541-13.607
					c-0.441-4.566-0.951-9.16-1.273-13.75c-1.467-18.363-1.813-36.773-1.373-55.137c1.117-36.734,5.59-73.186,11.803-109.188
					c3.102-18.008,6.668-35.91,10.436-53.74c1.857-8.92,3.977-17.779,6.283-26.586c2.338-8.801,4.865-17.545,7.898-26.182
					c0.514-1.459,2.111-2.227,3.57-1.715c1.23,0.432,1.969,1.639,1.863,2.879c-0.777,9.139-2.133,18.148-3.637,27.115
					c-1.535,8.961-3.223,17.877-5.066,26.754c-3.605,17.768-6.996,35.555-9.922,53.4c-5.865,35.674-9.953,71.611-10.773,107.586
					c-0.451,17.979-0.135,35.963,1.271,53.846c0.309,4.479,0.799,8.92,1.225,13.398l1.512,13.488
					c1.055,8.99,2.172,17.98,3.355,26.967c2.377,17.973,4.799,35.953,7.436,53.908l4.031,26.922l4.139,26.891l0.73,4.736
					l-4.469,1.471h-0.002c-1.77,0.611-3.873,1.469-5.783,2.328c-1.949,0.875-3.869,1.822-5.748,2.832
					c-3.75,2.025-7.334,4.311-10.594,6.883c-6.508,5.115-11.729,11.574-13.332,18.777c-0.412,1.793-0.596,3.625-0.594,5.475
					c0.018,0.465,0.018,0.922,0.055,1.396l0.055,0.709l0.029,0.344l0.02,0.166c0.086,0.539,0.301,1.311,0.6,2.037
					c1.199,2.996,3.639,5.92,6.645,8.316c6.098,4.848,14.217,7.896,22.52,9.949c4.172,1.049,8.484,1.746,12.805,2.387
					c4.352,0.539,8.729,0.988,13.146,1.225c8.828,0.52,17.75,0.48,26.668,0.143c8.895-0.385,17.752-1.098,26.229-2.752
					c8.439-1.654,16.596-4.299,22.9-8.938c3.143-2.313,5.764-5.133,7.818-8.4c0.521-0.811,0.986-1.664,1.439-2.527l0.633-1.307
					l0.467-1.158c0.59-1.738,1.104-3.732,1.518-5.805c1.643-8.365,2.371-17.381,2.961-26.295c1.1-17.906,1.35-36.021,1.244-54.057
					l-0.027-109.01l-0.002-5.559h5.559h0.111h5.559l-0.002,5.559l-0.027,109.17c-0.102,18.063,0.148,36.205,1.26,54.137
					c0.602,8.92,1.324,17.961,3,26.311c0.408,2.08,0.947,4.061,1.547,5.748c0.168,0.389,0.293,0.762,0.48,1.172l0.633,1.271
					c0.461,0.824,0.932,1.641,1.467,2.418c2.119,3.117,4.883,5.818,8.174,8.029c6.574,4.465,14.846,7.08,23.311,8.807
					c8.508,1.734,17.359,2.564,26.256,3.043c8.916,0.414,17.875,0.574,26.725,0.158c8.84-0.434,17.645-1.328,26.047-3.25
					c4.207-0.934,8.287-2.178,12.115-3.762c3.832-1.568,7.369-3.568,10.27-5.992c2.877-2.414,5.053-5.346,5.916-8.338
					c0.223-0.734,0.35-1.48,0.383-2.096l0.008-0.242l0.029-0.619l0.016-0.203l0.055-0.713c0.045-0.477,0.035-0.932,0.061-1.398
					c0.01-1.854-0.176-3.688-0.578-5.486c-1.586-7.215-6.803-13.691-13.318-18.816c-3.264-2.578-6.852-4.869-10.607-6.898
					c-1.881-1.012-3.803-1.961-5.756-2.836c-1.912-0.859-4.018-1.721-5.791-2.332h-0.002l-4.506-1.219l0.768-4.988l4.088-26.553
					l3.982-26.584c2.607-17.729,4.994-35.484,7.361-53.229c1.176-8.873,2.289-17.75,3.334-26.627
					c1.047-8.883,2.037-17.771,2.783-26.559c0.721-8.824,1.16-17.676,1.426-26.537c0.193-8.865,0.229-17.738,0.023-26.613
					c-0.67-35.52-4.615-71.014-10.299-106.256c-2.834-17.629-6.135-35.203-9.625-52.764c-1.689-8.793-3.371-17.594-4.797-26.459
					c-1.455-8.859-2.768-17.762-3.578-26.771v-0.02c-0.139-1.537,0.994-2.895,2.533-3.033
					C593.802,455.05,594.991,455.872,595.386,457.081z"/>
			</g>
			<g>
				<path fill="#371A45" d="M599.651,889.552l-4.236-0.463c-1.459-0.15-2.924-0.246-4.395-0.369
					c-2.936-0.236-5.885-0.42-8.832-0.525c-5.896-0.254-11.787-0.188-17.658,0.154c-5.871,0.389-11.654,1.279-17.375,2.549
					c-5.715,1.32-11.197,3.324-16.609,5.764l-0.158,0.07c-1.4,0.633-3.049,0.01-3.682-1.393c-0.549-1.217-0.148-2.621,0.885-3.383
					c5.182-3.828,10.908-7.064,16.984-9.352c1.504-0.627,3.059-1.045,4.594-1.578l2.32-0.74c0.779-0.217,1.564-0.395,2.348-0.594
					c1.57-0.371,3.139-0.809,4.719-1.123l4.768-0.838c6.369-0.986,12.805-1.396,19.215-1.297c3.205,0.084,6.404,0.256,9.596,0.615
					c1.596,0.148,3.188,0.41,4.781,0.654c1.621,0.254,3.137,0.527,4.889,0.945c2.984,0.715,4.826,3.713,4.111,6.697
					c-0.658,2.756-3.262,4.535-6.006,4.234L599.651,889.552z"/>
			</g>
			<g>
				<path fill="#371A45" d="M362.241,878.649c1.752-0.414,3.266-0.703,4.885-0.969c1.592-0.26,3.189-0.473,4.783-0.654
					c3.191-0.354,6.389-0.564,9.598-0.641c6.412-0.16,12.85,0.252,19.234,1.182c6.383,0.953,12.699,2.607,18.777,4.881
					c6.086,2.295,11.803,5.6,16.936,9.508c1.221,0.93,1.457,2.674,0.527,3.895c-0.754,0.992-2.047,1.334-3.16,0.93l-0.322-0.119
					c-2.822-1.029-5.367-2.434-8.242-3.189c-1.41-0.42-2.734-1.004-4.174-1.326c-1.428-0.342-2.834-0.729-4.242-1.094
					c-5.719-1.225-11.48-2.162-17.346-2.537c-5.854-0.4-11.744-0.465-17.637-0.271c-2.947,0.113-5.896,0.258-8.832,0.5
					c-2.904,0.184-5.955,0.527-8.633,0.809l-0.299,0.031c-3.051,0.318-5.783-1.896-6.104-4.947
					C357.696,881.821,359.558,879.28,362.241,878.649z"/>
			</g>
			<g>
				<g opacity="0.25">
					<path fill="#371A45" d="M630.968,657.22c-2.479,1.527-5.273,2.555-8.311,2.932c-17.568,2.205-42.33,3.762-60.943-1.314v9.336
						c0,12.902-10.168,23.463-22.572,23.463H415.817c-12.418,0-22.57-10.561-22.57-23.463v-7.447
						c-17.102,2.703-37.135,1.299-52.031-0.574c-3.217-0.408-6.178-1.525-8.762-3.219c0.15-12.992,0.619-25.908,1.375-38.676
						c3.006-1.646,6.406-2.568,9.971-2.568c0.332,0,0.664,0.016,0.996,0.031c13.703,0.68,32.438,1.088,48.451-0.348v-16.74
						c0-12.9,10.152-23.447,22.57-23.447h123.324c9.912,0,18.402,6.738,21.408,16.029c0.756,2.328,1.164,4.82,1.164,7.418V614.3
						c17.525,2.643,41.018,2.221,57.363,1.42c0.332-0.016,0.666-0.031,0.998-0.031c3.398,0,6.617,0.832,9.502,2.313
						C630.333,630.948,630.831,644.046,630.968,657.22z"/>
				</g>
				<g>
					<path fill="#FFFFFF" d="M409.481,636.149c-18.947,7.965-48.268,6.299-68.258,3.787c-11.99-1.508-20.404-12.996-18.639-25.404
						l0,0c1.611-11.322,11.207-19.555,22.215-19.02c18.697,0.91,46.744,1.336,64.504-2.756"/>
				</g>
				<g opacity="0.25">
					<path fill="#371A45" d="M409.487,636.146c-18.947,7.965-48.281,6.309-68.266,3.789c-11.984-1.498-20.402-12.992-18.641-25.408
						c0.375-2.637,1.178-5.113,2.357-7.346c3.189,6.135,9.098,10.615,16.283,11.521c19.957,2.508,49.236,4.178,68.182-3.758
						L409.487,636.146z"/>
				</g>
				<g>
					<path fill="#371A45" d="M371.8,647.565c-10.992,0-21.916-0.941-31.27-2.115c-7.127-0.896-13.498-4.592-17.939-10.408
						c-4.574-5.988-6.58-13.75-5.506-21.293c2.025-14.238,14.061-24.475,27.986-23.785c27.477,1.334,49.848,0.404,62.986-2.621
						c2.723-0.627,9.496-0.734,13.535,11.787c4.523,14.01,3.578,36.451-9.959,42.141l0,0
						C400.429,645.981,386.058,647.565,371.8,647.565z M343.782,601.044c-7.844,0-14.521,6.01-15.697,14.271
						c-0.666,4.682,0.52,9.293,3.338,12.982c2.617,3.43,6.344,5.604,10.494,6.125c28.467,3.578,51.695,2.371,65.41-3.396l0,0
						c2.547-1.07,4.447-4.791,5.211-10.209c1.314-9.316-1.248-19.48-3.314-22.352c-18.09,3.855-45.037,3.553-64.693,2.596
						C344.28,601.05,344.03,601.044,343.782,601.044z"/>
				</g>
				<g>
					<path fill="#FFFFFF" d="M554.397,636.149c18.945,7.965,48.268,6.299,68.258,3.787c11.988-1.508,20.404-12.996,18.639-25.404
						l0,0c-1.611-11.322-11.209-19.555-22.217-19.02c-18.697,0.91-46.742,1.336-64.504-2.756"/>
				</g>
				<g opacity="0.25">
					<path fill="#371A45" d="M622.659,639.935c-20,2.52-49.32,4.176-68.266-3.789l0.084-21.158
						c18.945,7.936,48.209,6.266,68.182,3.758c7.186-0.906,13.107-5.416,16.297-11.551c1.15,2.219,1.969,4.695,2.344,7.332
						C643.062,626.942,634.644,638.437,622.659,639.935z"/>
				</g>
				<g>
					<path fill="#371A45" d="M592.077,647.565c-14.258,0-28.627-1.582-39.834-6.295c-13.535-5.691-14.48-28.131-9.959-42.143
						c4.041-12.521,10.814-12.41,13.537-11.785c13.139,3.025,35.51,3.957,62.986,2.621c13.943-0.664,25.961,9.549,27.986,23.785
						c1.074,7.543-0.934,15.305-5.506,21.293c-4.441,5.816-10.813,9.512-17.941,10.408
						C613.995,646.624,603.069,647.565,592.077,647.565z M554.653,598.466c-2.064,2.871-4.629,13.035-3.313,22.352
						c0.764,5.418,2.662,9.139,5.209,10.209l0,0c13.717,5.768,36.949,6.975,65.412,3.396c4.148-0.521,7.875-2.695,10.494-6.125
						c2.818-3.689,4.004-8.301,3.336-12.982c-1.213-8.523-8.307-14.664-16.445-14.254
						C599.694,602.019,572.743,602.321,554.653,598.466z"/>
				</g>
				<g>
					<path fill="#FFFFFF" d="M561.718,578.415v69.543c0,12.904-10.166,23.463-22.58,23.463H415.825
						c-12.428,0-22.58-10.559-22.58-23.463v-69.543c0-12.891,10.152-23.449,22.58-23.449h123.313
						c9.916,0,18.404,6.742,21.414,16.031C561.302,573.331,561.718,575.823,561.718,578.415z"/>
				</g>
				<g opacity="0.25">
					<path fill="#371A45" d="M561.718,578.415v69.543c0,12.904-10.166,23.463-22.58,23.463H415.825
						c-12.428,0-22.58-10.559-22.58-23.463V624.55c21.275,12.23,63.426,30.594,105.727,15.441
						c20.666-7.408,44.359-32.797,44.359-32.797s0.912,26.639,4.717,26.219c10.582-1.168,10.504-55.066,12.504-62.416
						C561.302,573.331,561.718,575.823,561.718,578.415z"/>
				</g>
				<g>
					<path fill="#371A45" d="M540.558,676.97H414.396c-14.729,0-26.713-11.982-26.713-26.713v-74.133
						c0-14.73,11.984-26.715,26.713-26.715h126.162c14.73,0,26.715,11.984,26.715,26.715v74.133
						C567.272,664.987,555.288,676.97,540.558,676.97z M414.396,560.522c-8.602,0-15.602,6.998-15.602,15.602v74.133
						c0,8.602,7,15.602,15.602,15.602h126.162c8.604,0,15.602-7,15.602-15.602v-74.133c0-8.604-6.998-15.602-15.602-15.602H414.396z
						"/>
				</g>
				<g>
					<ellipse fill="#956FB1" cx="521.163" cy="613.19" rx="19.473" ry="20.223"/>
				</g>
				<g>
					<path fill="#FFFFFF" d="M540.642,613.196c0,1.377-0.129,2.717-0.383,4.014c-1.799-9.26-9.672-16.23-19.1-16.23
						s-17.299,6.971-19.084,16.23c-0.256-1.297-0.383-2.637-0.383-4.014c0-11.17,8.713-20.232,19.467-20.232
						C531.915,592.964,540.642,602.026,540.642,613.196z"/>
				</g>
				<g>
					<path fill="#3B78BD" d="M540.636,613.187c0,11.178-8.725,20.223-19.473,20.223s-19.473-9.045-19.473-20.223
						c0-1.873,0.25-3.701,0.707-5.416c2.289,8.527,9.834,14.793,18.766,14.793s16.477-6.266,18.766-14.793
						C540.386,609.485,540.636,611.313,540.636,613.187z"/>
				</g>
				<g>
					<path fill="#371A45" d="M521.163,637.581c-13.035,0-23.641-10.941-23.641-24.391s10.605-24.391,23.641-24.391
						s23.641,10.941,23.641,24.391S534.198,637.581,521.163,637.581z M521.163,597.134c-8.439,0-15.307,7.203-15.307,16.057
						s6.867,16.055,15.307,16.055s15.307-7.201,15.307-16.055S529.603,597.134,521.163,597.134z"/>
				</g>
				<g>
					<path fill="#371A45" d="M465.979,676.97c-3.068,0-5.557-2.486-5.557-5.557v-35.594c0-7.066-3.227-13.807-8.631-18.031
						l-3.131-2.449c-8.078-6.314-12.9-16.328-12.9-26.787v-33.586c0-3.068,2.488-5.557,5.557-5.557s5.557,2.488,5.557,5.557v33.586
						c0,7.066,3.227,13.809,8.631,18.033l3.131,2.449c8.078,6.313,12.9,16.326,12.9,26.785v35.594
						C471.536,674.483,469.048,676.97,465.979,676.97z"/>
				</g>
			</g>
			<g>
				<path fill="#371A45" d="M413.593,794.056c-22.164,0-46.943-3.992-70.234-16.488c-2.703-1.451-3.719-4.818-2.27-7.521
					c1.453-2.705,4.818-3.721,7.523-2.27c58.566,31.418,130.391,3.736,131.107,3.451c2.852-1.125,6.082,0.275,7.207,3.127
					c1.127,2.854-0.27,6.078-3.121,7.207C481.833,782.343,451.55,794.056,413.593,794.056z"/>
			</g>
			<g>
				<path fill="#371A45" d="M549.835,794.056c-37.947,0-68.203-11.713-70.176-12.494c-2.854-1.131-4.25-4.359-3.119-7.211
					c1.129-2.854,4.355-4.248,7.207-3.123l0,0c0.719,0.283,72.486,27.967,131.051-3.451c2.703-1.453,6.07-0.436,7.523,2.27
					c1.449,2.703,0.434,6.07-2.271,7.521C596.763,790.062,571.985,794.056,549.835,794.056z"/>
			</g>
			<g>
				<path fill="#FFFFFF" d="M427.437,729.403c0,0,22.01,9.836,54.27,9.836c32.258,0,54.379-9.836,54.379-9.836
					s-14.617-11.545-54.379-11.545C441.942,717.858,427.437,729.403,427.437,729.403z"/>
			</g>
			<g>
				<path fill="#371A45" d="M420.429,726.013c4.92,1.41,10.16,2.686,15.309,3.707c5.17,1.068,10.371,1.936,15.584,2.654
					c5.227,0.617,10.436,1.307,15.684,1.568c2.617,0.193,5.238,0.297,7.857,0.422c2.619,0.107,5.242,0.078,7.863,0.121
					c5.24-0.055,10.486-0.148,15.717-0.592c5.25-0.248,10.455-0.963,15.682-1.578l3.908-0.559l3.896-0.643
					c2.602-0.426,5.201-0.893,7.779-1.445c5.154-1.004,10.393-2.279,15.328-3.658l0.158-0.045c1.482-0.416,3.02,0.449,3.434,1.932
					c0.355,1.27-0.23,2.578-1.336,3.189c-5.039,2.785-10.137,4.756-15.4,6.605c-5.262,1.752-10.613,3.268-16.049,4.398
					c-2.713,0.584-5.441,1.119-8.189,1.516c-2.746,0.422-5.5,0.813-8.266,1.096c-5.531,0.576-11.094,0.799-16.658,0.879
					c-11.129-0.084-22.254-1.176-33.111-3.514c-5.436-1.131-10.785-2.648-16.049-4.398c-5.268-1.836-10.359-3.813-15.408-6.584
					c-1.348-0.74-1.842-2.434-1.1-3.781c0.637-1.162,1.982-1.689,3.207-1.338L420.429,726.013z"/>
			</g>
			<g opacity="0.25">
				<path fill="#371A45" d="M616.536,406.591c-27.893,35.324-77.814,64.219-134.779,64.219c-56.979,0-106.93-28.924-134.809-64.275
					c6.279-2.666,13.168-4.139,20.42-4.139h228.639C603.298,402.396,610.245,403.882,616.536,406.591z"/>
			</g>
			<g opacity="0.3">
				<path fill="#371A45" d="M640.427,928.573c-0.082,0.814-2.18,32.553-86.895,29.383c-35.91-1.35-56.334-8.225-65.08-27.123
					c-3.064-6.635-4.762-20.852-5.686-35.684l-0.789-56.893l-1.35,56.893c-0.924,14.832-2.623,29.049-5.686,35.684
					c-8.746,18.898-29.168,25.773-65.08,27.123c-84.713,3.17-86.813-28.568-86.895-29.383c-0.439-4.4,0.082-8.467,1.285-12.186
					c3.063,5.043,12.211,12.305,39.066,15.996c43.588,5.979,90.398,0.656,98.344-28.326c5.977-21.814,15.82-139.039-17.307-153.189
					c-51.225-21.895-70.029-39.494-55.785-42.33c7.234-1.445,26.309,4.561,93.125,4.561c66.818,0,85.893-6.006,93.129-4.561
					c14.242,2.836-4.563,20.436-55.787,42.33c-33.129,14.15-23.285,131.375-17.307,153.189
					c7.945,28.982,54.756,34.305,98.344,28.326c26.855-3.691,36.004-10.953,39.066-15.996
					C640.345,920.106,640.868,924.173,640.427,928.573z"/>
			</g>
			<g>
				<path fill="#9B66AB" d="M679.735,307.593L679.735,307.593c-2.303-0.01-4.162-1.885-4.152-4.188l0.479-120.111
					c0.008-2.303,1.883-4.162,4.186-4.154l0,0c24.16,0.096,43.67,19.76,43.572,43.922l-0.162,40.957
					C723.56,288.181,703.896,307.688,679.735,307.593z"/>
				<path fill="#371A45" d="M679.913,308.591c-0.061,0-0.121,0-0.182,0l0,0c-2.85-0.012-5.158-2.34-5.146-5.189l0.479-120.111
					c0.01-2.844,2.326-5.148,5.168-5.148c0.006,0,0.014,0,0.02,0c11.953,0.047,23.17,4.746,31.588,13.232
					c8.418,8.484,13.027,19.738,12.979,31.691l-0.162,40.957C724.558,288.636,704.503,308.591,679.913,308.591z M679.739,306.593
					c0.057,0,0.117,0.002,0.174,0.002c23.494,0,42.652-19.064,42.746-42.578l0.162-40.959c0.047-11.418-4.357-22.172-12.4-30.277
					c-8.041-8.107-18.758-12.598-30.178-12.643c-0.004,0-0.008,0-0.012,0c-1.744,0-3.166,1.414-3.172,3.16l-0.479,120.111
					C676.573,305.157,677.991,306.587,679.739,306.593L679.739,306.593z"/>
			</g>
			<g opacity="0.35">
				<path fill="#371A45" d="M723.733,244.813l-0.072,19.209c-0.1,24.152-19.762,43.664-43.928,43.578
					c-2.303-0.008-4.16-1.895-4.154-4.195l0.117-31.93c0.641,1.457,2.094,2.469,3.783,2.488l2.85,0.002
					C701.421,274.048,717.716,261.872,723.733,244.813z"/>
			</g>
			<g>
				<path fill="#371A45" d="M679.913,313.149c-0.066,0-0.133-0.002-0.199-0.002l0,0c-2.6-0.01-5.037-1.031-6.865-2.875
					c-1.83-1.846-2.832-4.291-2.822-6.891l0.479-120.111c0.021-5.348,4.381-9.688,9.727-9.688c0.012,0,0.025,0,0.037,0
					c13.17,0.053,25.531,5.23,34.807,14.58s14.354,21.75,14.301,34.92l-0.162,40.959
					C729.104,291.161,707.009,313.149,679.913,313.149z M681.612,184.728l-0.467,117.289c20.424-0.65,36.873-17.424,36.955-38.02
					l0.162-40.959C718.345,202.444,702.028,185.54,681.612,184.728z"/>
			</g>
			<g>
				<path fill="#9B66AB" d="M283.786,177.562L283.786,177.562c2.303,0.01,4.162,1.885,4.154,4.188l-0.479,120.111
					c-0.01,2.303-1.885,4.162-4.188,4.152l0,0c-24.16-0.096-43.668-19.76-43.572-43.92l0.164-40.959
					C239.962,196.974,259.626,177.466,283.786,177.562z"/>
				<path fill="#371A45" d="M283.292,307.013c-0.008,0-0.014,0-0.021,0c-11.951-0.049-23.17-4.748-31.588-13.232
					c-8.416-8.484-13.025-19.738-12.979-31.691l0.162-40.959c0.1-24.611,20.154-44.566,44.742-44.566c0.061,0,0.119,0,0.182,0
					c1.381,0.006,2.676,0.549,3.648,1.527c0.973,0.98,1.504,2.281,1.498,3.662l-0.477,120.111
					C288.448,304.706,286.132,307.013,283.292,307.013z M283.608,178.56c-23.492,0-42.65,19.064-42.744,42.578l-0.164,40.959
					c-0.045,11.418,4.359,22.172,12.4,30.277c8.043,8.107,18.76,12.596,30.178,12.641c0.004,0,0.01,0,0.014,0
					c1.742,0,3.164-1.414,3.172-3.158l0.477-120.111c0.004-0.848-0.322-1.646-0.92-2.248c-0.596-0.6-1.391-0.934-2.238-0.938l0,0
					C283.726,178.56,283.667,178.56,283.608,178.56z"/>
			</g>
			<g opacity="0.35">
				<path fill="#371A45" d="M287.603,268.54l-0.135,33.32c-0.008,2.303-1.895,4.16-4.195,4.154
					c-12.682-0.057-24.094-5.496-32.053-14.158c-7.188-7.822-11.557-18.285-11.514-29.756l0.068-17.26
					c6.799,15.17,22.037,25.779,39.75,25.854l4.385,0.016C285.509,270.714,286.872,269.835,287.603,268.54z"/>
			</g>
			<g>
				<path fill="#371A45" d="M283.292,311.569c-0.014,0-0.025,0-0.039,0c-13.17-0.051-25.529-5.23-34.805-14.578
					c-9.275-9.35-14.355-21.752-14.303-34.92l0.164-40.959c0.107-27.119,22.207-49.107,49.299-49.107
					c0.066,0,0.131,0.002,0.199,0.002c2.598,0.01,5.037,1.031,6.867,2.875s2.832,4.291,2.82,6.889l-0.477,120.111
					C292.995,307.231,288.636,311.569,283.292,311.569z M282.378,183.138c-20.422,0.65-36.873,17.424-36.957,38.018l-0.162,40.959
					c-0.041,10.201,3.893,19.809,11.078,27.051c6.857,6.912,15.895,10.881,25.574,11.262L282.378,183.138z"/>
			</g>
			<g opacity="0.35">
				<path fill="#371A45" d="M686.06,229.507c0.605,9.326,0.557,18.807-0.162,28.402C677.415,370.63,579.175,455.147,466.452,446.69
					c-112.721-8.48-197.236-106.723-188.781-219.443c0.242-3.242,0.561-6.48,0.955-9.664
					c6.299,100.391,85.805,183.291,188.943,191.041C577.05,416.839,672.853,337.358,686.06,229.507z"/>
			</g>
			<g>
				<path fill="#371A45" d="M481.937,452.821c-5.266,0-10.563-0.195-15.896-0.596c-115.602-8.684-202.586-109.795-193.902-225.396
					c8.684-115.6,109.801-202.588,225.395-193.9c115.602,8.684,202.584,109.795,193.902,225.395l-5.541-0.416l5.541,0.416
					C683.151,368.589,590.769,452.821,481.937,452.821z M481.644,43.444c-103.088,0-190.58,79.773-198.424,184.217
					c-8.225,109.492,74.162,205.258,183.652,213.482c53.033,3.98,104.455-12.926,144.775-47.613
					c40.322-34.688,64.721-83,68.705-136.039c8.223-109.49-74.162-205.256-183.652-213.48
					C491.655,43.63,486.624,43.444,481.644,43.444z"/>
			</g>
			<g>
				<path fill="none" d="M684.847,263.101c-2.396,39.982-17.6,76.322-41.637,105.705c-18.02,22.025-88.842,58.223-173.357,53.918
					c-78.365-3.99-147.123-50.02-162.383-74.041c-20.355-32.043-31.109-69.939-28.713-109.92
					c6.34-105.803,99.871-144.217,212.016-137.496C602.915,107.989,691.188,157.298,684.847,263.101z"/>
			</g>
			<g>
				<path fill="#371A45" d="M484.13,428.644c-4.795,0-9.646-0.119-14.561-0.371c-81.277-4.137-150.74-51.346-166.789-76.611
					c-21.736-34.211-31.961-73.367-29.57-113.232c3.115-51.984,26.365-90.82,69.105-115.426
					c37.256-21.449,88.701-30.885,148.789-27.281c60.082,3.6,110.037,19.111,144.465,44.857
					c39.494,29.535,57.939,70.869,54.824,122.854c-2.391,39.867-17.219,77.52-42.883,108.891
					C630.683,392.894,566.794,428.644,484.13,428.644z M466.517,106.083c-47.59,0-88.264,9.053-118.656,26.551
					c-39.297,22.623-60.68,58.441-63.559,106.461c-2.248,37.516,7.385,74.381,27.857,106.607
					c14.533,22.877,81.596,67.584,157.977,71.473c84.652,4.301,152.727-32.273,168.773-51.889
					c24.176-29.549,38.143-65,40.391-102.518l5.547,0.332l-5.547-0.332c7.797-130.074-129.479-152.396-188.861-155.955
					C482.292,106.325,474.308,106.083,466.517,106.083z"/>
			</g>
			<g opacity="0.5">
				
					<ellipse transform="matrix(-0.9715 -0.2368 0.2368 -0.9715 1163.8259 629.3601)" fill="#FFFFFF" cx="619.717" cy="244.772" rx="26.248" ry="36.222"/>
			</g>
			<g opacity="0.5">
				
					<ellipse transform="matrix(-0.9295 -0.3689 0.3689 -0.9295 1009.5327 821.9333)" fill="#FFFFFF" cx="583.329" cy="314.473" rx="14.268" ry="16.627"/>
			</g>
			<g opacity="0.7">
				<path fill="#121A28" d="M651.272,162.03c23.4,25.172,36.113,58.57,33.572,101.064c-2.396,39.99-17.607,76.328-41.629,105.711
					c-18.025,22.025-88.854,58.221-173.367,53.926c-29.844-1.512-58.281-9.129-82.916-19.318
					c104,3.066,190.295-41.396,212.641-68.717c30.51-37.289,49.805-83.42,52.838-134.152
					C653.231,186.985,652.8,174.153,651.272,162.03z"/>
			</g>
			<g>
				<path fill="#371A45" d="M672.925,174.823c-1.361,0-2.725-0.5-3.795-1.512l-0.516-0.488l-0.404-0.625
					c-31.467-50.227-96.213-81.834-177.637-86.717c-81.867-4.898-149.92,19.641-186.688,67.342l-0.471,0.537
					c-2.107,2.23-5.58,2.289-7.813,0.182c-2.15-2.031-2.281-5.412-0.402-7.65c39.074-50.566,110.516-76.623,196.037-71.502
					c85,5.098,152.9,38.551,186.32,91.799c1.395,2.105,1.221,4.975-0.586,6.887C675.876,174.235,674.401,174.823,672.925,174.823z"
					/>
			</g>
			<g opacity="0.5">
				<path fill="#FFFFFF" d="M320.583,304.437c0,0-26.514-106.34,32.23-144.561c58.744-38.223,139.664-33.203,137.461-28.127
					c0,0-90.895,16.32-130.195,85.049C329.772,269.796,320.583,304.437,320.583,304.437z"/>
			</g>
			<g>
				<path fill="#E5E5E5" d="M808.989,456.382l-86.879,24.873c-8.113,2.322-16.572-2.371-18.895-10.484L658.63,315.04
					c-2.322-8.113,2.371-16.572,10.484-18.896l86.879-24.873c8.113-2.322,16.572,2.371,18.895,10.484l44.586,155.73
					C821.798,445.599,817.103,454.06,808.989,456.382z"/>
			</g>
			<g>
				<path fill="#BCBCBC" d="M808.985,456.378l-86.873,24.877c-8.111,2.32-16.57-2.375-18.891-10.486l-44.588-155.727
					c-1.639-5.752,0.236-11.682,4.348-15.447c0.014,0.084,0.027,0.168,0.057,0.25l44.588,155.727
					c2.32,8.113,10.779,12.809,18.891,10.488l86.885-24.879c2.377-0.68,4.445-1.875,6.141-3.443
					C821.694,445.765,817.015,454.085,808.985,456.378z"/>
			</g>
			<g>
				<path fill="#371A45" d="M717.874,487.411c-3.49,0-6.941-0.887-10.078-2.627c-4.867-2.699-8.391-7.135-9.922-12.484
					l-44.586-155.73c-1.531-5.352-0.889-10.979,1.813-15.844c2.699-4.867,7.135-8.391,12.484-9.924l86.879-24.873
					c5.352-1.529,10.979-0.889,15.844,1.813c4.867,2.699,8.391,7.133,9.922,12.484l44.586,155.73
					c3.162,11.047-3.25,22.605-14.295,25.768l-86.881,24.873C721.737,487.142,719.8,487.411,717.874,487.411z M760.214,276.231
					c-0.898,0-1.803,0.127-2.691,0.381l-86.879,24.873c-2.496,0.715-4.566,2.359-5.826,4.631c-1.26,2.27-1.561,4.896-0.846,7.395
					l44.586,155.73c0.715,2.496,2.359,4.566,4.631,5.826c2.27,1.26,4.893,1.559,7.393,0.846l86.881-24.873l1.529,5.342l-1.529-5.342
					c5.154-1.477,8.146-6.871,6.672-12.025l-44.588-155.73c-0.715-2.498-2.357-4.566-4.629-5.826
					C763.452,276.646,761.841,276.231,760.214,276.231z"/>
			</g>
			<g>
				<path fill="#371A45" d="M717.874,487.411c-3.49,0-6.941-0.887-10.078-2.627c-4.867-2.699-8.391-7.135-9.922-12.484
					l-44.586-155.73c-1.531-5.352-0.889-10.979,1.813-15.844c2.699-4.867,7.135-8.391,12.484-9.924l86.879-24.873
					c5.352-1.529,10.979-0.889,15.844,1.813c4.867,2.699,8.391,7.133,9.922,12.484l44.586,155.73
					c3.162,11.047-3.25,22.605-14.295,25.768l-86.881,24.873C721.737,487.142,719.8,487.411,717.874,487.411z M760.214,276.231
					c-0.898,0-1.803,0.127-2.691,0.381l-86.879,24.873c-2.496,0.715-4.566,2.359-5.826,4.631c-1.26,2.27-1.561,4.896-0.846,7.395
					l44.586,155.73c0.715,2.496,2.359,4.566,4.631,5.826c2.27,1.26,4.893,1.559,7.393,0.846l86.881-24.873l1.529,5.342l-1.529-5.342
					c5.154-1.477,8.146-6.871,6.672-12.025l-44.588-155.73c-0.715-2.498-2.357-4.566-4.629-5.826
					C763.452,276.646,761.841,276.231,760.214,276.231z"/>
			</g>
			<g opacity="0.4">
				<path fill="#FFFFFF" d="M779.3,357.714l-33.92,85.469l-23.572,6.75c-0.43,0.125-0.861,0.195-1.277,0.236l49.506-124.793
					L779.3,357.714z"/>
			</g>
			<g>
				<path fill="#371A45" d="M719.886,454.122c-1.82,0-3.619-0.463-5.252-1.369c-2.537-1.406-4.373-3.719-5.172-6.506L673.187,319.54
					c-1.646-5.754,1.693-11.777,7.449-13.428l70.855-20.285c5.758-1.648,11.779,1.695,13.428,7.451l36.275,126.705
					c1.648,5.756-1.695,11.779-7.449,13.428l-70.855,20.285C721.897,453.981,720.888,454.122,719.886,454.122z M754.479,293.233
					c-0.275,0-0.557,0.039-0.834,0.117l-70.855,20.285c-1.605,0.461-2.541,2.143-2.08,3.75l36.275,126.707
					c0.223,0.779,0.736,1.424,1.443,1.816c0.709,0.393,1.529,0.49,2.307,0.264l70.855-20.285c1.607-0.459,2.541-2.143,2.08-3.75
					l-36.275-126.707C757.015,294.103,755.798,293.233,754.479,293.233z"/>
			</g>
			<g>
				<path fill="#FFFFFF" d="M677.509,380.978c0,0,32.732,4.223,32.732,26.447c0,15.061-14.137,18.451-28.518,15.656
					C664.862,419.806,654.271,390.104,677.509,380.978z"/>
			</g>
			<g opacity="0.25">
				<path fill="#371A45" d="M710.237,407.427c0,15.059-14.127,18.447-28.518,15.654c-11.932-2.318-20.711-17.848-16.613-29.975
					c2.418,8.125,8.848,15.225,16.613,16.738c12.016,2.334,23.85,0.348,27.42-9.127
					C709.835,402.747,710.237,404.983,710.237,407.427z"/>
			</g>
			<g>
				<path fill="#371A45" d="M718.804,572.987c-22.619,0-39.91-7.576-51.406-22.531c-29.383-38.225-9.521-110.932-8.662-114.008
					c0.826-2.955,3.889-4.682,6.844-3.855s4.682,3.891,3.859,6.844c-0.195,0.701-19.227,70.455,6.781,104.262
					c9.463,12.301,24.186,18.432,43.727,18.168c3.055-0.006,5.588,2.42,5.627,5.486c0.037,3.07-2.418,5.588-5.486,5.627
					C719.657,572.983,719.229,572.987,718.804,572.987z"/>
			</g>
			<path fill="#371A45" d="M771.063,455.579l-12.701,3.576c-1.537,0.434-3.133-0.461-3.566-1.998l-0.854-3.033
				c-0.432-1.535,0.463-3.131,2-3.564l12.701-3.574c1.537-0.434,3.133,0.461,3.564,1.998l0.854,3.031
				C773.493,453.552,772.599,455.147,771.063,455.579z"/>
			
				<image overflow="visible" width="701" height="807" xlink:href="../../megahoot_logoGraphic2021.png"  transform="matrix(0.1099 -0.03 0.0371 0.1359 683.7021 320.6338)">
			</image>
			<g>
				<g>
					<path fill="#FFFFFF" d="M783.673,312.435c0,0-31.721,14.984-25.02,36.406c4.779,15.279,25.166,15.279,34.85,5.311
						C803.905,343.44,808.536,322.856,783.673,312.435z"/>
				</g>
				<g opacity="0.25">
					<path fill="#371A45" d="M793.497,354.157c-9.682,9.959-30.059,9.959-34.838-5.32c-1.291-4.111-1.152-7.986-0.111-11.557
						c6.836,11.111,24.281,10.238,33.004,1.25c3.557-3.668,6.445-8.486,7.682-13.668
						C804.999,334.987,800.581,346.864,793.497,354.157z"/>
				</g>
				<g>
					<path fill="#371A45" d="M776.442,366.624c-2.17,0-4.33-0.24-6.424-0.74c-8.141-1.938-14.217-7.547-16.668-15.385
						c-8.053-25.742,26.475-42.393,27.949-43.088l2.238-1.059l2.283,0.959c14.936,6.26,19.715,15.621,21.094,22.373
						c2.318,11.35-3.35,22.082-9.428,28.338C792.169,363.499,784.251,366.624,776.442,366.624z M783.854,318.614
						c-6.381,3.549-24.186,14.865-19.898,28.566c1.629,5.213,5.596,7.17,8.637,7.893c5.867,1.396,12.826-0.574,16.924-4.793
						c5.152-5.305,7.707-12.516,6.512-18.371C794.919,326.485,790.827,322.021,783.854,318.614z"/>
				</g>
			</g>
			<g>
				<g>
					<path fill="#FFFFFF" d="M796.175,344.382c0,0-31.723,14.984-25.02,36.406c4.779,15.281,25.166,15.281,34.848,5.313
						C816.407,375.39,821.038,354.806,796.175,344.382z"/>
				</g>
				<g opacity="0.25">
					<path fill="#371A45" d="M805.999,386.106c-9.682,9.959-30.061,9.959-34.838-5.32c-1.291-4.111-1.152-7.988-0.111-11.559
						c6.834,11.113,24.281,10.238,33.004,1.252c3.557-3.668,6.445-8.488,7.682-13.668
						C817.499,366.937,813.083,378.813,805.999,386.106z"/>
				</g>
				<g>
					<path fill="#371A45" d="M788.944,398.573c-2.17,0-4.33-0.242-6.426-0.74c-8.141-1.939-14.215-7.547-16.666-15.385
						c-8.055-25.742,26.475-42.393,27.949-43.09l2.238-1.057l2.281,0.957c14.938,6.262,19.717,15.623,21.096,22.373
						c2.318,11.352-3.35,22.082-9.428,28.34C804.671,395.446,796.753,398.573,788.944,398.573z M796.356,350.562
						c-6.381,3.549-24.186,14.867-19.898,28.568c1.629,5.211,5.596,7.168,8.637,7.893c5.865,1.398,12.824-0.574,16.924-4.793
						c5.15-5.305,7.707-12.516,6.51-18.373C807.421,358.435,803.329,353.97,796.356,350.562z"/>
				</g>
			</g>
			<g>
				<g>
					<path fill="#FFFFFF" d="M805.897,377.72c0,0-31.721,14.984-25.02,36.406c4.779,15.279,25.166,15.279,34.85,5.311
						C826.13,408.726,830.761,388.142,805.897,377.72z"/>
				</g>
				<g opacity="0.25">
					<path fill="#371A45" d="M815.722,419.442c-9.682,9.961-30.059,9.961-34.838-5.32c-1.291-4.111-1.152-7.986-0.111-11.557
						c6.836,11.113,24.281,10.238,33.004,1.25c3.557-3.666,6.445-8.486,7.682-13.668
						C827.224,400.274,822.806,412.149,815.722,419.442z"/>
				</g>
				<g>
					<path fill="#371A45" d="M798.667,431.909c-2.17,0-4.33-0.24-6.424-0.74c-8.141-1.939-14.215-7.547-16.668-15.383
						c-8.053-25.744,26.477-42.395,27.949-43.09l2.238-1.059l2.283,0.959c14.936,6.26,19.715,15.621,21.094,22.373
						c2.318,11.352-3.35,22.082-9.428,28.34C814.394,428.784,806.476,431.909,798.667,431.909z M806.079,383.899
						c-6.381,3.549-24.184,14.867-19.898,28.568c1.631,5.211,5.596,7.168,8.637,7.891c5.865,1.402,12.826-0.572,16.924-4.793
						c5.152-5.303,7.707-12.516,6.512-18.371C817.146,391.771,813.054,387.306,806.079,383.899z"/>
				</g>
			</g>
			<g>
				<path fill="#371A45" d="M690.521,429.538c-3.1,0-6.398-0.332-9.855-1.002c-11.375-2.211-20.84-13.594-22.018-26.48
					c-1.086-11.873,5.207-21.684,16.83-26.248l1.328-0.521l1.414,0.182c1.533,0.197,37.576,5.156,37.576,31.959
					c0,8.773-3.922,13.85-7.213,16.563C704.138,427.653,697.903,429.538,690.521,429.538z M678.202,386.724
					c-7.723,3.609-8.91,9.715-8.488,14.32c0.721,7.883,6.584,15.322,13.07,16.582c8.129,1.582,15.133,0.756,18.73-2.211
					c2.133-1.76,3.17-4.371,3.17-7.988C704.685,392.626,683.878,387.772,678.202,386.724z"/>
			</g>
		</g>
	</g>
</g>
</svg>
