<?xml version="1.0" encoding="utf-8"?>
<!-- Generator: Adobe Illustrator 16.0.0, SVG Export Plug-In . SVG Version: 6.00 Build 0)  -->
<!DOCTYPE svg PUBLIC "-//W3C//DTD SVG 1.1//EN" "http://www.w3.org/Graphics/SVG/1.1/DTD/svg11.dtd">
<svg version="1.1" id="Layer_1" xmlns="http://www.w3.org/2000/svg" xmlns:xlink="http://www.w3.org/1999/xlink" x="0px" y="0px"
	 width="1000px" height="1000px" viewBox="0 0 1000 1000" enable-background="new 0 0 1000 1000" xml:space="preserve">
<g>
	<g>
		<circle fill="#FFFFFF" cx="495.698" cy="459.351" r="409.365"/>
		<path fill="#371A45" d="M496.343,870.739c-10.45,0-20.93-0.391-31.454-1.184C238.698,852.567,68.502,654.728,85.495,428.54
			C102.483,202.356,300.331,32.185,526.507,49.146c226.191,16.992,396.387,214.832,379.395,441.016l-1.988-0.148l1.988,0.148
			c-8.227,109.57-58.633,209.379-141.93,281.035C688.675,835.97,594.64,870.739,496.343,870.739z M495.409,51.97
			c-210.899,0-389.887,163.199-405.934,376.871c-16.824,223.992,151.719,419.91,375.711,436.734
			c108.497,8.145,213.692-26.441,296.18-97.406c82.488-70.961,132.406-169.797,140.555-278.305
			C918.745,265.872,750.202,69.954,526.21,53.126C515.89,52.353,505.597,51.97,495.409,51.97z"/>
	</g>
	<g>
		<path fill="#865FA8" d="M916.288,499.263c0,192.922-185.488,309.969-414.293,309.969c-228.813,0-414.297-117.047-414.297-309.969
			s185.484-388.672,414.297-388.672C730.8,110.591,916.288,306.341,916.288,499.263z"/>
		<path fill="#A888BF" d="M501.151,451.376c0,118.023-80.137,213.703-178.989,213.703c-98.848,0-178.98-95.68-178.98-213.703
			c0-118.027,80.133-213.707,178.98-213.707C421.014,237.669,501.151,333.349,501.151,451.376z"/>
		<ellipse fill="#A888BF" cx="680.136" cy="451.376" rx="178.984" ry="213.703"/>
		<polygon fill="#A888BF" points="460.448,587.06 541.854,587.06 521.089,498.122 555.593,426.653 528.612,426.653 501.151,446.896 
			460.448,419.692 435.807,433.739 479.694,498.122 		"/>
		<g>
			<path fill="#FFFFFF" d="M822.085,449.243c0,93.047-63.172,168.48-141.109,168.48c-77.934,0-141.109-75.434-141.109-168.48
				c0-93.051,63.176-168.484,141.109-168.484C758.913,280.759,822.085,356.192,822.085,449.243z"/>
			<path fill="#865FA8" d="M794.62,449.243c0,74.934-50.879,135.68-113.645,135.68c-62.762,0-113.637-60.746-113.637-135.68
				c0-74.938,50.875-135.688,113.637-135.688C743.741,313.556,794.62,374.306,794.62,449.243z"/>
			<path fill="#311B13" d="M765.94,449.243c0,56.023-38.039,101.438-84.965,101.438c-46.918,0-84.961-45.414-84.961-101.438
				c0-56.027,38.043-101.445,84.961-101.445C727.901,347.798,765.94,393.216,765.94,449.243z"/>
			<path fill="#FFFFFF" d="M657.093,350.743c19.875,26.176,22.754,61.719,6.434,79.387c-16.324,17.672-45.668,10.77-65.543-15.406
				c-19.875-26.18-22.758-61.723-6.434-79.391C607.878,317.665,637.218,324.563,657.093,350.743z"/>
			<path fill="#FFFFFF" d="M738.917,488.888c0,16.313-11.074,29.535-24.734,29.535c-13.656,0-24.73-13.223-24.73-29.535
				c0-16.309,11.074-29.527,24.73-29.527C727.843,459.36,738.917,472.579,738.917,488.888z"/>
		</g>
		<g>
			<path fill="#FFFFFF" d="M464.116,449.243c0,93.047-63.176,168.48-141.109,168.48c-77.93,0-141.109-75.434-141.109-168.48
				c0-93.051,63.18-168.484,141.109-168.484C400.94,280.759,464.116,356.192,464.116,449.243z"/>
			<path fill="#865FA8" d="M436.647,449.243c0,74.934-50.879,135.68-113.641,135.68c-62.758,0-113.637-60.746-113.637-135.68
				c0-74.938,50.879-135.688,113.637-135.688C385.768,313.556,436.647,374.306,436.647,449.243z"/>
			<path fill="#311B13" d="M407.967,449.243c0,56.023-38.035,101.438-84.961,101.438c-46.922,0-84.961-45.414-84.961-101.438
				c0-56.027,38.039-101.445,84.961-101.445C369.932,347.798,407.967,393.216,407.967,449.243z"/>
			<path fill="#FFFFFF" d="M299.124,350.743c19.875,26.176,22.754,61.719,6.434,79.387c-16.328,17.672-45.668,10.77-65.543-15.406
				c-19.879-26.18-22.758-61.723-6.434-79.391S279.249,324.563,299.124,350.743z"/>
			<path fill="#FFFFFF" d="M380.948,488.888c0,16.313-11.07,29.535-24.73,29.535s-24.734-13.223-24.734-29.535
				c0-16.309,11.074-29.527,24.734-29.527S380.948,472.579,380.948,488.888z"/>
		</g>
		<path fill="#F6EEA4" d="M501.995,556.47c-15.059,0.23-29.891,5.457-44.485,16.16c-8.797,6.453-12.395,19.715-8.23,30.996
			c12.559,33.992,31.582,61.172,52.715,86.133c21.125-24.961,40.152-52.141,52.707-86.133c4.168-11.281,0.57-24.543-8.227-30.996
			C531.882,561.927,517.046,556.7,501.995,556.47z"/>
		<path fill="#652F8F" d="M482.596,311.927C441.358,261.665,236.1,267.095,236.1,235.134c3.797-19.945,54.922-9.371,54.922-9.371
			c-106.641-35.297-54.922-85.371-54.922-85.371c32.637,63.828,182.711,49.863,246.496,116.684
			c63.79-66.82,213.864-52.855,246.504-116.684c0,0,51.715,50.074-54.926,85.371c0,0,51.129-10.574,54.926,9.371
			C729.101,267.095,523.839,261.665,482.596,311.927z"/>
	</g>
	<path fill="#804099" d="M755.729,132.731c0,31.145-112.379,56.391-251.008,56.391c-138.629,0-251.008-25.246-251.008-56.391
		c0-31.141,112.379-56.391,251.008-56.391C643.351,76.341,755.729,101.591,755.729,132.731z"/>
	<path fill="#804099" d="M699.339,110.595c0,31.141-89.141,56.387-199.102,56.387c-109.961,0-199.102-25.246-199.102-56.387
		c0-31.145,89.141-56.391,199.102-56.391C610.198,54.204,699.339,79.45,699.339,110.595z"/>
	
		<ellipse transform="matrix(0.6938 0.7202 -0.7202 0.6938 403.3609 -502.4523)" fill="#804099" cx="792.571" cy="223.132" rx="129.788" ry="28.773"/>
	<path fill="#804099" d="M128.346,288.556c-7.719-10.852,34.977-54.453,95.355-97.387c60.379-42.938,115.578-68.945,123.297-58.094
		c7.715,10.852-34.977,54.453-95.355,97.387S136.061,299.403,128.346,288.556z"/>
	<path fill="#804099" d="M388.741,99.677c9.332,15.703-29.699,56.117-87.176,90.27c-57.48,34.148-111.637,49.105-120.965,33.402
		c-9.332-15.699,29.703-56.113,87.18-90.266C325.256,98.935,379.413,83.978,388.741,99.677z"/>
	<path fill="#804099" d="M471.752,114.021c6.5,20.785-39.957,53.813-103.766,73.773c-63.809,19.957-120.805,19.289-127.309-1.492
		c-6.5-20.785,39.957-53.813,103.766-73.773C408.252,92.571,465.249,93.239,471.752,114.021z"/>
	<path fill="#804099" d="M807.698,222.716c-10.344,21.844-67.711,16.348-128.133-12.273
		c-60.422-28.617-101.016-69.527-90.672-91.367c10.348-21.844,67.715-16.348,128.137,12.273S818.046,200.876,807.698,222.716z"/>
	
		<ellipse transform="matrix(0.6989 0.7152 -0.7152 0.6989 418.434 -500.4899)" fill="#804099" cx="803.661" cy="246.739" rx="121.054" ry="24.335"/>
	<g>
		<g>
			<g opacity="0.25">
				<path fill="#371A45" d="M770.739,784.002c-55.785,54.099-155.629,98.351-269.559,98.351
					c-113.958,0-213.86-44.297-269.618-98.438c12.559-4.083,26.336-6.338,40.84-6.338h457.278
					C744.263,777.577,758.157,779.854,770.739,784.002z"/>
			</g>
			<g>
				<path fill="#9B66AB" d="M898.362,591.896L898.362,591.896c-4.605-0.02-8.324-3.77-8.305-8.375l0.957-240.223
					c0.016-4.605,3.766-8.324,8.371-8.309l0,0c48.32,0.191,87.34,39.52,87.145,87.844l-0.324,81.914
					C986.011,553.071,946.683,592.087,898.362,591.896z"/>
				<path fill="#371A45" d="M898.718,593.892c-0.121,0-0.242,0-0.363,0l0,0c-5.699-0.023-10.316-4.68-10.293-10.379l0.957-240.223
					c0.02-5.688,4.652-10.297,10.336-10.297c0.012,0,0.027,0,0.039,0c23.906,0.094,46.34,9.492,63.176,26.465
					c16.836,16.969,26.055,39.477,25.957,63.383l-0.324,81.914C988.007,553.981,947.897,593.892,898.718,593.892z M898.37,589.896
					c0.113,0,0.234,0.004,0.348,0.004c46.988,0,85.305-38.129,85.492-85.156l0.324-81.918c0.094-22.836-8.715-44.344-24.801-60.555
					c-16.082-16.215-37.516-25.195-60.355-25.285c-0.008,0-0.016,0-0.023,0c-3.488,0-6.332,2.828-6.344,6.32l-0.957,240.223
					C892.038,587.024,894.874,589.884,898.37,589.896L898.37,589.896z"/>
			</g>
			<g opacity="0.35">
				<path fill="#371A45" d="M986.358,466.337l-0.145,38.418c-0.199,48.305-39.523,87.328-87.855,87.156
					c-4.605-0.016-8.32-3.789-8.309-8.391l0.234-63.859c1.281,2.914,4.188,4.938,7.566,4.977l5.699,0.004
					C941.733,524.806,974.323,500.454,986.358,466.337z"/>
			</g>
			<g>
				<path fill="#371A45" d="M898.718,603.009c-0.133,0-0.266-0.004-0.398-0.004l0,0c-5.199-0.02-10.074-2.063-13.73-5.75
					c-3.66-3.691-5.664-8.582-5.645-13.781l0.957-240.223c0.043-10.695,8.762-19.375,19.453-19.375c0.023,0,0.051,0,0.074,0
					c26.34,0.105,51.063,10.461,69.613,29.16s28.707,43.5,28.602,69.84l-0.324,81.918
					C997.101,559.032,952.909,603.009,898.718,603.009z M902.116,346.165l-0.934,234.578c40.848-1.301,73.746-34.848,73.91-76.039
					l0.324-81.918C975.581,381.599,942.948,347.79,902.116,346.165z"/>
			</g>
			<g>
				<path fill="#9B66AB" d="M106.463,331.833L106.463,331.833c4.605,0.02,8.324,3.77,8.309,8.375l-0.957,240.223
					c-0.02,4.605-3.77,8.324-8.375,8.305l0,0c-48.32-0.191-87.336-39.52-87.145-87.84l0.328-81.918
					C18.815,370.657,58.143,331.642,106.463,331.833z"/>
				<path fill="#371A45" d="M105.475,590.735c-0.016,0-0.027,0-0.043,0c-23.902-0.098-46.34-9.496-63.176-26.465
					c-16.832-16.969-26.051-39.477-25.957-63.383l0.324-81.918c0.199-49.223,40.309-89.133,89.484-89.133c0.121,0,0.238,0,0.363,0
					c2.762,0.012,5.352,1.098,7.297,3.055c1.945,1.961,3.008,4.563,2.996,7.324l-0.953,240.223
					C115.788,586.122,111.155,590.735,105.475,590.735z M106.108,333.829c-46.984,0-85.301,38.129-85.488,85.156l-0.328,81.918
					c-0.09,22.836,8.719,44.344,24.801,60.555c16.086,16.215,37.52,25.191,60.355,25.281c0.008,0,0.02,0,0.027,0
					c3.484,0,6.328-2.828,6.344-6.316l0.953-240.223c0.008-1.695-0.645-3.293-1.84-4.496c-1.191-1.199-2.781-1.867-4.477-1.875l0,0
					C106.342,333.829,106.225,333.829,106.108,333.829z"/>
			</g>
			<g opacity="0.35">
				<path fill="#371A45" d="M114.096,513.79l-0.27,66.641c-0.016,4.605-3.789,8.32-8.391,8.309
					c-25.363-0.113-48.188-10.992-64.105-28.316c-14.375-15.645-23.113-36.57-23.027-59.512l0.137-34.52
					c13.598,30.34,44.074,51.559,79.5,51.707l8.77,0.031C109.909,518.138,112.635,516.38,114.096,513.79z"/>
			</g>
			<g>
				<path fill="#371A45" d="M105.475,599.849c-0.027,0-0.051,0-0.078,0c-26.34-0.102-51.059-10.461-69.609-29.156
					c-18.551-18.699-28.711-43.504-28.605-69.84l0.328-81.918c0.215-54.238,44.414-98.215,98.598-98.215
					c0.133,0,0.262,0.004,0.398,0.004c5.195,0.02,10.074,2.063,13.734,5.75s5.664,8.582,5.641,13.777l-0.953,240.223
					C124.881,591.173,116.163,599.849,105.475,599.849z M103.647,342.985c-40.844,1.301-73.746,34.848-73.914,76.035l-0.324,81.918
					c-0.082,20.402,7.785,39.617,22.156,54.102c13.715,13.824,31.789,21.762,51.148,22.523L103.647,342.985z"/>
			</g>
			<g opacity="0.35">
				<path fill="#371A45" d="M911.011,435.724c1.211,18.652,1.113,37.613-0.324,56.805
					C893.722,717.97,697.241,887.005,471.795,870.091C246.354,853.13,77.323,656.646,94.233,431.204
					c0.484-6.484,1.121-12.961,1.91-19.328c12.598,200.781,171.609,366.582,377.887,382.082
					C692.991,810.388,884.597,651.427,911.011,435.724z"/>
			</g>
			<g>
				<path fill="#371A45" d="M502.765,882.353c-10.531,0-21.125-0.391-31.793-1.191C239.768,863.794,65.799,661.571,83.167,430.368
					c17.367-231.199,219.602-405.176,450.79-387.801c231.203,17.367,405.168,219.59,387.805,450.789l-11.082-0.832l11.082,0.832
					C905.194,713.888,720.429,882.353,502.765,882.353z M502.179,63.599c-206.176,0-381.161,159.547-396.848,368.434
					C88.881,651.017,253.655,842.548,472.635,858.997c106.067,7.961,208.911-25.852,289.551-95.227
					c80.645-69.375,129.441-166,137.41-272.078c16.445-218.98-148.324-410.512-367.305-426.961
					C522.202,63.97,512.14,63.599,502.179,63.599z"/>
			</g>
			<g>
				<path fill="none" d="M908.585,502.911c-4.793,79.965-35.199,152.645-83.273,211.41
					c-36.039,44.051-177.684,116.445-346.715,107.836c-156.73-7.98-294.246-100.039-324.766-148.082
					c-40.711-64.086-62.219-139.879-57.426-219.84c12.68-211.605,199.742-288.434,424.032-274.992
					C744.722,192.688,921.269,291.306,908.585,502.911z"/>
			</g>
			<g>
				<path fill="#371A45" d="M507.151,833.997c-9.59,0-19.293-0.238-29.122-0.742c-162.555-8.273-301.48-102.691-333.578-153.223
					C100.979,611.61,80.53,533.298,85.311,453.567c6.23-103.969,52.73-181.641,138.211-230.852
					c74.512-42.898,177.402-61.77,297.579-54.563c120.164,7.199,220.074,38.223,288.93,89.715
					c78.988,59.07,115.879,141.738,109.648,245.707c-4.781,79.734-34.438,155.039-85.766,217.781
					C800.257,762.497,672.479,833.997,507.151,833.997z M471.924,188.876c-95.18,0-176.527,18.105-237.313,53.102
					c-78.594,45.246-121.359,116.883-127.117,212.922c-4.496,75.031,14.77,148.762,55.715,213.215
					c29.066,45.754,163.191,135.168,315.953,142.945c169.305,8.602,305.454-64.547,337.547-103.777
					c48.352-59.098,76.285-130,80.781-205.035l11.094,0.664l-11.094-0.664c15.594-260.148-258.957-304.793-377.723-311.91
					C503.476,189.36,487.506,188.876,471.924,188.876z"/>
			</g>
			<g opacity="0.5">
				<path fill="#FFFFFF" d="M727.323,453.821c-9.473,38.871,5.68,75.949,33.844,82.816c28.168,6.867,58.684-19.078,68.16-57.949
					s-5.676-75.949-33.844-82.816S736.8,414.95,727.323,453.821z"/>
			</g>
			<g opacity="0.5">
				<path fill="#FFFFFF" d="M679.026,595.13c-6.773,17.07-0.391,35.621,14.258,41.434s32.016-3.313,38.789-20.383
					s0.387-35.617-14.262-41.43S685.8,578.063,679.026,595.13z"/>
			</g>
			<g opacity="0.7">
				<path fill="#121A28" d="M841.437,300.771c46.801,50.344,72.227,117.141,67.145,202.129
					c-4.793,79.98-35.215,152.656-83.258,211.422c-36.051,44.051-177.707,116.441-346.735,107.852
					c-59.688-3.023-116.563-18.258-165.832-38.637c208,6.133,380.59-82.793,425.282-137.434
					c61.02-74.578,99.609-166.84,105.676-268.305C845.354,350.681,844.491,325.017,841.437,300.771z"/>
			</g>
			<g>
				<path fill="#371A45" d="M884.741,326.356c-2.723,0-5.449-1-7.59-3.023l-1.031-0.977l-0.809-1.25
					c-62.934-100.453-192.426-163.668-355.273-173.434c-163.735-9.797-299.84,39.281-373.375,134.684l-0.941,1.074
					c-4.215,4.461-11.16,4.578-15.625,0.363c-4.301-4.063-4.563-10.824-0.805-15.301C207.44,167.36,350.323,115.247,521.366,125.489
					c170,10.195,305.801,77.102,372.641,183.598c2.789,4.211,2.441,9.949-1.172,13.773
					C890.644,325.181,887.694,326.356,884.741,326.356z"/>
			</g>
			<g opacity="0.5">
				<path fill="#FFFFFF" d="M180.057,585.583c0,0-53.027-212.68,64.461-289.121c117.488-76.445,279.329-66.406,274.922-56.254
					c0,0-181.79,32.641-260.391,170.098C198.436,516.302,180.057,585.583,180.057,585.583z"/>
			</g>
		</g>
	</g>
</g>
<g>
	
		<image overflow="visible" width="701" height="807" xlink:href="../../megahoot_logoGraphic2021.png"  transform="matrix(0.1647 1.830545e-004 -1.945707e-004 0.1756 439.2905 58.7178)">
	</image>
	<g>
		
			<image overflow="visible" width="701" height="807" xlink:href="../../megahoot_logoGraphic2021.png"  transform="matrix(0.1709 1.898773e-004 -1.966385e-004 0.1775 433.2451 47.8789)">
		</image>
	</g>
</g>
</svg>
