<?xml version="1.0" encoding="utf-8"?>
<!-- Generator: Adobe Illustrator 16.0.0, SVG Export Plug-In . SVG Version: 6.00 Build 0)  -->
<!DOCTYPE svg PUBLIC "-//W3C//DTD SVG 1.1//EN" "http://www.w3.org/Graphics/SVG/1.1/DTD/svg11.dtd">
<svg version="1.1" id="Layer_1" xmlns="http://www.w3.org/2000/svg" xmlns:xlink="http://www.w3.org/1999/xlink" x="0px" y="0px"
	 width="500px" height="500px" viewBox="0 0 500 500" enable-background="new 0 0 500 500" xml:space="preserve">
<ellipse fill="#FFFFFF" cx="251.667" cy="250.897" rx="224.667" ry="229.437"/>
<ellipse fill="none" cx="250.614" cy="249.813" rx="235.221" ry="235.672"/>
<g>
	<path fill="#673090" d="M311.201,170.704c-1.344-9.915-4.068-19.333-8.151-28.239c-11.203-3.886-23.9-5.335-36.137-5.261
		c-17.192,0.108-33.288,3.21-43.155,6.811l-3.092,1.13l-2.85-1.66l-17.776-10.348c11.845,21.67,32.158,38.198,51.965,54.309
		c19.482,15.851,38.508,31.328,49.905,51.338C310.932,213.833,313.963,191.123,311.201,170.704 M262.535,214.772
		c-6.191-5.492-12.782-10.854-19.432-16.263c-2.767-2.251-5.542-4.51-8.306-6.789c-0.093,0.824-0.138,1.689-0.138,2.588
		c0,5.927,2.39,11.293,6.251,15.177s9.198,6.287,15.092,6.287c2.252,0,4.381-0.331,6.343-0.94L262.535,214.772z M313.974,479.015
		c-7.719,1.585-31.648,5.753-39.604,6.56c-7.975,0.805-15.932,1.219-23.836,1.219c-65.026,0-123.9-26.505-166.515-69.355
		c-42.614-42.852-68.972-102.053-68.972-167.441s26.358-124.587,68.972-167.44c42.614-42.851,101.488-69.355,166.515-69.355
		c65.027,0,123.901,26.504,166.514,69.355c42.615,42.854,68.972,102.052,68.972,167.44c0,47.388-13.868,91.55-37.753,128.61
		c-24.296,37.701-58.978,68.013-99.971,86.852c-0.652,2.68-1.276,5.187-1.861,7.496l-2.551,10.06l-8.394-6.029
		c-82.227-59.048-107.578-119.919-104.872-164.436c1.1-18.133,6.823-33.66,15.303-45.432c7.292-10.125,16.657-17.515,26.958-21.482
		c2.895,3.889,5.433,8.019,7.395,12.426c-8.631,2.675-16.656,8.712-22.911,17.395c-6.992,9.708-11.722,22.658-12.649,37.929
		c-2.366,38.938,19.763,92.268,90.53,145.821c4.962-20.861,11.064-51.163,12.331-82.643c1.466-36.431-3.465-74.574-24.12-101.314
		c0.368-4.229,1.456-14.14,1.704-18.906c3.234,2.887,6.361,6.243,9.343,10.095c23.17,29.92,28.753,71.391,27.169,110.682
		c-1.042,25.875-5.157,50.738-9.343,70.587c34.229-17.855,63.238-44.441,84.11-76.826c22.415-34.78,35.43-76.286,35.43-120.884
		c0-61.458-24.773-117.101-64.826-157.377c-40.053-40.276-95.388-65.187-156.508-65.187c-61.12,0-116.454,24.911-156.507,65.187
		c-40.054,40.276-64.827,95.919-64.827,157.377c0,61.46,24.773,117.103,64.827,157.378c40.053,40.278,95.387,65.19,156.507,65.19
		c7.718,0,15.207-0.376,22.454-1.109l1.441-0.153c-34.431-18.338-69.624-43.469-92.979-75.316
		c-27.468-37.459-38.6-83.834-13.517-138.837c-6.701-23.287-7.438-44.53-2.957-63.163c3.239-13.462,9.174-25.51,17.53-35.944
		c2.77,4.012,5.755,7.874,8.929,11.612c-5.986,8.189-10.291,17.452-12.748,27.667c-4.064,16.89-3.138,36.496,3.517,58.309
		l0.815,2.667l-1.173,2.474l-0.849,1.794c-22.805,49.594-12.856,91.347,11.84,125.026
		C231.219,439.926,284.681,457.249,313.974,479.015z M286.214,96.367c22.097,20.505,35.216,44.688,38.975,72.45
		c3.589,26.52-1.453,56.094-15.467,88.617c0.544,1.965,1.017,3.975,1.415,6.031l-13.875,2.667
		c-3.053-15.76-11.994-28.83-23.648-40.842c-2.223,1.278-4.61,2.325-7.123,3.106c-3.354,1.042-6.879,1.606-10.488,1.606
		c-9.798,0-18.676-3.995-25.099-10.455c-6.423-6.458-10.397-15.385-10.397-25.239c0-2.398,0.259-4.815,0.75-7.218
		c0.388-1.883,0.927-3.723,1.606-5.505c-19.388-17.107-36.608-36.393-43.877-63.087l10.335-8.003l32.805,19.097
		c11.155-3.564,27.522-6.454,44.732-6.561c8.64-0.054,17.531,0.59,26.143,2.197c-4.624-6.451-10.079-12.59-16.349-18.408
		L286.214,96.367z"/>
</g>
<g>
	<g>
		<path fill="#673090" d="M195.732,275.268c5.55,5.656,3.625,14.225,4.857,21.397c0.412,2.399,4.404,2.393,4.821,0
			c0.812-4.649,0.191-9.366,1-14c0.55-3.153-4.268-4.502-4.821-1.33c-0.812,4.649-0.191,9.366-1,14c1.607,0,3.214,0,4.821,0
			c-1.45-8.441,0.432-16.902-6.143-23.603C197.007,269.428,193.473,272.966,195.732,275.268L195.732,275.268z"/>
	</g>
</g>
<g>
	<g>
		<path fill="#673090" d="M185.697,291.304c4.621,3.962,4.123,10.601,4.803,16.196c1.137,9.354,14.779,9.923,15,0
			c0.38-17.063-2.656-33.884-6.268-50.494c-4.569,1.927-9.139,3.854-13.708,5.779c5.493,11.77,7.866,24.785,7.976,37.715
			c5,0,10,0,15,0c-0.876-6.663-2.085-13.833-0.768-20.506c-4.569,0.597-9.139,1.194-13.708,1.791
			c2.621,5.731,2.205,12.757,0.744,18.721c4.178-1.103,8.357-2.206,12.535-3.31c-5.364-4.2-7.994-12.31-9.571-18.69
			c-4.569,1.927-9.139,3.854-13.708,5.779c1.663,2.188,2.676,3.932,2.476,6.715c4.911-0.665,9.821-1.329,14.732-1.994
			c-0.835-2.682-0.62-4.763,0.744-7.221c-4.659-1.262-9.317-2.523-13.976-3.785c0.167,3.65-1.01,6.336-3.803,8.696
			c3.926,0.507,7.853,1.013,11.779,1.519c-3.257-4.544-1.552-11.071-0.744-16.221c-4.911-0.665-9.821-1.329-14.732-1.994
			c0.105,3.272-1.254,6.165-3.303,8.696c4.178,1.104,8.357,2.207,12.535,3.31c-1.883-6.701,0.863-12.725,2.401-19.201
			c1.531-6.444,0.532-12.866-0.419-19.299c-1.938-13.11-3.025-26.786-1.822-40.021c1.737-19.123,13.389-36.303,33.608-37.984
			c9.568-0.795,9.646-15.802,0-15c-12.138,1.009-23.093,5.211-31.933,13.748c-8.368,8.082-13.22,19.495-15.47,30.732
			c-2.937,14.671-1.789,30.422,0.133,45.139c0.881,6.749,2.641,13.637,1.038,20.387c-2.086,8.78-4.541,16.447-2,25.488
			c1.404,4.995,8.861,7.848,12.535,3.31c4.532-5.599,7.934-11.9,7.697-19.304c-0.26-8.107-13.374-10.655-14.732-1.994
			c-1.424,9.079-3.524,19.717,2.256,27.779c2.966,4.138,7.857,4.833,11.779,1.519c5.547-4.688,8.525-12.093,8.197-19.304
			c-0.328-7.189-10.204-10.58-13.976-3.785c-3.244,5.843-4.263,12.334-2.256,18.779c2.59,8.316,14.131,6.37,14.732-1.994
			c0.371-5.159-1.421-10.203-4.524-14.285c-4.943-6.503-15.879-3.002-13.708,5.779c2.133,8.627,6.197,19.646,13.429,25.31
			c4.181,3.273,11.062,2.707,12.535-3.31c2.498-10.199,2.137-20.673-2.256-30.279c-2.667-5.831-12.5-4.326-13.708,1.791
			c-1.62,8.204-0.848,16.274,0.232,24.494c0.533,4.053,3.009,7.5,7.5,7.5c4.062,0,7.535-3.411,7.5-7.5
			c-0.134-15.7-3.379-31.049-10.024-45.285c-3.763-8.062-15.429-2.134-13.708,5.779c3.341,15.363,6.083,30.722,5.732,46.506
			c5,0,10,0,15,0c-1.172-9.646-1.201-19.947-9.197-26.804C189.003,274.437,178.342,284.997,185.697,291.304L185.697,291.304z"/>
	</g>
</g>
<g>
	<g>
		<path fill="#673090" d="M207.524,148.785c1.828,2.574,3.542,5.176,5.673,7.518c2.752,3.024,7.819,2.788,10.606,0
			c3.133-3.133,2.544-7.412,0-10.606c-5.119-6.428-9.331-13.482-17.018-17.173c-6.697-3.215-13.971,3.348-10.261,10.261
			c4.906,9.143,13.337,16.289,21.691,22.191c3.795,2.682,10.139,0.043,11.017-4.482c0.5-2.575,0.705-5.086,0.716-7.698
			c0.111-1.364-0.052-0.953-0.491,1.232c-1.393,1.211-1.448,1.39-0.166,0.537c1.442-0.846,3.237-1.112,4.85-1.419
			c3.36-0.639,7.034-0.363,10.444-0.54c4.637-0.24,9.266-0.743,13.904-1.008c7.754-0.443,16.59-1.657,24.297-0.516
			c3.891,0.576,7.146,2.473,9.332,5.446c5.786,7.873,6.478,18.735,6.288,28.146c-0.256,12.675-5.148,24.593-5.407,37.326
			c5,0,10,0,15,0c-0.089-4.121-0.99-8.513,0.213-12.446c-0.576,1.883-2.314,2.417-4.072,2.13c-1.485-0.482-2.522-1.359-3.111-2.629
			c-0.082-0.808-0.097-0.72-0.041,0.262c0.063,2-0.438,3.889-0.997,6.165c-1.07,4.364-2.561,8.646-4.001,12.896
			c-0.957,2.821-0.66-0.255,3.125,0.396c-0.782-0.134-1.728-1.596-2.154-2.176c-2.247-3.05-3.811-6.631-5.549-9.979
			c-3.899-7.508-9.976-14.126-15.711-20.274c-6.06-6.497-12.709-12.536-19.743-17.958c-5.961-4.595-21.81-8.333-19.726-17.892
			c-3.075,1.746-6.15,3.492-9.226,5.238c2.273,0.857,3.523,4.185,4.262,6.262c4.178-2.432,8.357-4.865,12.535-7.297
			c-2.845-2.565-5.674-5.545-7.071-9.19c-1.746,3.075-3.492,6.15-5.238,9.226c11.978-2.706,24.533-0.37,36.685-1.948
			c7.849-1.02,16.747-2.521,18.878,6.952c1.58,7.02-1.416,15.638-2.98,22.483c-1.761,7.709-3.954,16.516-1.309,24.275
			c4.569-1.926,9.139-3.853,13.708-5.779c-7.144-14.479-11.564-29.47-9.476-45.715c0.57-4.434-3.879-7.015-7.5-7.5
			c-5.296-0.709-10.264,1.279-15.5,1.5c-5.612,0.237-11.433-1.854-17-2.5c-5.628-0.653-9.392,6.864-6.476,11.285
			c5.959,9.035,13.385,17.357,22.191,23.691c4.514,3.247,11.669-1.072,11.285-6.476c-0.286-4.038-2.153-8.009-2-12
			c-3.762,2.159-7.523,4.317-11.285,6.476c4.059,3.107,4.694,10.147,3.053,14.53c4.179-1.104,8.357-2.207,12.536-3.31
			c-1.252-1.412-1.674-2.893-2.071-4.69c-4.569,1.926-9.139,3.853-13.708,5.779c1.099,1.997,1.74,3.986,2.243,6.208
			c2.138,9.433,16.6,5.432,14.465-3.987c-0.78-3.441-2.055-6.701-3.757-9.792c-4.243-7.71-15.497-2.306-13.708,5.779
			c0.965,4.357,2.985,7.988,5.929,11.31c4.058,4.578,10.704,1.583,12.536-3.31c4.212-11.248-0.736-24.418-9.947-31.47
			c-4.813-3.684-11.091,1.411-11.285,6.476c-0.163,4.234,1.709,7.897,2,12c3.762-2.159,7.523-4.317,11.285-6.476
			c-6.614-4.758-12.346-11.542-16.81-18.309c-2.158,3.762-4.317,7.523-6.476,11.285c5.723,0.664,11.197,2.316,17,2.5
			c5.277,0.167,10.219-2.208,15.5-1.5c-2.5-2.5-5-5-7.5-7.5c-2.415,18.788,3.295,36.608,11.524,53.285
			c3.759,7.62,16.445,2.25,13.708-5.779c-2.163-6.343,1.279-15.954,2.856-23.136c2.211-10.069,3.607-20.372-0.87-30.01
			c-5.097-10.971-17.432-13.15-28.192-11.938c-14.427,1.625-29.319-0.362-43.52,2.846c-3.708,0.837-6.655,5.529-5.238,9.226
			c2.35,6.134,6.045,11.407,10.929,15.81c5.178,4.668,15.216,0.241,12.535-7.297c-2.719-7.645-6.93-13.796-14.738-16.738
			c-3.683-1.388-8.412,1.507-9.226,5.238c-1.936,8.877,0.338,16.991,7.438,22.864c6.553,5.42,14.73,8.249,21.239,13.724
			c9.688,8.15,18.754,17.342,26.08,27.691c5.563,7.862,8.318,20.681,19.517,22.609c11.261,1.939,13.764-9.872,16.691-17.9
			c2.191-6.01,4.049-13.364,2.889-19.728c-1.68-9.213-12.286-11.254-18.78-5.545C291.029,201.33,292.854,211.25,293,218
			c0.208,9.67,14.803,9.672,15,0c0.162-7.951,2.681-15.36,4-23.128c1.1-6.475,1.575-13.04,1.384-19.603
			c-0.369-12.7-3.404-27.021-13.163-35.945c-4.933-4.51-10.979-6.556-17.521-7.235c-10.207-1.061-21.216,0.239-31.421,0.975
			c-9.346,0.674-19.796-0.112-28.434,4.013c-3.25,1.552-6.407,4.099-7.355,7.754c-0.666,2.565-0.229,5.137-0.722,7.676
			c3.672-1.494,7.345-2.988,11.017-4.482c-6.284-4.44-12.631-9.954-16.309-16.809c-3.42,3.42-6.841,6.841-10.261,10.261
			c6.299,3.024,9.771,9.541,13.982,14.827c3.536-3.536,7.071-7.071,10.606-10.606c-1.264-1.389-2.239-2.95-3.327-4.482
			C214.926,133.398,201.91,140.879,207.524,148.785L207.524,148.785z"/>
	</g>
</g>
<g>
	<g>
		<path fill="#673090" d="M277.768,166.494c0.589,3.914,1.177,5.948,1.232,9.006c4.911-0.665,9.821-1.329,14.732-1.994
			c-0.701-1.991-1.561-3.926-2.436-5.846c-0.317-0.696-0.641-1.39-0.958-2.086c-0.367-0.835-0.408-0.92-0.123-0.255
			c-0.174-0.434-0.335-0.871-0.483-1.313c-4.569,1.926-9.139,3.853-13.708,5.779c1.498,2.05,2.332,3.487,2.743,5.208
			c0.95,3.976,5.389,6.294,9.227,5.238c4.039-1.111,6.187-5.252,5.238-9.226c-0.764-3.195-2.329-6.154-4.257-8.792
			c-2.012-2.754-4.973-4.409-8.47-3.447c-3.732,1.027-6.597,5.367-5.238,9.226c0.701,1.991,1.561,3.926,2.436,5.846
			c0.317,0.696,0.641,1.39,0.958,2.086c0.367,0.835,0.408,0.92,0.123,0.255c0.174,0.434,0.335,0.871,0.483,1.313
			c1.12,3.181,3.718,5.506,7.232,5.506c4.032,0,7.574-3.411,7.5-7.5c-0.08-4.383-1.119-8.676-1.768-12.994
			c-0.609-4.049-5.645-6.224-9.227-5.238C278.717,158.448,277.16,162.455,277.768,166.494L277.768,166.494z"/>
	</g>
</g>
<g>
	<g>
		<path fill="#673090" d="M230.197,209.803c4.904,5.343,5.102,14.122,7.571,20.69c2.788,7.418,15.345,7.015,14.732-1.994
			c-1.021-15-2.457-29.971-3-45c-4.911,0.665-9.821,1.329-14.732,1.994c3.174,10.997,5.744,22.084,6.732,33.506
			c4.659-1.262,9.317-2.523,13.976-3.785c-1.661-3.296-2.158-7.194-3.243-10.708c-4.57,1.926-9.139,3.853-13.708,5.779
			c1.644,3.813,2.93,7.774,4.244,11.708c2.486,7.446,11.749,6.797,14.464,0c1.41-3.53,1.159-7.345,2-11
			c-4.179,1.104-8.357,2.207-12.536,3.31c3.875,3.384,4.863,8.903,6.071,13.69c2.043,8.091,15.345,6.55,14.732-1.994
			c-0.478-6.662-0.955-13.318-1-20c-4.268,1.768-8.535,3.536-12.804,5.303c2.845,3.527,3.296,8.897,4.071,13.19
			c1.273,7.049,13.462,7.327,14.465,0c0.55-4.018,0.762-7.94,0.768-11.994c-5,0-10,0-15,0c0.637,12.37,3.272,24.579,2,37
			c4.268-1.768,8.535-3.536,12.804-5.303c-3.305-4.233-3.575-10.908-4.247-16.013c-0.824-6.253-1.724-12.49-5.081-17.969
			c-3.317-5.415-12.062-4.646-13.708,1.792c-1.945,7.607-3.055,15.393-5,23c4.569-0.597,9.138-1.194,13.708-1.792
			c-4.424-9.713-5.615-20.74-6.976-31.215c-0.438-3.372-1.974-6.261-5.506-7.232c-3.579-0.984-8.62,1.188-9.226,5.238
			c-1.301,8.702-1.358,18.092-6.244,25.708c4.317,0,8.635,0,12.952,0c-6.856-8.99-4.885-22.605-6.744-33.208
			c-1.673-9.541-16.04-5.45-14.464,3.987c1.237,7.413,1.456,14.835-1,22.013c4.821,0,9.643,0,14.464,0
			c-3.547-9.061-3.254-18.436-3.232-28.006c-5,0-10,0-15,0c0.414,11.974-4.188,21.333-9.495,31.726
			c-2.748,5.38-5.856,11.151-6.751,17.175c-0.482,3.246-0.48,6.43-0.35,9.701c0.111,2.786,0.757,6.462-0.38,9.113
			c3.42-0.897,6.841-1.794,10.261-2.69c-5.44-2.484-8.471-7.222-10.675-13.415c-2.983-8.379-3.748-17.334-3.666-26.167
			c0.131-14.191,2.837-34.042,13.859-42.639c-4.178-1.103-8.357-2.206-12.535-3.31c1.529,9.747-3.739,20.664-6.61,29.74
			c-3.52,11.125-4.105,25.043-0.89,36.26c2.109,7.359,12.171,6.941,14.464,0c3.397-10.284,0.855-21.37,3.208-31.856
			c1.267-5.645,2.899-11.313,4.657-16.822c1.372-4.301,2.595-9.102,5.707-12.513c-3.926-0.506-7.853-1.012-11.779-1.518
			c8.236,11.558-0.782,27.521-1.524,40.215c5,0,10,0,15,0c-0.906-6.835-0.485-13.648,0-20.5c-5,0-10,0-15,0
			c-0.189,15.651-4.816,30.834-5,46.5c4.659-1.262,9.317-2.523,13.976-3.785c-1.692-3.956-2.897-8.128-4.244-12.208
			c-2.597-7.871-14.82-6.735-14.732,1.994c0.096,9.555,1.476,19.016,2.5,28.5c4.911-0.665,9.821-1.329,14.732-1.994
			c-0.563-1.818-1.036-3.654-1.5-5.5c-4.569,1.926-9.139,3.853-13.708,5.779c5.191,9.558,4.9,21.293,7.244,31.709
			c1.572,6.989,13.175,7.373,14.464,0c3.418-19.549-4.072-38.484-2.232-57.994c-4.268,1.768-8.536,3.536-12.803,5.303
			c8.349,10.285,7.957,26.456,11.571,38.691c2.822,9.552,15.755,5.312,14.464-3.988c-1.969-14.182-5.575-28.121-5.732-42.506
			c-4.659,1.262-9.317,2.523-13.976,3.785c6.9,10.292,8.831,22.892,11.744,34.709c1.989,8.064,15.66,6.526,14.732-1.994
			c-0.999-9.168-2.422-18.29-3-27.5c-4.911,0.665-9.821,1.329-14.732,1.994c4.138,10.143,6.688,20.806,11.256,30.792
			c3.679,8.044,15.528,2.151,13.708-5.779c-2.395-10.431-5.2-20.825-6.232-31.506c-4.659,1.262-9.317,2.523-13.976,3.785
			c7.787,12.761,10.531,27.542,16.244,41.209c2.655,6.351,12.411,7.885,14.464,0c3.049-11.707-1.051-23.208-0.232-34.994
			c-4.659,1.262-9.317,2.523-13.976,3.785c5.377,9.353,6.082,20.576,11.5,30c4.576,7.959,14.808,2.128,13.708-5.779
			c-1.699-12.21-5.223-24.149-10-35.5C253.912,227.37,251.668,225,248,225c-3.679,0-8.041,3.437-7.5,7.5
			c1.982,14.888,7.393,28.877,14.024,42.285c3.759,7.602,16.52,2.239,13.708-5.779C263.575,255.727,260.508,241.99,259,228
			c-4.658,1.262-9.317,2.523-13.976,3.785c7.506,14.672,13.403,30.126,21.5,44.5c4.243,7.534,15.776,2.387,13.708-5.779
			c-2.925-11.545-6.544-23.001-6.732-35.006c-4.658,1.262-9.317,2.523-13.976,3.785c5.507,10.931,7.577,23.21,13.5,34
			c3.02,5.503,12.364,4.597,13.708-1.791c2.807-13.346-0.572-26.849-3-39.988c-4.569,1.926-9.139,3.853-13.708,5.779
			c2.751,6,5.353,12.055,7.743,18.209c3.427,8.818,17.48,5.38,14.465-3.988c-4.038-12.542-8.462-24.957-12.5-37.5
			c-4.569,1.926-9.139,3.853-13.708,5.779c5.851,12.767,10.909,25.852,15.243,39.209c4.179-2.433,8.357-4.865,12.536-7.298
			c-2.065-2.596-2.523-6.007-2.304-9.196c-4.268,1.768-8.535,3.536-12.804,5.303c2.891,2.825,4.346,7.241,4.804,11.197
			c4.658-1.262,9.317-2.523,13.976-3.785c-0.979-1.689-2.16-3.235-3-5c-1.427-3-5.438-4.281-8.47-3.447
			c-4.302,1.183-5.828,5.184-5.238,9.226c0.974,6.658,2.067,13.251,1.732,20.006c4.268-1.768,8.535-3.535,12.804-5.304
			c-1.919-2.107-3.287-4.591-4.828-6.981c-4.151-6.442-13.49-3.666-13.976,3.785c-0.822,12.634,4.278,24.583,5.5,37
			c4.658-1.262,9.317-2.523,13.976-3.785c-6.19-10.432-7.839-22.731-11.243-34.209c-2.754-9.283-16.679-5.423-14.465,3.988
			c1.998,8.489,5.574,16.751,6.232,25.506c4.268-1.768,8.535-3.535,12.804-5.304c-4.855-6.172-5.49-15.858-7.571-23.19
			c-4.821,1.329-9.644,2.659-14.465,3.988c4.425,12.573,7.082,25.638,10.5,38.5c2.482,9.34,16.952,5.372,14.465-3.988
			c-3.418-12.861-6.075-25.926-10.5-38.5c-3.173-9.016-17.136-5.421-14.465,3.988c2.967,10.448,4.536,21.045,11.429,29.81
			c4.021,5.11,13.269,0.885,12.804-5.304c-0.769-10.23-4.438-19.596-6.768-29.494c-4.821,1.329-9.644,2.659-14.465,3.988
			c3.79,12.777,5.855,26.163,12.757,37.791c3.572,6.021,14.736,3.952,13.976-3.785c-1.213-12.331-6.311-24.546-5.5-37
			c-4.658,1.262-9.317,2.523-13.976,3.785c2.244,3.482,4.372,6.941,7.172,10.019c4.651,5.109,12.498,0.86,12.804-5.304
			c0.4-8.063-1.106-16.047-2.268-23.994c-4.569,1.927-9.139,3.854-13.708,5.779c0.839,1.765,2.02,3.311,3,5
			c3.498,6.031,14.868,3.926,13.976-3.785c-0.922-7.965-3.307-16.046-9.196-21.803c-4.905-4.794-12.364-1.092-12.804,5.303
			c-0.509,7.399,2.158,14.096,6.696,19.804c4.744,5.965,14.755-0.461,12.536-7.298c-4.734-14.587-10.367-28.851-16.757-42.791
			c-3.563-7.776-16.286-2.231-13.708,5.779c4.038,12.543,8.462,24.957,12.5,37.5c4.821-1.329,9.644-2.659,14.465-3.988
			c-2.859-7.358-5.966-14.616-9.257-21.791c-3.772-8.229-15.15-2.024-13.708,5.779c1.896,10.257,5.197,21.567,3,32.012
			c4.569-0.597,9.139-1.194,13.708-1.791c-5.891-10.733-7.987-23.061-13.5-34c-3.41-6.77-14.089-3.447-13.976,3.785
			c0.209,13.37,4.011,26.137,7.268,38.994c4.569-1.927,9.139-3.854,13.708-5.779c-8.098-14.375-13.993-29.828-21.5-44.5
			c-3.271-6.395-14.781-3.688-13.976,3.785c1.654,15.349,4.652,30.407,9.768,44.994c4.569-1.927,9.139-3.854,13.708-5.779
			c-5.353-10.823-10.369-22.652-11.976-34.715c-4.911,0.665-9.821,1.329-14.732,1.994c4.778,11.351,8.301,23.291,10,35.5
			c4.569-1.927,9.138-3.854,13.708-5.779c-5.377-9.353-6.081-20.577-11.5-30c-3.914-6.808-13.478-3.379-13.976,3.785
			c-0.711,10.237,3.385,20.956,0.768,31.006c4.821,0,9.643,0,14.464,0c-6.214-14.864-9.279-30.898-17.756-44.791
			c-3.625-5.941-14.729-4.008-13.976,3.785c1.165,12.056,4.065,23.719,6.768,35.494c4.569-1.927,9.139-3.854,13.708-5.779
			c-4.013-8.772-6.103-18.284-9.744-27.208C231.949,227.361,229.64,225,226,225c-3.895,0-7.756,3.416-7.5,7.5
			c0.578,9.21,2.001,18.332,3,27.5c4.911-0.665,9.821-1.329,14.732-1.994c-3.223-13.07-5.622-26.904-13.256-38.291
			c-4.005-5.974-14.061-4.034-13.976,3.785c0.171,15.721,4.116,30.997,6.268,46.494c4.821-1.329,9.643-2.659,14.464-3.988
			c-4.585-15.522-4.799-32.216-15.429-45.309c-4.573-5.633-12.263-0.426-12.803,5.303c-1.702,18.047,5.904,36.071,2.768,54.006
			c4.821,0,9.643,0,14.464,0c-2.686-11.938-2.785-24.296-8.756-35.291c-4.146-7.635-15.748-2.337-13.708,5.779
			c0.464,1.846,0.937,3.682,1.5,5.5c2.4,7.75,15.673,6.728,14.732-1.994c-1.024-9.484-2.404-18.945-2.5-28.5
			c-4.911,0.665-9.821,1.329-14.732,1.994c1.762,5.341,3.542,10.617,5.756,15.792c3.086,7.217,13.895,3.101,13.976-3.785
			c0.184-15.657,4.811-30.839,5-46.5c0.118-9.765-14.324-9.542-15,0c-0.485,6.852-0.906,13.665,0,20.5
			c1.243,9.371,14.421,9.912,15,0c0.957-16.379,10.362-32.508-0.524-47.785c-2.667-3.742-8.281-5.353-11.779-1.518
			c-7.953,8.716-10.332,21.453-13.345,32.501c-1.652,6.056-2.605,12.136-2.723,18.413c-0.106,5.691,0.45,11.412-1.361,16.895
			c4.821,0,9.643,0,14.464,0c-6.554-22.863,11.064-43.291,7.5-66c-0.979-6.239-8.662-6.331-12.535-3.31
			c-6.998,5.458-10.874,14.338-13.564,22.541c-3.332,10.159-4.601,21.166-4.699,31.82c-0.162,17.553,3.641,43.137,21.781,51.418
			c3.341,1.525,8.539,1.326,10.261-2.69c2.813-6.56,2.508-12.796,2.326-19.787c-0.167-6.438,2.948-11.881,5.803-17.47
			c6.27-12.276,11.383-23.926,10.896-38.028c-0.333-9.639-14.977-9.699-15,0c-0.025,10.795-0.231,21.777,3.768,31.994
			c2.693,6.879,11.943,7.367,14.464,0c3.34-9.761,2.672-19.975,1-29.987c-4.821,1.329-9.643,2.658-14.464,3.987
			c2.147,12.249,0.249,26.293,8.256,36.792c3.411,4.472,9.659,5.134,12.952,0c5.723-8.922,6.234-19.11,7.756-29.292
			c-4.911-0.665-9.822-1.329-14.732-1.994c1.73,13.318,3.404,26.449,9.024,38.785c2.762,6.063,12.204,4.094,13.708-1.792
			c1.944-7.607,3.055-15.393,5-23c-4.569,0.597-9.139,1.194-13.708,1.792c3.151,5.142,3.207,11.979,4.027,17.808
			c1.008,7.165,3.172,13.478,7.646,19.211c4.513,5.781,12.229,0.302,12.804-5.304c1.272-12.421-1.363-24.63-2-37
			c-0.494-9.602-14.987-9.727-15,0c-0.004,2.64,0.127,5.383-0.232,8.006c4.821,0,9.644,0,14.465,0
			c-1.332-7.376-3.15-13.883-7.929-19.81c-4.258-5.281-12.845-0.755-12.804,5.303c0.045,6.682,0.522,13.338,1,20
			c4.911-0.665,9.821-1.329,14.732-1.994c-1.837-7.275-4.07-15.194-9.929-20.31c-4.022-3.512-11.192-2.533-12.536,3.31
			c-0.837,3.641-0.607,7.513-2,11c4.821,0,9.643,0,14.464,0c-1.73-5.183-3.593-10.273-5.757-15.292
			c-3.397-7.88-16.178-2.22-13.708,5.779c1.499,4.854,2.45,9.72,4.756,14.292c3.277,6.498,14.618,3.631,13.976-3.785
			c-1.104-12.775-3.717-25.188-7.268-37.494c-2.311-8.007-15.044-6.627-14.732,1.994c0.543,15.029,1.979,30,3,45
			c4.911-0.665,9.821-1.329,14.732-1.994c-3.561-9.473-4.283-19.523-11.429-27.31C234.25,192.056,223.67,202.692,230.197,209.803
			L230.197,209.803z"/>
	</g>
</g>
<g>
	<g>
		<path fill="#673090" d="M324.804,273.696c-4.518-4.974-9.558-9.265-15.019-13.172c-2.523,4.317-5.047,8.634-7.57,12.951
			c24.839,12.916,24.541,47.9,26.785,72.024c4.911-0.665,9.821-1.329,14.732-1.994c-4.211-14.813-9.487-30.196-17.606-43.368
			c-7.717-12.518-19.919-21.25-28.65-32.923c-4.287-5.732-13.814-4.218-13.976,3.785c-0.301,14.955,5.199,29.27,11.024,42.785
			c4.317-2.523,8.634-5.047,12.951-7.57c-4.618-10.597-6.952-22.015-13-32c-4.577-7.559-15.278-2.395-13.708,5.779
			c2.323,12.087,6.764,23.582,11.757,34.791c3.484,7.823,16.249,2.225,13.708-5.779c-3.527-11.108-6.968-22.249-11.5-33
			c-4.569,1.927-9.139,3.854-13.708,5.779c4.501,7.451,5.884,16.363,11,23.5c4.932,6.881,15.52,2.806,13.708-5.779
			c-1.301-6.161-4.771-11.485-6.5-17.5c-3.673,2.823-7.346,5.646-11.018,8.47c6.94,4.227,12.076,10.982,16.981,17.328
			c5.198,6.723,16.699-2.174,11.779-9.089c-4.81-6.761-10.661-12.806-14-20.5c-3.42,3.42-6.841,6.841-10.261,10.261
			c6.635,3.373,11.355,9.677,15.981,15.328c2.594,3.167,7.933,2.674,10.607,0c3.13-3.13,2.549-7.416,0-10.607
			c-3.581-4.482-7.75-9.34-8.571-15.19c-3.075,3.075-6.151,6.151-9.227,9.227c3.971,1.671,7.11,6.177,9.519,9.553
			c3.926-3.029,7.853-6.059,11.779-9.089c-2.158-1.897-4.379-3.818-5.071-6.69c-4.569,1.927-9.139,3.854-13.708,5.779
			c3.189,4.886,6.019,9.987,9,15c3.926-3.029,7.853-6.059,11.779-9.089c-11.43-9.213-21.926-21.027-26.571-35.19
			c-4.179,2.433-8.357,4.865-12.536,7.298c7.572,8.099,4.873,21.635,4.804,31.696c-0.066,9.676,14.934,9.669,15,0
			c0.103-14.913,1.842-30.495-9.196-42.304c-5.053-5.404-14.878,0.156-12.536,7.298c5.449,16.611,16.933,30.93,30.429,41.81
			c6.308,5.083,16.42-1.286,11.779-9.089c-2.98-5.013-5.81-10.115-9-15c-4.646-7.116-15.736-2.632-13.708,5.779
			c1.292,5.354,4.865,9.735,8.929,13.31c6.052,5.321,16.989-1.784,11.779-9.089c-5.014-7.031-10.396-13.044-18.481-16.447
			c-5.962-2.509-9.903,4.402-9.227,9.227c1.175,8.364,7.343,15.441,12.429,21.81c3.536-3.536,7.071-7.071,10.607-10.607
			c-5.452-6.659-11.204-13.7-19.019-17.672c-7.122-3.621-13.209,3.466-10.261,10.261c3.34,7.7,9.188,13.736,14,20.5
			c3.926-3.029,7.853-6.059,11.779-9.089c-5.763-7.453-11.881-14.717-20.019-19.672c-5.624-3.426-12.821,2.192-11.018,8.47
			c1.729,6.015,5.204,11.359,6.5,17.5c4.569-1.927,9.139-3.854,13.708-5.779c-5.093-7.105-6.496-16.046-11-23.5
			c-4.242-7.022-17.103-2.272-13.708,5.779c4.532,10.75,7.973,21.892,11.5,33c4.569-1.927,9.139-3.854,13.708-5.779
			c-4.463-10.02-8.17-20.419-10.243-31.209c-4.569,1.927-9.139,3.854-13.708,5.779c5.988,9.889,8.405,21.459,13,32
			c1.634,3.75,7.05,4.572,10.261,2.69c3.844-2.251,4.309-6.506,2.69-10.261c-4.759-11.045-9.221-23.031-8.976-35.215
			c-4.658,1.262-9.317,2.523-13.976,3.785c8.129,10.868,18.939,19.391,26.909,30.339c8.876,12.192,13.757,28.026,17.834,42.37
			c2.248,7.906,15.536,6.647,14.732-1.994c-2.771-29.787-3.794-69.158-34.215-84.976c-8.706-4.527-15.351,7.385-7.57,12.951
			c4.41,3.156,8.339,6.816,11.981,10.828C320.713,291.479,331.289,280.839,324.804,273.696L324.804,273.696z"/>
	</g>
</g>
<g>
	<g>
		<path fill="#673090" d="M220.768,323.994c2.85,12.492,0.659,25.517,4,38c1.832,6.845,13.041,7.496,14.464,0
			c4.654-24.518-7.744-46.623-10.232-70.494c-4.659,1.262-9.317,2.523-13.976,3.785c6.498,9.257,8.335,21.119,7.476,32.215
			c4.911-0.665,9.821-1.329,14.732-1.994c-4.947-15.504-10.276-34.052-4.5-50.012c-4.569,0.597-9.139,1.194-13.708,1.791
			c6.5,9.465,8.138,21.586,9.744,32.709c4.821-1.329,9.643-2.659,14.464-3.988c-3.211-10.419-5.135-21.617-3.5-32.512
			c-4.569,0.597-9.139,1.194-13.708,1.791c5.616,10.736,7.08,23.075,11.744,34.209c3.627,8.657,16.868,5.687,14.464-3.988
			c-3.431-13.81-6.456-27.718-10-41.5c-4.821,1.329-9.643,2.659-14.464,3.988c5.944,16.218,8.625,33.423,15,49.5
			c1.25,3.152,3.618,5.506,7.232,5.506c3.835,0,7.835-3.42,7.5-7.5c-1.082-13.176-3.324-26.238-2.5-39.5
			c-4.659,1.262-9.317,2.523-13.976,3.785c8.236,12.688,8.452,28.801,14.5,42.5c2.595,5.877,12.535,4.288,13.708-1.791
			c3.158-16.373,1.331-32.957,1.768-49.494c-4.911,0.665-9.821,1.329-14.732,1.994c5.408,13.074,8.593,26.925,14,40
			c4.569-1.927,9.139-3.854,13.708-5.779c-4.318-9.916-6.708-20.482-12-30c-4.784-8.605-16.879-1.06-12.951,7.57
			c5.701,12.529,9.901,25.665,14.243,38.709c4.821-1.329,9.644-2.659,14.465-3.988c-4.238-11.405-6.941-23.289-12.257-34.291
			c-3.465-7.173-13.605-3.104-13.976,3.785c-0.882,16.423,2.392,32.668,3.5,49c4.658-1.262,9.317-2.523,13.976-3.785
			c-5.673-9.965-6.677-21.807-12-32c-3.311-6.341-14.792-3.724-13.976,3.785c1.594,14.651,4.833,29.188,4,44
			c4.911-0.665,9.821-1.329,14.732-1.994c-5.148-12.342-6.525-25.836-12.757-37.791c-3.49-6.698-14.072-3.499-13.976,3.785
			c0.158,11.924,2.879,23.607,3.5,35.5c4.911-0.665,9.821-1.329,14.732-1.994c-3.603-9.944-6.548-20.07-10.757-29.791
			c-3.003-6.939-14.333-3.333-13.976,3.785c0.799,15.91,6.455,30.926,9.268,46.494c1.724,9.539,16.069,5.445,14.464-3.988
			c-2.735-16.081-4.767-32.183-11.256-47.291c-2.924-6.808-14.635-3.423-13.976,3.785c1.278,13.984,5.218,27.438,10.268,40.494
			c2.445,6.319,12.752,7.934,14.464,0c2.4-11.128,1.876-22.996-1-33.988c-2.455-9.379-16.645-5.41-14.464,3.988
			c3.794,16.357,7.14,33.395,16.256,47.791c4.319,6.822,13.025,3.315,13.976-3.785c2.42-18.092,0.566-36.332,0.5-54.5
			c-4.658,1.262-9.317,2.523-13.976,3.785c7.355,12.67,10.115,27.356,16.5,40.5c3.796,7.816,15.86,2.248,13.708-5.779
			c-4.308-16.066-6.689-32.384-7.232-49.006c-4.911,0.665-9.821,1.329-14.732,1.994c4.817,15.042,9.358,30.263,16.757,44.291
			c3.513,6.663,14.083,3.525,13.976-3.785c-0.242-16.521-6.275-32.126-7.5-48.5c-4.658,1.262-9.317,2.523-13.976,3.785
			c5.979,13.781,9.2,28.529,16,42c3.835,7.6,16.341,2.28,13.708-5.779c-3.382-10.348-8.57-20.57-9.732-31.506
			c-4.911,0.665-9.821,1.329-14.732,1.994c4.651,11.127,7.68,22.825,12.757,33.791c3.774,8.155,15.263,2.074,13.708-5.779
			c-1.729-8.725-3.718-18.079-2.5-27.012c-4.179,1.103-8.357,2.206-12.536,3.31c6.55,8.291,8.036,19.452,14.328,27.981
			c2.025,2.747,4.961,4.412,8.47,3.447c2.961-0.814,5.852-3.964,5.506-7.232c-1.246-11.775-5.045-22.912-7.268-34.494
			c-4.569,1.927-9.139,3.854-13.708,5.779c2.479,5.102,4.52,10.398,7,15.5c3.811,7.84,15.796,2.241,13.708-5.779
			c-2.021-7.758-3.522-15.624-5-23.5c-4.569,1.927-9.139,3.854-13.708,5.779c5.295,12.408,7.6,25.793,13.5,38
			c1.446,2.994,5.423,4.285,8.47,3.447c4.299-1.183,5.832-5.185,5.238-9.227c-1.465-9.966-3.546-19.881-2.732-30.006
			c-4.658,1.262-9.317,2.523-13.976,3.785c6.537,12.602,8.065,27.072,13.243,40.209c2.948,7.479,14.831,7.023,14.732-1.994
			c-0.142-12.878-2.809-25.596-2-38.5c-4.268,1.768-8.535,3.535-12.804,5.304c6.033,4.834,7.222,12.271,7.478,19.624
			c0.321,9.254-1.17,18.493-2.73,27.58c-4.301,25.042-9.681,50.547-10.443,75.992c5,0,10,0,15,0
			c-0.95-7.355-0.005-14.516,0.981-21.812c1.026-7.593,1.284-14.749,0.436-22.372c-1.7-15.275-4.723-30.382-4.417-45.816
			c0.081-4.089-3.473-7.5-7.5-7.5c-4.482,0-6.979,3.446-7.5,7.5c-1.388,10.791-1.529,21.673-2.5,32.5
			c4.658-1.262,9.317-2.523,13.976-3.785c-7.737-13.845-11.792-29.241-16.743-44.209c-4.179,2.433-8.357,4.865-12.536,7.298
			c6.642,6.116,8.693,16.013,12.328,23.981c4.317-2.523,8.634-5.047,12.951-7.57c-3.78-7.833-6.237-16.241-13.172-22.019
			c-3.742-3.117-9.067-2.861-11.779,1.519c-5.536,8.939-4.333,20.349-3.024,30.285c4.268-1.768,8.535-3.535,12.804-5.304
			c-6.449-7.445-9.123-16.753-17.519-22.672c-4.106-2.896-9.687,0.177-11.018,4.481c-2.064,6.683-1.343,13.618-1.768,20.494
			c3.165-2.411,6.329-4.821,9.494-7.232c-4.485-1.592-8.146-5.336-12.209-7.743c-2.777-1.646-6.867-1.31-9.089,1.172
			c-7.437,8.31-7.223,19.788-7.196,30.304c3.762-2.158,7.523-4.317,11.285-6.476c-3.464-1.946-5.916-4.847-8.481-7.828
			c-5.657-6.572-16.03,1.886-11.779,9.089c9.925,16.818,18.58,34.44,30.685,49.867c10.887,13.874,25.749,23.612,37.987,36.151
			c4.521,4.631,12.945,1.237,12.804-5.304c-0.104-4.805-0.787-9.565-0.889-14.37c-0.084-3.967,1.176-6.319,3.271-9.517
			c3.979-6.071,8.04-12.572,5.85-20.107c-2.695-9.269-17.171-5.322-14.465,3.988c0.468,1.606-1.296,3.819-2.156,5.22
			c-1.75,2.853-3.776,5.502-5.216,8.537c-3.916,8.253-1.585,17.54-1.396,26.249c4.268-1.768,8.535-3.535,12.804-5.304
			c-11.85-12.139-26.155-21.64-36.952-34.831c-11.875-14.508-19.896-32.088-29.376-48.15c-3.926,3.029-7.853,6.059-11.779,9.089
			c3.404,3.955,6.927,7.593,11.519,10.172c4.926,2.768,11.3-0.713,11.285-6.476c-0.015-5.654-1.312-15.1,2.804-19.696
			c-3.03,0.391-6.06,0.781-9.089,1.172c5.355,3.175,9.834,7.142,15.791,9.257c4.861,1.725,9.214-2.693,9.494-7.232
			c0.341-5.508-0.416-11.173,1.232-16.506c-3.673,1.494-7.346,2.988-11.018,4.481c2.968,2.093,4.792,5.68,6.598,8.721
			c2.409,4.056,4.783,8.026,7.884,11.607c4.02,4.641,13.659,1.188,12.804-5.304c-0.911-6.916-2.923-16.418,0.976-22.715
			c-3.926,0.506-7.853,1.012-11.779,1.519c5.791,4.824,7.658,12.416,10.828,18.981c4.231,8.767,16.911,1.114,12.951-7.57
			c-4.291-9.411-6.793-19.763-14.672-27.019c-5.235-4.821-15.013-0.19-12.536,7.298c5.358,16.195,9.883,32.809,18.257,47.791
			c3.901,6.982,13.347,3.227,13.976-3.785c0.971-10.827,1.112-21.709,2.5-32.5c-5,0-10,0-15,0
			c-0.305,15.412,2.608,30.57,4.417,45.816c0.888,7.48,0.633,14.578-0.398,22.029c-1.024,7.396-1.981,14.697-1.019,22.154
			c1.205,9.326,14.702,9.946,15,0c0.783-26.116,6.735-52.055,10.873-77.797c2.844-17.688,6.448-43.171-9.569-56.007
			c-5.13-4.109-12.37-1.613-12.804,5.304c-0.809,12.904,1.858,25.622,2,38.5c4.911-0.665,9.821-1.329,14.732-1.994
			c-5.676-14.398-7.57-29.939-14.757-43.791c-3.7-7.133-13.421-3.114-13.976,3.785c-0.917,11.408,1.617,22.762,3.268,33.994
			c4.569-1.927,9.139-3.854,13.708-5.779c-5.854-12.113-8.217-25.622-13.5-38c-1.297-3.04-5.538-4.253-8.47-3.447
			c-4.183,1.151-5.991,5.212-5.238,9.227c1.479,7.875,2.98,15.741,5,23.5c4.569-1.927,9.139-3.854,13.708-5.779
			c-2.479-5.102-4.52-10.398-7-15.5c-3.938-8.102-15.218-2.092-13.708,5.779c1.96,10.209,5.636,20.143,6.732,30.506
			c4.658-1.262,9.317-2.523,13.976-3.785c-7.071-9.588-9.209-21.569-16.672-31.019c-3.289-4.163-11.806-2.049-12.536,3.31
			c-1.612,11.835,0.196,23.356,2.5,34.988c4.569-1.927,9.139-3.854,13.708-5.779c-4.52-9.765-7.098-20.289-11.243-30.209
			C298.921,307.368,296.661,305,293,305c-3.761,0-7.933,3.427-7.5,7.5c1.33,12.516,6.399,23.654,10.268,35.494
			c4.569-1.927,9.139-3.854,13.708-5.779c-6.764-13.401-10.031-28.247-16-42c-2.97-6.846-14.513-3.399-13.976,3.785
			c1.225,16.364,7.259,32.065,7.5,48.5c4.658-1.262,9.317-2.523,13.976-3.785c-6.789-12.875-10.822-26.904-15.243-40.709
			c-2.515-7.851-15.018-6.74-14.732,1.994c0.585,17.904,3.128,35.688,7.768,52.994c4.569-1.927,9.139-3.854,13.708-5.779
			c-6.392-13.159-9.104-27.762-16.5-40.5c-3.745-6.451-14.003-3.681-13.976,3.785c0.066,18.168,1.92,36.408-0.5,54.5
			c4.658-1.262,9.317-2.523,13.976-3.785c-8.409-13.281-11.243-29.119-14.743-44.209c-4.821,1.329-9.644,2.659-14.464,3.988
			c2.182,8.338,2.827,17.543,1,26.012c4.821,0,9.643,0,14.464,0c-4.521-11.687-8.586-23.965-9.732-36.506
			c-4.659,1.262-9.317,2.523-13.976,3.785c5.882,13.693,7.269,29.155,9.744,43.709c4.821-1.329,9.643-2.659,14.464-3.988
			c-2.565-14.193-8.005-28.023-8.732-42.506c-4.659,1.262-9.317,2.523-13.976,3.785c3.68,8.501,6.093,17.509,9.244,26.209
			c2.733,7.546,15.199,6.942,14.732-1.994c-0.621-11.893-3.342-23.576-3.5-35.5c-4.658,1.262-9.317,2.523-13.976,3.785
			c5.579,10.703,6.616,23.111,11.244,34.209c3.181,7.624,14.231,6.924,14.732-1.994c0.833-14.817-2.406-29.346-4-44
			c-4.658,1.262-9.317,2.523-13.976,3.785c5.308,10.167,6.267,21.932,12,32c3.558,6.249,14.491,3.814,13.976-3.785
			c-1.108-16.332-4.382-32.577-3.5-49c-4.658,1.262-9.317,2.523-13.976,3.785c4.726,9.782,6.971,20.556,10.743,30.709
			c3.317,8.928,17.553,5.29,14.465-3.988c-4.758-14.292-9.509-28.563-15.757-42.291c-4.317,2.523-8.634,5.047-12.951,7.57
			c5.246,9.438,7.699,20.127,12,30c3.379,7.758,16.95,2.061,13.708-5.779c-5.408-13.074-8.593-26.925-14-40
			c-3.106-7.509-14.495-7.014-14.732,1.994c-0.398,15.084,1.646,30.589-1.232,45.506c4.569-0.597,9.139-1.194,13.708-1.791
			c-6.118-13.86-6.043-29.473-14.5-42.5C249.818,265.81,240.465,268.52,240,276c-0.824,13.262,1.418,26.324,2.5,39.5
			c4.911-0.665,9.821-1.329,14.732-1.994c-6.375-16.076-9.057-33.281-15-49.5c-3.282-8.956-16.908-5.515-14.464,3.988
			c3.544,13.781,6.569,27.689,10,41.5c4.821-1.329,9.643-2.659,14.464-3.988c-5.182-12.368-6.997-25.824-13.256-37.791
			c-2.815-5.381-12.732-4.714-13.708,1.791c-2.052,13.669-0.564,27.306,3.5,40.488c2.925,9.488,15.812,5.346,14.464-3.988
			c-1.792-12.411-4.011-25.741-11.256-36.291c-3.794-5.525-11.442-4.469-13.708,1.791c-6.669,18.428-1.231,40.026,4.5,57.988
			c2.649,8.304,14.083,6.377,14.732-1.994c1.041-13.439-1.674-28.603-9.524-39.785c-3.826-5.45-14.824-4.345-13.976,3.785
			c1.203,11.537,4.417,22.598,7.33,33.785c2.74,10.523,5.506,21.826,3.438,32.721c4.821,0,9.643,0,14.464,0
			c-3.313-12.381-1.144-25.481-4-38C233.081,310.577,218.619,314.576,220.768,323.994L220.768,323.994z"/>
	</g>
</g>
<g>
	<g>
		<path fill="#673090" d="M321.768,379.494c3.298,18.983-2.602,38.514-3.268,57.506c3.762-2.158,7.523-4.317,11.285-6.476
			c-10.291-5.247-15.023-15.687-19.628-25.726c-6.028-13.143-14.618-24.523-23.182-36.084c-3.69-4.983-11.843-4.983-13.708,1.791
			c-2.589,9.406,3.11,17.786,7.224,25.797c2.202,4.287,3.303,9.186,5.269,13.607c2.188,4.923,4.896,9.32,8.437,13.394
			c2.189,2.519,6.334,2.786,9.089,1.172c3.863-2.263,4.281-6.494,2.69-10.261c-2.863-6.785-6.655-13.156-9.819-19.803
			c-2.596-5.454-6.124-12.798-4.424-18.918c-3.673,1.494-7.346,2.988-11.018,4.481c5.498,3.026,8.752,8.655,10.553,14.519
			c4.821-1.329,9.644-2.659,14.465-3.988c-3.942-10.304-8.536-20.867-9.232-32.006c-4.268,1.768-8.535,3.535-12.804,5.304
			c8.156,9.866,14.882,21.983,17.071,34.69c4.569-1.927,9.139-3.854,13.708-5.779C310.63,386.841,308.572,379.98,308,373
			c-4.268,1.768-8.535,3.535-12.804,5.304c6.766,8.633,8.733,21.004,12.071,31.19c2.997,9.145,17.449,5.249,14.465-3.988
			c-3.305-10.225-5.114-20.744-4.732-31.506c-3.165,2.411-6.329,4.821-9.494,7.232c2.74,1.068,4.232,5.097,5.34,7.501
			c1.748,3.794,2.797,7.908,4.422,11.761c4.569-1.927,9.139-3.854,13.708-5.779c-4.56-7.195-6.26-15.427-7.743-23.709
			c-4.821,1.329-9.644,2.659-14.465,3.988c2.707,9.057,4.707,18.02,4.059,27.525c-0.293,4.295-2.277,8.234-3.684,12.236
			c-1.475,4.197-1.699,8.397-0.875,12.738c1.213,6.379,10.808,7.313,13.708,1.791c4.3-8.186,11.996-13.699,18.138-20.408
			c7.563-8.26,11.058-17.719,9.119-28.871c-1.51-8.684-14.385-6.086-14.732,1.994c-0.506,11.746-1.26,23.164-2.901,34.801
			c-1.377,9.765-1.177,20.7-5.074,29.914c3.926-0.506,7.853-1.012,11.779-1.519c-0.5-0.5-1-1-1.5-1.5
			c-6.846-6.845-17.452,3.762-10.607,10.607c0.5,0.5,1,1,1.5,1.5c3.087,3.086,9.856,3.028,11.779-1.519
			c4.387-10.368,5.198-21.394,6.476-32.471c0.718-6.223,1.967-12.347,2.529-18.597c0.634-7.051,0.715-14.148,1.02-21.218
			c-4.911,0.665-9.821,1.329-14.732,1.994c1.274,7.327-3.647,12.786-8.449,17.606c-6.274,6.298-13.093,12.115-17.294,20.114
			c4.569,0.597,9.139,1.194,13.708,1.791c-0.554-2.912,1.519-6.598,2.531-9.23c1.696-4.414,2.367-8.888,2.688-13.596
			c0.68-9.964-1.892-20.211-4.719-29.674c-2.809-9.399-16.146-5.405-14.465,3.988c1.708,9.534,4.011,19.016,9.257,27.291
			c4.346,6.856,17.137,2.35,13.708-5.779c-4.864-11.529-7.293-24.688-20.238-29.738c-4.741-1.85-9.336,2.779-9.494,7.232
			c-0.425,11.979,1.59,24.11,5.268,35.494c4.821-1.329,9.644-2.659,14.465-3.988c-4.282-13.065-7.285-26.778-15.929-37.81
			c-3.995-5.098-13.313-0.894-12.804,5.304c0.786,9.579,3.209,19.169,8.524,27.285c4.836,7.386,15.135,2.503,13.708-5.779
			c-2.631-15.264-11.184-29.52-20.929-41.31c-4.141-5.009-13.195-0.959-12.804,5.304c0.792,12.663,5.281,24.267,9.768,35.994
			c3.386,8.848,17.354,5.42,14.465-3.988c-2.916-9.492-8.558-18.59-17.447-23.481c-4.238-2.333-9.695-0.276-11.018,4.481
			c-4.915,17.693,9.273,34.922,15.757,50.279c3.926-3.029,7.853-6.059,11.779-9.089c-4.961-5.707-6.831-12.935-9.51-19.815
			c-1.418-3.642-3.381-7.021-5.207-10.465c-1.194-2.252-3.065-5.342-2.354-7.922c-4.569,0.597-9.139,1.194-13.708,1.791
			c8.883,11.993,17.526,23.756,23.776,37.382c5.479,11.947,12.288,23.627,24.414,29.809c5.123,2.612,11.079-0.602,11.285-6.476
			c0.724-20.617,6.318-40.846,2.732-61.494C334.579,365.989,320.125,370.036,321.768,379.494L321.768,379.494z"/>
	</g>
</g>
<g>
	<g>
		<path fill="#673090" d="M206.268,317.006c-5.729,14.652,1.404,27.85,2.232,42.494c0.558,9.862,13.873,9.433,15,0
			c2.459-20.581,1.529-41.326,1.5-62c-0.014-9.673-14.996-9.673-15,0c-0.003,7.573-0.008,15.095-1.732,22.506
			c4.569-0.597,9.139-1.194,13.708-1.791c-5.451-8.92-4.993-19.12-4.976-29.215c-4.911,0.665-9.821,1.329-14.732,1.994
			c1.107,5.614,2.136,11.146,4.756,16.291c4.39,8.622,17.331,1.029,12.952-7.57c-1.945-3.82-2.422-8.539-3.244-12.709
			c-1.67-8.473-14.718-6.287-14.732,1.994c-0.021,12.797,0.142,25.523,7.024,36.785c3.258,5.331,12.192,4.728,13.708-1.791
			c2.029-8.727,2.265-17.576,2.268-26.494c-5,0-10,0-15,0c0.029,20.674,0.959,41.419-1.5,62c5,0,10,0,15,0
			c-0.727-12.857-7.704-25.884-2.768-38.506c1.491-3.813-1.606-8.228-5.238-9.227C211.241,310.598,207.755,313.202,206.268,317.006
			L206.268,317.006z"/>
	</g>
</g>
<g>
	<g>
		<path fill="#673090" d="M290.828,470.574c9.479-3.478,19.591-9.204,27.143-15.929c3.919-3.491,2.238-11.696-3.31-12.536
			c-6.823-1.031-11.366,1.862-17.421,4.461c-2.688,1.154-5.234,2.669-7.858,3.962c0.205-0.102-2.124,0.9-1.387,0.614
			c-1.972,0.766,0.583,0.362-0.777,0.235c1.262,0.342,2.523,0.683,3.785,1.024c-0.119-0.07-0.239-0.141-0.359-0.211
			c1.149,1.494,2.298,2.988,3.447,4.482c-0.052-0.133-0.103-0.267-0.154-0.399c0,1.329,0,2.658,0,3.987
			c-0.506,0.582-0.44,0.401,0.198-0.542c0.727-0.865,1.493-1.693,2.299-2.486c1.559-1.61,3.301-2.895,5.186-4.087
			c-3.029-3.926-6.059-7.853-9.089-11.779c-2.797,3.059-5.898,4.933-9.648,6.661c3.42,3.42,6.841,6.841,10.261,10.261
			c0.597-1.118,1.153-1.412,2.31-1.976c-3.672-2.823-7.345-5.646-11.018-8.47c-0.025,0.236-0.051,0.473-0.076,0.709
			c-4.375,8.602,8.566,16.194,12.951,7.57c0.723-1.419,1.314-2.717,1.59-4.291c1.154-6.615-4.831-11.484-11.018-8.47
			c-3.256,1.586-5.984,4.157-7.69,7.356c-3.731,6.994,3.558,13.351,10.261,10.261c4.814-2.218,9.092-5.077,12.686-9.005
			c5.588-6.11-1.634-16.492-9.089-11.779c-6.445,4.072-22.902,17.946-10.616,25.159c4.146,2.434,8.919,0.213,12.813-1.545
			c2.372-1.07,4.65-2.346,6.967-3.526c1.208-0.617,6.267-3.894,7.461-3.713c-1.103-4.179-2.206-8.357-3.31-12.536
			c-5.464,4.867-13.661,9.555-20.523,12.071C277.837,459.412,281.726,473.912,290.828,470.574L290.828,470.574z"/>
	</g>
</g>
<g>
	<g>
		<path fill="#673090" d="M302.638,474.146c1.437-1.137,3.971-1.349,5.69-1.738c3.333-0.756,6.443-2.194,9.833-2.833
			c-2.433-4.179-4.865-8.357-7.298-12.536c-3.258,2.538-8.857,3.704-12.69,5.237c-8.742,3.497-5.455,17.402,3.988,14.465
			c4.887-1.521,9.816-1.021,14.843-1.586c5.03-0.565,9.223-2.838,13.824-4.747c-1.927-4.569-3.854-9.139-5.779-13.708
			c-3.753,2.66-7.962,4.209-12.167,6c-3.765,1.603-4.559,7.073-2.69,10.261c2.258,3.855,6.499,4.292,10.261,2.69
			c4.209-1.791,8.41-3.336,12.167-6c2.776-1.968,4.399-5.008,3.447-8.47c-0.982-3.571-5.443-6.809-9.227-5.238
			c-4.361,1.811-8.503,4.259-13.305,4.484c-5.234,0.245-10.305,0.275-15.362,1.849c1.329,4.821,2.659,9.644,3.988,14.465
			c6.586-2.635,13.677-4.708,19.31-9.095c6.524-5.082-0.783-13.764-7.298-12.536c-7.45,1.405-16.146,3.688-22.143,8.429
			c-3.212,2.54-2.638,7.97,0,10.607C295.171,477.286,299.434,476.678,302.638,474.146L302.638,474.146z"/>
	</g>
</g>
<g>
	<g>
		<path fill="#673090" d="M307.834,480.175c9.673,0,9.673-15,0-15S298.161,480.175,307.834,480.175L307.834,480.175z"/>
	</g>
</g>
<g>
	<g>
		<path fill="#673090" d="M310.708,473.831c3.225,0,3.225-5,0-5S307.483,473.831,310.708,473.831L310.708,473.831z"/>
	</g>
</g>
<g>
	<g>
		<path fill="#673090" d="M314.208,478.415c3.225,0,3.225-5,0-5S310.983,478.415,314.208,478.415L314.208,478.415z"/>
	</g>
</g>
<g>
	<g>
		<path fill="#673090" d="M311.25,478.831c0.544-0.043,1.057-0.106,1.582-0.255c2.656-0.753,2.213-5.088-0.665-4.911
			c-1.558,0.096-3.041,1.024-3.041,2.769c0,1.563,1.359,3.074,2.959,3.074c1.342,0,2.997-1.07,4.177-1.643
			c1.309-0.636,2.491-1.48,3.861-1.998c2.984-1.131,1.691-5.966-1.33-4.822c-2.553,0.967-4.801,2.688-7.373,3.552
			c0.643,0.084,1.284,0.168,1.927,0.252c-0.111-0.072-0.224-0.145-0.335-0.218c0.383,0.498,0.766,0.996,1.149,1.494
			c-0.042-0.118-0.083-0.237-0.124-0.356c-0.084,0.643-0.168,1.284-0.252,1.927c0.055-0.082,0.109-0.163,0.163-0.245
			c-0.719,0.412-1.438,0.825-2.158,1.238c0.126-0.008,0.251-0.016,0.377-0.023c-0.222-1.637-0.443-3.273-0.665-4.911
			c-0.084,0.026-0.168,0.052-0.252,0.077C308.058,474.083,308.033,479.085,311.25,478.831L311.25,478.831z"/>
	</g>
</g>
<g>
	<g>
		<path fill="#673090" d="M207.931,340.08c12.489,17.262,20.174,37.444,33,54.5c1.289,1.714,8.996-0.354,8.416-2.745
			c-3.663-15.092-10.294-29.282-13.5-44.5c-2.805,0.915-5.61,1.83-8.416,2.745c7.36,10.911,10.543,24.381,13.222,37.085
			c2.805-0.915,5.61-1.83,8.416-2.745c-8.751-10.841-15.868-22.786-23.222-34.585c-2.805,0.915-5.61,1.83-8.416,2.745
			c7.056,10.241,12.495,21.583,13.722,34.085c2.805-0.915,5.61-1.83,8.416-2.745c-11.198-9.534-16.558-23.644-22.722-36.585
			c-1.154-2.422-9.528,0.088-8.693,2.33c3.709,9.962,8.783,20.609,8.033,31.501c2.887-0.61,5.774-1.221,8.661-1.831
			c-10.615-19.882-10.907-42.193-7.533-64.001c0.441-2.849-7.885-0.904-8.628,1.332c-2.974,8.955-5.824,17.95-8.5,27
			c2.887-0.61,5.774-1.221,8.661-1.831c-6.445-10.514-6.496-23.048-6.5-35c-2.898,0.776-5.795,1.554-8.693,2.33
			c0.944,7.811,1.506,15.649,2,23.5c2.898-0.776,5.795-1.554,8.693-2.33c-0.974-8.636-1.466-17.313-1-26
			c-2.805,0.915-5.61,1.83-8.416,2.745c5.475,7.06,5.217,17.095,5.222,25.585c2.898-0.776,5.795-1.554,8.693-2.33
			c-1.352-3.997-1.874-7.816-1.033-12.001c-2.887,0.61-5.774,1.221-8.661,1.831c4.105,8.852,3.992,18.95,3.5,28.5
			c2.805-0.915,5.61-1.83,8.416-2.745c-5.776-7.314-5.716-17.209-5.722-26.085c-0.001-2.233-8.114-0.22-8.661,1.831
			c-1.043,3.915-2.408,7.582-4.672,10.972c2.685-0.573,5.37-1.146,8.055-1.718c-15.956-10.841-5.348-32.903-15.5-47
			c-1.526-2.12-7.426,0.572-8.383,2.246c-4.409,7.71-8.722,15.487-9.5,24.5c2.887-0.61,5.774-1.221,8.661-1.831
			c0.238-10.01,6.104-21.665,2.5-31.5c-1.003-2.737-7.732,0.098-8.661,1.831c-4.395,8.203-2.95,19.211-1.873,28.054
			c1.465,12.023,4.114,23.822,4.84,35.945c2.805-0.915,5.61-1.83,8.416-2.745c-4.138-3.961-4.414-10.668-4.619-16.033
			c-0.217-5.688,0.347-11.366,0.396-17.052c-2.898,0.776-5.795,1.554-8.693,2.33c0.113,10.58,1.854,21.072,3.5,31.5
			c0.385,2.438,8.622,0.265,8.693-2.33c0.473-17.165,0.486-34.334,0-51.5c-2.805,0.915-5.61,1.83-8.416,2.745
			c7.54,10.229,9.11,24.346,10.722,36.585c2.898-0.776,5.795-1.554,8.693-2.33c-2.429-9.017-3.916-18.181-4.5-27.5
			c-2.898,0.776-5.795,1.554-8.693,2.33c6.896,15.264,8.604,32.235,15.5,47.5c1.069,2.367,9.297,0.152,8.693-2.33
			c-3.508-14.434-7.449-28.762-9.5-43.5c-2.898,0.776-5.795,1.554-8.693,2.33c7.208,13.244,10.425,28.105,14.5,42.5
			c2.898-0.776,5.795-1.554,8.693-2.33c-4.348-11.031-6.078-22.831-10-34c-2.898,0.776-5.795,1.554-8.693,2.33
			c7.813,20.168,13.98,40.893,20.5,61.5c0.78,2.466,9.351,0.104,8.693-2.33c-3.932-14.567-6.122-29.546-10.5-44
			c-2.805,0.915-5.61,1.83-8.416,2.745c4.974,4.979,7.146,12.28,8.823,18.932c1.687,6.692,2.626,13.747,2.399,20.653
			c2.623-1.014,5.245-2.026,7.867-3.039c-7.403-3.086-11.573-11.623-15.174-18.291c-1.219-2.257-9.157-0.284-8.693,2.33
			c0.693,3.911,1.982,7.666,3,11.5c2.805-0.915,5.61-1.83,8.416-2.745c-12.69-8.542-21.377-27.591-22.222-42.585
			c-2.898,0.776-5.795,1.554-8.693,2.33c3.122,7.565,4.55,15.879,5.661,23.944c1.134,8.232,2.138,17.436-0.128,25.557
			c2.794-0.749,5.588-1.498,8.383-2.246c-8.023-8.236-4.899-20.6-8.722-30.585c-0.979-2.555-8.601-0.192-8.693,2.33
			c-0.258,7.029,2.31,13.655,3.5,20.5c2.623-1.014,5.245-2.026,7.867-3.039c-3.339-1.287-5.061-4.015-6.174-7.291
			c-2.805,0.915-5.61,1.83-8.416,2.745c8.022,10.302,12.972,22.487,19.722,33.585c1.311,2.155,9.347,0.238,8.693-2.33
			c-1.566-6.155-6.015-13.468-3.811-19.89c0.851-2.479,1.069-4.458,0.493-7.023c-0.668-2.975-3.594-5.262-4.683-8.087
			c-2.805,0.915-5.61,1.83-8.416,2.745c5.352,4.212,8.423,11.411,10.857,17.57c2.251,5.698,5.896,15.659,2.226,21.487
			c2.685-0.573,5.37-1.146,8.055-1.718c-1.315-1.15-2.732-2.095-3.722-3.585c-2.805,0.915-5.61,1.83-8.416,2.745
			c11.11,14.014,18.258,31.004,32.049,42.822c7.338,6.289,16.03,9.555,24.977,12.815c10.005,3.647,18.049,10.495,27.523,15.156
			c1.912,0.94,6.274-0.327,7.507-2.012c4.117-5.627,6.994-9.6,14.303-10.394c0.083-1.229,0.167-2.46,0.25-3.689
			c-9.213,1.968-15.845,9.261-22.525,15.358c-0.293,0.286-0.413,0.629-0.36,1.027c0.709,2.363,3.014,2.061,5.136,1.804
			c3.847-0.466,7.507-4.675,1.422-3.938c3.14-0.381,2.559,0.126,4.637-1.82c1.237-1.159,2.483-2.303,3.756-3.424
			c2.553-2.249,5.461-4.841,8.857-5.566c3.919-0.837,5.303-4.238,0.25-3.689c-4.914,0.534-9.797,1.652-14.037,4.289
			c-4.107,2.555-6.851,6.478-9.66,10.317c2.503-0.671,5.005-1.342,7.507-2.012c-8.476-4.17-15.724-10.375-24.5-14
			c-9.57-3.953-18.703-6.731-26.903-13.385c-14.003-11.361-21.038-28.933-32.049-42.821c-1.475-1.86-9.486,1.134-8.416,2.745
			c1.218,1.833,2.622,2.968,4.278,4.415c1.7,1.486,6.938,0.057,8.055-1.718c3.962-6.292,1.515-14.748-0.67-21.258
			c-2.386-7.11-6.169-15.902-12.247-20.685c-1.482-1.166-9.374,0.26-8.416,2.745c0.986,2.559,2.764,4.478,4.148,6.82
			c1.913,3.234,0.228,6.471-0.616,9.681c-1.458,5.544,3.128,13.237,4.467,18.499c2.898-0.776,5.795-1.554,8.693-2.33
			c-6.928-11.39-12.043-23.841-20.278-34.415c-1.301-1.672-9.193,0.456-8.416,2.745c1.382,4.068,3.749,7.138,7.826,8.709
			c1.627,0.627,8.332-0.366,7.867-3.039c-1.19-6.845-3.758-13.47-3.5-20.5c-2.898,0.776-5.795,1.554-8.693,2.33
			c3.997,10.439,0.854,22.768,9.278,31.415c1.584,1.627,7.782-0.095,8.383-2.246c2.248-8.053,1.336-17.019,0.368-25.193
			c-1.006-8.496-2.556-17.358-5.835-25.306c-1.009-2.446-8.839-0.259-8.693,2.33c0.474,8.4,3.582,16.481,7.313,23.938
			c3.651,7.296,8.599,14.856,15.465,19.478c1.562,1.052,9.145,0.003,8.416-2.745c-1.018-3.833-2.307-7.588-3-11.5
			c-2.898,0.776-5.795,1.554-8.693,2.33c4.038,7.476,8.571,16.269,16.826,19.709c1.966,0.819,7.779-0.368,7.867-3.039
			c0.425-12.931-2.22-30.848-11.778-40.415c-1.444-1.446-9.16,0.288-8.416,2.745c4.378,14.454,6.568,29.432,10.5,44
			c2.898-0.776,5.795-1.554,8.693-2.33c-6.52-20.606-12.687-41.332-20.5-61.5c-0.967-2.497-9.49,0.06-8.693,2.33
			c3.922,11.168,5.652,22.968,10,34c0.961,2.438,9.374,0.073,8.693-2.33c-4.075-14.394-7.292-29.255-14.5-42.5
			c-1.231-2.263-9.062-0.318-8.693,2.33c2.051,14.737,5.992,29.065,9.5,43.5c2.898-0.776,5.795-1.554,8.693-2.33
			c-6.896-15.264-8.604-32.235-15.5-47.5c-1.089-2.41-8.857-0.278-8.693,2.33c0.585,9.319,2.071,18.482,4.5,27.5
			c0.655,2.433,9.035,0.26,8.693-2.33c-1.678-12.736-3.448-26.794-11.278-37.415c-1.394-1.892-8.484,0.332-8.416,2.745
			c0.486,17.165,0.473,34.334,0,51.5c2.898-0.776,5.795-1.554,8.693-2.33c-1.646-10.427-3.387-20.919-3.5-31.5
			c-0.022-2.058-8.668-0.541-8.693,2.33c-0.088,10.182-3.506,25.985,4.778,33.915c1.641,1.571,8.572-0.13,8.416-2.745
			c-0.7-11.687-3.081-23.101-4.674-34.673c-1.231-8.939-2.803-20.032,1.642-28.328c-2.887,0.61-5.774,1.221-8.661,1.831
			c3.567,9.732-2.263,21.511-2.5,31.5c-0.047,1.999,8.458,0.509,8.661-1.831c0.778-9.012,5.091-16.789,9.5-24.5
			c-2.794,0.749-5.588,1.498-8.383,2.246c10.234,14.212-0.982,35.803,15.5,47c1.921,1.306,6.773,0.201,8.055-1.718
			c2.505-3.75,4.167-7.672,5.328-12.028c-2.887,0.61-5.774,1.221-8.661,1.831c0.006,9.414,0.186,19.202,6.278,26.915
			c1.53,1.938,8.292-0.354,8.416-2.745c0.492-9.55,0.605-19.647-3.5-28.5c-1.063-2.291-8.215-0.387-8.661,1.831
			c-0.899,4.476-0.495,8.676,0.967,12.999c0.855,2.528,8.695,0.213,8.693-2.33c-0.005-9.051,0.028-18.93-5.778-26.415
			c-1.515-1.953-8.288,0.365-8.416,2.745c-0.466,8.686,0.026,17.364,1,26c0.256,2.269,8.866,0.415,8.693-2.33
			c-0.494-7.851-1.056-15.688-2-23.5c-0.283-2.338-8.694-0.349-8.693,2.33c0.004,11.951,0.055,24.485,6.5,35
			c1.354,2.209,7.979,0.476,8.661-1.831c2.676-9.049,5.526-18.044,8.5-27c-2.876,0.444-5.752,0.888-8.628,1.332
			c-3.419,22.097-3.304,44.822,7.467,64.999c1.122,2.102,8.5,0.499,8.661-1.831c0.785-11.389-4.079-22.056-7.967-32.499
			c-2.898,0.776-5.795,1.554-8.693,2.33c6.296,13.217,11.84,27.677,23.278,37.415c1.666,1.418,8.68-0.053,8.416-2.745
			c-1.265-12.888-7.02-24.381-14.278-34.915c-1.345-1.952-9.458,1.072-8.416,2.745c7.53,12.079,14.818,24.316,23.778,35.415
			c1.353,1.676,8.93-0.304,8.416-2.745c-2.773-13.146-6.175-26.645-13.778-37.915c-1.209-1.793-8.917,0.361-8.416,2.745
			c3.206,15.217,9.837,29.407,13.5,44.5c2.805-0.915,5.61-1.83,8.416-2.745c-12.818-17.046-20.508-37.235-33-54.5
			C214.647,334.954,206.258,337.769,207.931,340.08L207.931,340.08z"/>
	</g>
</g>
<g>
	<g>
		<path fill="#673090" d="M192.653,338.665c0.59,4.181,1.466,8.31,2,12.5c2.288-1.354,4.576-2.709,6.864-4.063
			c-5.333-2.232-6.623-8.04-9.535-12.506c-1.768-2.71-8.175-0.952-8.383,2.246c-0.109,1.676-0.391,3.325-0.5,5
			c2.934-0.229,5.867-0.457,8.801-0.686c-0.171-6.561-1.816-12.954-2-19.5c-2.794,0.748-5.588,1.497-8.383,2.246
			c12.089,17.249,16.48,38.61,23.136,58.262c1.341,3.96,9.257,1.715,8.693-2.33c-1.687-12.102-6.35-23.494-8.5-35.5
			c-2.776,1.022-5.553,2.046-8.329,3.068c9.354,15.755,18.635,31.57,25.136,48.762c2.776-1.022,5.553-2.046,8.329-3.068
			c-5.8-6.252-8.413-16.063-8.582-24.439c-2.794,0.748-5.588,1.497-8.383,2.246c11.222,11.06,16.875,26.078,25.5,39
			c1.615,2.42,7.305,1.234,8.132-1.429c2.891-9.306,0.926-18.816,2.25-28.317c-2.794,0.748-5.588,1.497-8.383,2.246
			c4.941,7.729,7.644,16.552,11.636,24.762c1.729,3.555,9.85,1.779,8.693-2.33c-2.557-9.087-5.517-18.046-8.5-27
			c-2.898,0.776-5.795,1.554-8.693,2.33c5.609,12.951,9.758,26.556,12,40.5c2.776-1.022,5.553-2.046,8.329-3.068
			c-5.544-9.597-10.987-19.27-18.5-27.5c-2.146-2.35-9.522-0.889-8.329,3.068c0.613,2.033,1.149,4.047,2,6
			c2.776-1.022,5.553-2.046,8.329-3.068c-2.105-3.045-4.395-5.954-6.5-9c-1.929-2.789-9.472-0.634-8.329,3.068
			c1.067,3.457,2.42,6.746,4,10c2.776-1.022,5.553-2.046,8.329-3.068c-5.127-9.016-11.532-17.198-17-26
			c-1.799-2.896-9.624-0.513-8.329,3.068c2.429,6.718,5.229,13.44,5.446,20.678c2.585-0.942,5.171-1.886,7.757-2.829
			c-5.602-3.962-8.362-10.523-14.839-13.411c-1.998-0.892-6.997,0.445-6.918,3.24c0.176,6.229,1.824,12.283,2,18.5
			c2.794-0.748,5.588-1.497,8.383-2.246c-4.325-5.061-7.194-11.071-11-16.5c-2.245-3.201-9.969-0.214-7.965,3.807
			c1.35,2.707,2.612,5.413,3.636,8.262c2.776-1.022,5.553-2.046,8.329-3.068c-2.535-3.193-4.672-6.657-7-10
			c-1.909-2.74-9.73-0.538-8.329,3.068c1.537,3.953,3.212,7.72,3.5,12c2.568-1.218,5.135-2.435,7.703-3.651
			c-1.956-1.643-3.609-3.581-5.374-5.417c-2.162-2.248-9.567-0.939-8.329,3.068c0.693,2.242,1.639,4.238,2.864,6.238
			c1.786,2.913,7.952,0.787,8.383-2.246c1.239-8.727-1.285-17.275-1-26c-2.585,0.942-5.171,1.886-7.757,2.829
			c4.917,3.205,7.044,10.14,9.51,15.179c2.776-1.022,5.553-2.046,8.329-3.068c-2.689-3.918-3.607-8.11-4.136-12.762
			c-2.568,1.218-5.135,2.435-7.703,3.651c4.404,3.813,6.217,10.02,8.51,15.179c0.838,1.885,3.255,2.444,5.133,1.769
			c0.154-0.056,0.309-0.111,0.463-0.167c1.767-0.636,3.977-1.853,3.561-4.098c0.03-0.171,0.061-0.342,0.091-0.512
			c0.677-4.353-8.201-3.171-8.801,0.686c-0.12,0.772-0.125,1.389,0.017,2.155c1.187-1.366,2.374-2.732,3.561-4.099
			c-0.154,0.056-0.309,0.111-0.463,0.167c1.711,0.59,3.422,1.18,5.133,1.769c-2.829-6.364-5.082-13.139-10.49-17.821
			c-2.493-2.158-8.085,0.288-7.703,3.651c0.593,5.218,1.871,9.877,4.864,14.238c1.907,2.777,9.986,0.317,8.329-3.068
			c-3.003-6.136-5.5-13.917-11.49-17.821c-2.173-1.416-7.651-0.416-7.757,2.829c-0.285,8.716,2.235,17.306,1,26
			c2.794-0.748,5.588-1.497,8.383-2.246c-0.936-1.526-1.608-3.052-2.136-4.762c-2.776,1.022-5.553,2.046-8.329,3.068
			c2.167,2.254,4.228,4.568,6.626,6.583c2.605,2.188,7.928-0.309,7.703-3.651c-0.288-4.279-1.963-8.046-3.5-12
			c-2.776,1.022-5.553,2.046-8.329,3.068c2.328,3.342,4.465,6.806,7,10c2.021,2.546,9.679,0.687,8.329-3.068
			c-1.209-3.362-2.772-6.544-4.364-9.738c-2.655,1.269-5.31,2.538-7.965,3.807c3.806,5.428,6.675,11.438,11,16.5
			c1.884,2.203,8.483,1.295,8.383-2.246c-0.176-6.229-1.824-12.283-2-18.5c-2.306,1.08-4.612,2.16-6.918,3.24
			c5.416,2.415,8.307,9.156,13.161,12.589c2.031,1.437,7.853,0.378,7.757-2.829c-0.237-7.899-2.896-14.973-5.554-22.322
			c-2.776,1.022-5.553,2.046-8.329,3.068c5.468,8.801,11.873,16.983,17,26c1.715,3.017,9.936,0.241,8.329-3.068
			c-1.58-3.253-2.933-6.542-4-10c-2.776,1.022-5.553,2.046-8.329,3.068c2.105,3.045,4.395,5.954,6.5,9
			c1.901,2.75,9.86,0.444,8.329-3.068c-0.851-1.952-1.387-3.966-2-6c-2.776,1.022-5.553,2.046-8.329,3.068
			c7.513,8.229,12.956,17.902,18.5,27.5c1.834,3.175,8.907,0.526,8.329-3.068c-2.242-13.943-6.391-27.548-12-40.5
			c-1.61-3.718-10.003-1.601-8.693,2.33c2.984,8.953,5.943,17.913,8.5,27c2.897-0.776,5.796-1.554,8.693-2.33
			c-4.232-8.704-7.123-18.041-12.364-26.238c-1.83-2.861-7.954-0.829-8.383,2.246c-1.227,8.805,0.92,18.088-1.75,26.683
			c2.711-0.477,5.421-0.952,8.132-1.429c-8.625-12.921-14.278-27.939-25.5-39c-1.986-1.957-8.458-1.479-8.383,2.246
			c0.191,9.458,2.82,20.448,9.418,27.561c2.095,2.258,9.797,0.814,8.329-3.068c-6.692-17.696-16.235-34.018-25.864-50.238
			c-1.852-3.119-8.978-0.555-8.329,3.068c2.15,12.005,6.813,23.397,8.5,35.5c2.898-0.776,5.795-1.554,8.693-2.33
			c-6.838-20.19-11.44-42.01-23.864-59.738c-1.738-2.479-8.477-1.098-8.383,2.246c0.184,6.558,1.829,12.949,2,19.5
			c0.118,4.505,8.549,3.187,8.801-0.686c0.109-1.676,0.391-3.325,0.5-5c-2.794,0.748-5.588,1.497-8.383,2.246
			c3.883,5.955,5.403,11.539,12.465,14.494c2.623,1.099,7.276-0.826,6.864-4.063c-0.534-4.189-1.41-8.318-2-12.5
			C200.788,332.375,192.072,334.542,192.653,338.665L192.653,338.665z"/>
	</g>
</g>
<g>
	<g>
		<path fill="#673090" d="M199.614,359.897c0.003,3.271,0.063,6.525,0.539,9.768c2.577-1.183,5.154-2.365,7.731-3.548
			c-4.084-3.316-7.041-7.964-9.038-12.782c-1.496-3.607-10.067-1.166-8.693,2.33c1.917,4.88,3.436,9.863,4.5,15
			c2.781-1.005,5.563-2.009,8.344-3.014c-0.485-0.845-1.015-1.655-1.5-2.5c-1.779-3.097-10.137-0.033-7.994,3.697
			c0.485,0.845,1.015,1.655,1.5,2.5c1.664,2.896,9.054,0.416,8.344-3.014c-1.064-5.136-2.583-10.119-4.5-15
			c-2.898,0.776-5.795,1.554-8.693,2.33c2.458,5.929,5.958,11.154,10.962,15.218c2.303,1.871,8.213-0.261,7.731-3.548
			c-0.402-2.741-0.458-5.467-0.461-8.232C208.382,354.801,199.611,356.325,199.614,359.897L199.614,359.897z"/>
	</g>
</g>
<g>
	<g>
		<path fill="#673090" d="M260.153,405.165c2.107,8.204,6.323,15.669,8,24c2.897-0.776,5.796-1.554,8.693-2.33
			c-3.009-6.652-5.456-13.492-7.5-20.5c-0.565-1.938-9.044,0.242-8.693,2.33c1.57,9.334,4.276,18.452,4,28
			c2.897-0.776,5.796-1.554,8.693-2.33c-4.463-7.174-7.599-15.026-11.5-22.5c-0.985-1.886-8.945,0.209-8.693,2.33
			c0.662,5.566,2.338,10.933,3,16.5c2.897-0.776,5.796-1.554,8.693-2.33c-5.313-10.128-6.719-21.829-13-31.5
			c-1.147-1.767-8.972,0.147-8.693,2.33c0.955,7.476,1.458,14.963,1.5,22.5c2.814-0.884,5.627-1.767,8.441-2.649
			c-6.904-6.725-10.895-15.627-16.748-23.181c-1.348-1.739-8.59,0.006-8.693,2.33c-0.336,7.548,1.796,14.938,1.5,22.5
			c2.898-0.776,5.795-1.554,8.693-2.33c-4.054-5.509-5.509-12.238-8-18.5c-2.898,0.776-5.795,1.554-8.693,2.33
			c1.965,2.644,3.381,5.405,4.5,8.5c2.814-0.884,5.627-1.767,8.441-2.649c-3.2-2.098-5.177-5.031-7.248-8.181
			c-1.104-1.678-8.332-0.037-8.635,1.927c-0.466,3.019-0.464,5.866-0.059,8.903c2.814-0.884,5.627-1.767,8.441-2.649
			c-4.988-3.69-6.042-9.214-9.248-14.181c-2.639,0.952-5.277,1.904-7.916,2.856c4.616,1.175,8.249,4.245,12.475,6.293
			c1.992-1.082,3.983-2.163,5.974-3.245c-4.326,0.283-8.518-2.303-12.427-3.845c-3.984-1.57-7.973-1.74-12.148-1.014
			c-0.461,0.08-6.012,1.576-5.151,2.784c3.028,4.25,7.725,6.567,11.252,10.319c3.968,4.22,7.505,8.568,13.025,10.707
			c1.334,0.517,8.337-0.704,7.916-2.856c-0.744-3.803-2.337-7.318-3.5-11c-0.633-2.003-9.229,0.4-8.693,2.33
			c1.69,6.09,4.77,11.652,5.5,18c1.717-0.929,3.434-1.856,5.151-2.784c-0.461,0.071-1.309-1.766-1.458-2.046
			c-2.814,0.884-5.627,1.767-8.441,2.649c1.149,0.547,2.319,0.805,3.525,1.207c1.324,0.441,9.306-1.417,7.664-3.176
			c-2.173-2.327-3.646-4.72-4.748-7.681c-2.814,0.884-5.627,1.767-8.441,2.649c5.671,4.103,9.849,9.676,15.083,14.252
			c5.174,4.525,11.439,5.77,18.133,5.524c0.684-0.025,7.725-2.456,5.974-3.245c-6.716-3.027-14.601-9.144-16.248-16.681
			c-2.814,0.884-5.627,1.767-8.441,2.649c3.196,2.805,6.027,5.966,9,9c1.262,1.287,8.738-0.579,8.441-2.649
			c-0.946-6.599-5.29-11.855-8.5-17.5c-2.814,0.884-5.627,1.767-8.441,2.649c3.499,3.01,6.66,5.986,8.748,10.181
			c2.814-0.884,5.627-1.767,8.441-2.649c-2.443-2.594-4.029-5.198-4.748-8.681c-2.814,0.884-5.627,1.767-8.441,2.649
			c1.21,1.31,2.252,2.702,3.248,4.181c2.814-0.884,5.627-1.767,8.441-2.649c-8.778-6.438-13.84-17.31-17.748-27.181
			c-2.898,0.776-5.795,1.554-8.693,2.33c4.842,6.597,7.668,14.383,12.752,20.819c1.104,1.396,8.834-0.694,8.441-2.649
			c-3.652-18.175-10.363-35.604-13-54c-2.814,0.884-5.627,1.767-8.441,2.649c10.877,7.031,18.293,18.01,25.248,28.681
			c1.199,1.839,9.363-0.552,8.693-2.33c-0.633-1.681-1.367-3.318-2-5c-0.789-2.095-9.339,0.614-8.693,2.33
			c0.633,1.681,1.367,3.318,2,5c2.898-0.776,5.796-1.554,8.693-2.33c-7.08-10.861-14.677-22.16-25.752-29.319
			c-1.444-0.934-8.77,0.356-8.441,2.649c2.637,18.396,9.348,35.825,13,54c2.814-0.884,5.627-1.767,8.441-2.649
			c-4.905-6.21-7.57-13.808-12.248-20.181c-1.277-1.739-9.401,0.541-8.693,2.33c3.998,10.097,9.263,21.227,18.252,27.819
			c1.425,1.045,9.361-1.284,8.441-2.649c-1.155-1.715-2.348-3.299-3.752-4.819c-1.203-1.302-8.854,0.65-8.441,2.649
			c0.774,3.753,2.664,6.571,5.252,9.319c1.258,1.335,9.212-1.1,8.441-2.649c-2.205-4.428-5.54-7.625-9.252-10.819
			c-1.354-1.165-9.294,1.15-8.441,2.649c3.21,5.644,7.554,10.9,8.5,17.5c2.814-0.884,5.627-1.767,8.441-2.649
			c-2.973-3.033-5.804-6.195-9-9c-1.301-1.142-8.895,0.572-8.441,2.649c1.695,7.758,9.872,14.218,16.752,17.319
			c1.992-1.082,3.982-2.163,5.975-3.245c-13.115,0.479-19.375-12.415-28.785-19.224c-1.309-0.946-9.175,0.68-8.441,2.649
			c1.208,3.245,2.902,5.802,5.252,8.319c2.555-1.059,5.109-2.117,7.664-3.176c-0.819-0.281-1.644-0.546-2.475-0.793
			c-1.251-0.596-9.453,0.753-8.441,2.649c2.02,3.785,4.567,3.568,8.542,2.954c1.064-0.164,5.347-1.084,5.151-2.784
			c-0.73-6.347-3.81-11.91-5.5-18c-2.898,0.776-5.795,1.554-8.693,2.33c1.163,3.681,2.756,7.197,3.5,11
			c2.639-0.952,5.277-1.904,7.916-2.856c-4.711-1.825-7.491-5.795-10.898-9.284c-3.684-3.772-8.753-6.378-11.825-10.689
			c-1.717,0.929-3.434,1.856-5.151,2.784c4.223-0.734,8.688,2.075,12.451,3.568c3.285,1.304,6.462,1.803,9.975,1.573
			c0.614-0.04,7.78-2.37,5.974-3.245c-4.591-2.225-8.506-5.43-13.525-6.707c-1.005-0.256-8.995,1.185-7.916,2.856
			c3.365,5.213,4.533,10.958,9.752,14.819c1.415,1.046,8.739-0.419,8.441-2.649c-0.368-2.755-0.486-5.327-0.059-8.097
			c-2.878,0.642-5.756,1.284-8.635,1.927c2.223,3.379,4.313,6.564,7.752,8.819c1.316,0.862,9.178-0.611,8.441-2.649
			c-1.119-3.094-2.535-5.856-4.5-8.5c-1.284-1.728-9.406,0.539-8.693,2.33c2.491,6.261,3.946,12.99,8,18.5
			c1.306,1.774,8.604-0.034,8.693-2.33c0.296-7.561-1.836-14.952-1.5-22.5c-2.898,0.776-5.795,1.554-8.693,2.33
			c6.023,7.772,10.145,16.896,17.252,23.819c1.381,1.345,8.453-0.521,8.441-2.649c-0.042-7.537-0.545-15.023-1.5-22.5
			c-2.898,0.776-5.795,1.554-8.693,2.33c6.281,9.67,7.688,21.371,13,31.5c0.988,1.884,8.946-0.208,8.693-2.33
			c-0.662-5.566-2.338-10.933-3-16.5c-2.897,0.776-5.796,1.554-8.693,2.33c3.901,7.473,7.037,15.325,11.5,22.5
			c1.168,1.878,8.629-0.115,8.693-2.33c0.276-9.547-2.43-18.665-4-28c-2.897,0.776-5.796,1.554-8.693,2.33
			c2.044,7.007,4.491,13.847,7.5,20.5c0.876,1.937,9.1-0.312,8.693-2.33c-1.677-8.33-5.893-15.795-8-24
			C268.343,400.875,259.639,403.162,260.153,405.165L260.153,405.165z"/>
	</g>
</g>
<g>
	<g>
		<path fill="#673090" d="M269.496,423.822c4.605,6.22,8.786,12.711,12.5,19.5c2.669-1.215,5.339-2.43,8.008-3.645
			c-3.508-3.712-5.963-7.85-7.157-12.843c-2.783,0.996-5.567,1.992-8.351,2.987c3.11,5.272,5.89,10.729,9,16
			c1.672,2.834,8.892,0.339,8.351-2.987c-0.515-3.164-0.985-6.335-1.5-9.5c-2.581,1.167-5.163,2.333-7.744,3.499
			c1.812,1.369,3.438,2.746,4.894,4.488c2.669-1.215,5.339-2.43,8.008-3.645c-2.062-2.398-4.34-4.462-7.106-6.012
			c-2.245-1.258-7.321-0.263-7.776,2.758c-0.357,2.369-1.14,4.304-0.968,6.741c2.783-0.996,5.567-1.992,8.351-2.987
			c-5.395-4.613-9.605-10.388-15-15c-2.304-1.971-8.855-0.896-8.351,2.987c0.812,6.241,3.688,11.797,6.843,17.157
			c1.599,2.717,9.827,0.005,8.351-2.987c-2.783-5.639-5.279-11.307-10.449-15.169c-2.378-1.776-9.357,0.666-7.401,4.156
			c2.763,4.931,7.575,8.303,10.157,13.343c2.783-0.996,5.567-1.992,8.351-2.987c-0.854-1.54-1.436-3.239-2.157-4.843
			c-2.581,1.167-5.163,2.333-7.744,3.499c3.519,2.605,4.897,6.308,5.019,10.59c2.592-0.92,5.185-1.839,7.776-2.758
			c-12.592-8.065-14.44-25.93-28-33c-2.171-1.132-8.621-0.074-7.744,3.499c1.98,8.07,8.722,13.829,10.5,22
			c2.783-0.996,5.567-1.992,8.351-2.987c-4.409-5.441-8.591-11.06-13-16.5c-2.19-2.703-10.468,0.335-8.008,3.645
			c1.813,2.439,3.125,4.987,4.157,7.843c2.581-1.167,5.163-2.333,7.744-3.499c-2.367-1.962-4.633-4.038-7-6
			c-1.876-1.555-8.993,0.361-7.744,3.499c1.549,3.89,2.497,7.943,3.5,12c2.784-0.996,5.567-1.992,8.351-2.987
			c-1.151-1.02-2.35-1.982-3.5-3c-2.59-2.294-10.855,0.991-8.008,3.645c6.655,6.203,16.113,8.096,22.5,14.5
			c1.918,1.925,8.228,1.072,8.383-2.246c0.107-2.295,0.289-4.459-0.032-6.741c-2.783,0.996-5.567,1.992-8.351,2.987
			c3.707,3.805,7.064,7.922,11,11.5c2.23,2.029,8.947,0.838,8.351-2.987c-4.682-29.991-18.173-58.913-15.968-89.759
			c-2.794,0.749-5.589,1.498-8.383,2.246c4.389,4.757,6.536,10.85,9.5,16.5c1.559,2.973,8.752,0.266,8.351-2.987
			c-2.702-21.88-10.338-42.66-15.5-64c-2.783,0.996-5.567,1.992-8.351,2.987c6.428,10.525,10.448,24.238,10.125,36.602
			c2.794-0.749,5.589-1.498,8.383-2.246c-10.406-11.464-13.297-28.742-16.657-43.343c-2.897,0.776-5.795,1.554-8.693,2.33
			c7.47,15.9,9.658,33.53,15.5,50c2.897-0.776,5.796-1.554,8.693-2.33c-5.33-14.927-7.579-30.768-13.5-45.5
			c-2.897,0.776-5.796,1.554-8.693,2.33c7.556,15.221,13.902,30.982,18,47.5c2.783-0.996,5.567-1.992,8.351-2.987
			c-5.339-7.661-9.476-16.075-12.657-24.843c-2.897,0.776-5.796,1.554-8.693,2.33c4.429,10.396,8.478,20.941,12.5,31.5
			c2.783-0.996,5.567-1.992,8.351-2.987c-6.656-8.077-9.48-18.697-11.157-28.843c-2.783,0.996-5.567,1.992-8.351,2.987
			c7.426,13.109,12.312,27.443,19.157,40.843c1.684,3.295,10.121,1.055,8.693-2.33c-6.925-16.419-15.101-32.758-18-50.5
			c-2.783,0.996-5.567,1.992-8.351,2.987c8.735,9.102,12.606,21.063,17.657,32.343c1.536,3.431,10.033,1.067,8.693-2.33
			c-3.889-9.863-7.024-19.988-10.5-30c-0.515,0.95-1.029,1.899-1.544,2.85c0.247-0.142,0.494-0.284,0.741-0.426
			c-2.067,0.217-4.134,0.433-6.2,0.649c0.438,0.282,0.858,0.591,1.259,0.926c2.688,2.083,10.523-1.778,6.795-4.668
			c-0.4-0.335-0.82-0.644-1.26-0.926c-1.837-1.246-4.504-0.326-6.2,0.649c-0.246,0.142-0.493,0.284-0.74,0.426
			c-0.85,0.488-1.918,1.772-1.544,2.85c3.477,10.011,6.611,20.136,10.5,30c2.897-0.776,5.796-1.554,8.693-2.33
			c-5.237-11.694-9.286-24.223-18.343-33.657c-2.144-2.233-8.953-0.699-8.351,2.987c2.899,17.742,11.075,34.081,18,50.5
			c2.897-0.776,5.796-1.554,8.693-2.33c-7.072-13.844-12.169-28.609-19.843-42.157c-1.62-2.86-8.898-0.326-8.351,2.987
			c1.755,10.62,4.879,21.708,11.843,30.157c1.863,2.261,9.647,0.418,8.351-2.987c-4.022-10.558-8.071-21.104-12.5-31.5
			c-1.47-3.449-9.95-1.134-8.693,2.33c3.341,9.204,7.738,18.115,13.343,26.157c1.79,2.569,9.199,0.434,8.351-2.987
			c-4.098-16.517-10.444-32.278-18-47.5c-1.645-3.313-10.071-1.098-8.693,2.33c5.921,14.732,8.17,30.572,13.5,45.5
			c1.276,3.574,9.914,1.113,8.693-2.33c-5.842-16.469-8.03-34.099-15.5-50c-1.554-3.308-9.559-1.432-8.693,2.33
			c3.473,15.085,6.584,32.806,17.343,44.657c1.834,2.021,8.298,0.992,8.383-2.246c0.354-13.532-3.838-27.876-10.875-39.398
			c-1.654-2.709-9.162-0.37-8.351,2.987c5.162,21.339,12.798,42.119,15.5,64c2.783-0.996,5.567-1.992,8.351-2.987
			c-2.978-5.678-5.085-11.716-9.5-16.5c-1.904-2.064-8.152-0.977-8.383,2.246c-2.247,31.43,11.265,60.698,16.032,91.241
			c2.783-0.996,5.567-1.992,8.351-2.987c-3.936-3.579-7.293-7.696-11-11.5c-2.188-2.245-8.87-0.707-8.351,2.987
			c0.252,1.788,0.052,3.477-0.032,5.259c2.794-0.749,5.589-1.498,8.383-2.246c-6.476-6.494-15.862-8.313-22.5-14.5
			c-2.669,1.215-5.338,2.43-8.008,3.645c1.151,1.02,2.35,1.982,3.5,3c2.102,1.861,9.301,0.856,8.351-2.987
			c-1.003-4.056-1.951-8.109-3.5-12c-2.582,1.167-5.163,2.333-7.744,3.499c2.367,1.962,4.633,4.038,7,6
			c1.911,1.583,8.891-0.329,7.744-3.499c-1.199-3.316-2.736-6.324-4.843-9.157c-2.669,1.215-5.338,2.43-8.008,3.645
			c4.409,5.441,8.591,11.06,13,16.5c1.953,2.411,9.12,0.549,8.351-2.987c-1.785-8.199-8.527-13.96-10.5-22
			c-2.581,1.167-5.163,2.333-7.744,3.499c13.246,6.906,15.379,24.916,28,33c1.882,1.205,7.861,0.248,7.776-2.758
			c-0.173-6.086-2.001-10.722-6.981-14.41c-1.856-1.375-9.166,0.341-7.744,3.499c0.935,2.076,1.736,4.164,2.843,6.157
			c1.544,2.784,9.854-0.053,8.351-2.987c-2.833-5.53-7.832-9.285-10.843-14.657c-2.467,1.385-4.935,2.771-7.401,4.156
			c4.211,3.146,6.294,8.258,8.551,12.831c2.783-0.996,5.567-1.992,8.351-2.987c-2.923-4.968-5.407-10.076-6.157-15.843
			c-2.783,0.996-5.567,1.992-8.351,2.987c5.395,4.613,9.605,10.388,15,15c2.417,2.067,8.622,0.859,8.351-2.987
			c-0.127-1.8,0.769-3.51,1.032-5.259c-2.592,0.92-5.185,1.839-7.776,2.758c2.328,1.304,4.16,2.973,5.894,4.988
			c2.294,2.668,10.6-0.543,8.008-3.645c-1.791-2.144-3.887-3.834-6.106-5.512c-2.233-1.688-8.276,0.226-7.744,3.499
			c0.515,3.164,0.985,6.335,1.5,9.5c2.783-0.996,5.567-1.992,8.351-2.987c-3.11-5.272-5.89-10.729-9-16
			c-1.616-2.74-9.15-0.357-8.351,2.987c1.293,5.404,4.036,10.13,7.843,14.157c2.316,2.451,10.079,0.142,8.008-3.645
			c-3.714-6.79-7.895-13.281-12.5-19.5C275.41,417.35,267.059,420.53,269.496,423.822L269.496,423.822z"/>
	</g>
</g>
<g>
	<path fill="none" stroke="#FFFFFF" stroke-width="3" stroke-miterlimit="10" d="M311.283,170.52
		c-1.344-9.915-4.068-19.333-8.152-28.239c-11.203-3.886-23.9-5.335-36.137-5.261c-17.192,0.108-33.288,3.21-43.154,6.811
		l-3.092,1.13l-2.85-1.66l-17.776-10.348c11.845,21.67,32.158,38.198,51.964,54.309c19.482,15.851,38.508,31.328,49.906,51.338
		C311.014,213.648,314.045,190.938,311.283,170.52 M262.617,214.587c-6.191-5.492-12.783-10.854-19.433-16.263
		c-2.767-2.251-5.542-4.51-8.306-6.789c-0.093,0.824-0.138,1.689-0.138,2.588c0,5.927,2.39,11.293,6.251,15.177
		s9.198,6.287,15.092,6.287c2.252,0,4.381-0.331,6.342-0.94L262.617,214.587z M314.055,478.83
		c-7.719,1.584-31.648,5.752-39.604,6.559c-7.975,0.805-15.932,1.219-23.837,1.219c-65.026,0-123.9-26.504-166.515-69.354
		C41.486,374.401,15.127,315.2,15.127,249.812S41.486,125.225,84.1,82.371c42.614-42.851,101.488-69.355,166.515-69.355
		S374.516,39.52,417.129,82.371c42.615,42.854,68.971,102.052,68.971,167.44c0,47.388-13.867,91.55-37.752,128.61
		c-24.297,37.701-58.979,68.012-99.971,86.852c-0.652,2.68-1.277,5.186-1.861,7.496l-2.551,10.059l-8.395-6.029
		c-82.227-59.047-107.577-119.918-104.871-164.435c1.1-18.133,6.823-33.66,15.303-45.432c7.291-10.125,16.656-17.515,26.959-21.482
		c2.895,3.889,5.432,8.019,7.395,12.426c-8.631,2.675-16.656,8.712-22.912,17.395c-6.992,9.708-11.722,22.658-12.648,37.929
		c-2.366,38.938,19.764,92.268,90.529,145.821c4.963-20.861,11.064-51.163,12.332-82.643c1.465-36.431-3.465-74.574-24.121-101.314
		c0.369-4.229,1.457-14.14,1.705-18.906c3.234,2.887,6.361,6.243,9.342,10.095c23.17,29.92,28.754,71.391,27.17,110.682
		c-1.043,25.875-5.158,50.737-9.344,70.587c34.229-17.855,63.238-44.441,84.111-76.826c22.414-34.78,35.43-76.286,35.43-120.884
		c0-61.458-24.773-117.101-64.826-157.377c-40.053-40.276-95.389-65.187-156.509-65.187c-61.12,0-116.454,24.911-156.507,65.187
		C54.054,132.71,29.28,188.353,29.28,249.812c0,61.46,24.773,117.103,64.827,157.378c40.053,40.277,95.387,65.189,156.507,65.189
		c7.718,0,15.206-0.375,22.454-1.109l1.441-0.152c-34.432-18.338-69.624-43.469-92.979-75.316
		c-27.468-37.459-38.6-83.834-13.517-138.837c-6.701-23.287-7.438-44.53-2.957-63.163c3.239-13.462,9.174-25.51,17.53-35.944
		c2.77,4.012,5.755,7.874,8.929,11.612c-5.986,8.189-10.291,17.452-12.748,27.667c-4.064,16.89-3.138,36.496,3.517,58.309
		l0.815,2.667l-1.173,2.474l-0.849,1.794c-22.805,49.594-12.856,91.347,11.84,125.026C231.3,439.74,284.762,457.064,314.055,478.83z
		 M286.295,96.183c22.098,20.505,35.217,44.688,38.975,72.45c3.59,26.52-1.453,56.094-15.467,88.617
		c0.545,1.965,1.018,3.975,1.416,6.031l-13.875,2.667c-3.053-15.76-11.994-28.83-23.648-40.842
		c-2.223,1.278-4.611,2.325-7.123,3.106c-3.355,1.042-6.879,1.606-10.488,1.606c-9.798,0-18.677-3.995-25.1-10.455
		c-6.423-6.458-10.397-15.385-10.397-25.239c0-2.398,0.259-4.815,0.75-7.218c0.388-1.883,0.927-3.723,1.606-5.505
		c-19.388-17.107-36.608-36.393-43.877-63.087l10.335-8.003l32.805,19.097c11.155-3.564,27.522-6.454,44.731-6.561
		c8.641-0.054,17.531,0.59,26.143,2.197c-4.623-6.451-10.078-12.59-16.348-18.408L286.295,96.183z"/>
</g>
<g>
	<g>
		<path fill="#662D91" d="M136.133,65.288c3.952,6.599,5.928,9.899,9.879,16.498c-0.768,0.46-1.151,0.692-1.915,1.161
			c-2.538-4.136-3.806-6.203-6.343-10.338c0.985,5.089,1.524,7.615,2.695,12.631c-0.667,0.429-1,0.646-1.664,1.082
			c-4.104-3.108-6.197-4.626-10.455-7.586c2.746,3.999,4.12,5.998,6.866,9.997c-0.745,0.512-1.117,0.77-1.857,1.291
			c-4.422-6.293-6.635-9.44-11.057-15.733c0.761-0.535,1.142-0.8,1.907-1.326c5.432,3.682,8.09,5.584,13.279,9.5
			c-1.47-6.333-2.132-9.532-3.307-15.981C134.948,66,135.342,65.762,136.133,65.288z"/>
		<path fill="#662D91" d="M149.425,79.784c-3.825-6.673-5.737-10.01-9.562-16.684c4.372-2.508,6.584-3.694,11.056-5.94
			c0.414,0.824,0.622,1.235,1.036,2.06c-3.571,1.792-5.343,2.73-8.849,4.692c1.11,1.986,1.666,2.979,2.776,4.964
			c0.147-0.101,0.206-0.136,0.327-0.203c3.286-1.831,4.943-2.708,8.287-4.386c0.414,0.824,0.62,1.236,1.033,2.061
			c-3.308,1.661-4.949,2.528-8.2,4.339c-0.206,0.115-0.278,0.215-0.281,0.225c-0.003,0.012,0.021,0.086,0.028,0.102
			c1.265,2.263,1.898,3.394,3.164,5.658c3.277-1.833,4.93-2.709,8.267-4.383c0.415,0.824,0.624,1.235,1.038,2.059
			C155.451,76.401,153.425,77.489,149.425,79.784z"/>
		<path fill="#662D91" d="M170.897,57.506c0.284-0.115,0.602-0.113,0.883,0.008s0.503,0.35,0.616,0.634
			c0.457,1.15,0.706,2.366,0.751,3.608c0.043,1.169-0.094,2.313-0.406,3.399c-0.636,2.213-1.921,3.938-3.646,4.697
			c-0.964,0.423-2.007,0.593-3.096,0.511c-1.038-0.079-2.079-0.382-3.088-0.896c-2.044-1.041-3.78-2.84-4.872-5.099
			c-1.092-2.259-1.418-4.749-0.838-7.026c0.287-1.125,0.781-2.144,1.472-3.013c0.725-0.911,1.635-1.617,2.688-2.08
			c1.273-0.56,2.697-0.724,4.091-0.48c1.327,0.232,2.617,0.827,3.74,1.707c0.183,0.143,0.272,0.214,0.455,0.357
			c-0.592,0.727-0.884,1.092-1.466,1.823c-0.183-0.142-0.275-0.212-0.458-0.354c-1.753-1.353-3.797-1.661-5.433-0.941
			c-2.806,1.233-3.928,5.256-2.162,9.009c1.766,3.752,5.415,5.521,8.038,4.368c1.511-0.664,2.777-2.953,2.722-5.7
			c-0.013-0.625-0.166-1.88-0.263-1.929c-0.279-0.14-3.66,1.547-3.667,1.551c-0.471,0.203-0.728,0.47-0.858,0.784
			c-0.069,0.167-0.082,0.311-0.084,0.344c0.014,0.222,0.022,0.334,0.036,0.556c-0.913,0.049-1.372,0.077-2.288,0.137
			c-0.016-0.23-0.025-0.346-0.041-0.576c-0.008-0.107-0.033-0.661,0.249-1.348c0.248-0.604,0.267-1.176,1.358-1.704
			c0.119-0.058,4.918-2.088,5.019-2.129c0.12-0.049,0.181-0.073,0.301-0.122C170.75,57.564,170.8,57.545,170.897,57.506z"/>
		<path fill="#662D91" d="M177.892,66.228c-0.383-8.095-0.458-12.167-0.376-20.345c0.738-0.258,1.108-0.386,1.848-0.638
			c5.112,6.383,7.56,9.636,12.241,16.244c-0.875,0.268-1.312,0.404-2.185,0.681c-1.682-2.318-2.537-3.472-4.272-5.762
			c-0.348,0.224-0.711,0.388-1.154,0.537c-1.267,0.428-1.9,0.647-3.162,1.095c-0.89,0.316-0.954,0.917-0.965,1.016
			c0.047,2.546,0.08,3.817,0.172,6.355C179.178,65.733,178.75,65.896,177.892,66.228z M179.823,55.985
			c0.086-0.036,0.16-0.065,0.246-0.096c1.275-0.453,1.914-0.673,3.195-1.106c0.21-0.071,0.408-0.16,0.49-0.201
			c-1.553-2.022-2.339-3.027-3.935-5.026C179.798,52.131,179.798,53.417,179.823,55.985z"/>
		<path fill="#662D91" d="M203.911,58.124c-0.854-3.547-1.281-5.321-2.135-8.868c-0.341,0.197-0.623,0.319-1.039,0.432
			c-2.25,0.554-3.374,0.846-5.611,1.46c-0.201,0.055-0.368,0.126-0.506,0.211c-0.198,0.12-0.339,0.266-0.441,0.441
			c-0.038,0.065-0.077,0.157-0.086,0.182c0.91,3.242,1.366,4.863,2.276,8.104c-0.839,0.235-1.256,0.356-2.093,0.601
			c-2.158-7.383-3.238-11.075-5.396-18.458c0.915-0.267,1.373-0.398,2.29-0.655c0.882,3.14,1.322,4.709,2.204,7.849
			c0.329-0.208,0.695-0.375,1.143-0.499c2.219-0.609,3.331-0.898,5.562-1.448c0.211-0.052,0.388-0.123,0.533-0.207
			c0.196-0.114,0.338-0.25,0.446-0.418c0.041-0.063,0.086-0.157,0.096-0.181c-0.697-2.897-1.046-4.346-1.744-7.244
			c0.923-0.222,1.386-0.33,2.311-0.542c1.722,7.497,2.583,11.245,4.304,18.742C205.179,57.82,204.756,57.921,203.911,58.124z"/>
		<path fill="#662D91" d="M213.441,55.254c-0.974-0.327-1.896-0.872-2.74-1.614c-1.713-1.503-2.958-3.668-3.48-6.122
			s-0.26-4.946,0.82-7.014c0.532-1.021,1.241-1.888,2.102-2.564c0.902-0.708,1.937-1.176,3.051-1.372s2.248-0.109,3.336,0.25
			c1.039,0.343,1.998,0.918,2.846,1.697c1.717,1.576,2.813,3.832,3.158,6.316s-0.084,4.943-1.178,6.939
			c-0.541,0.985-1.222,1.812-2.026,2.451c-0.843,0.669-1.788,1.104-2.807,1.283S214.462,55.597,213.441,55.254z M209.447,47.057
			c0.821,4.065,3.898,6.66,6.674,6.173c2.777-0.487,4.78-3.974,4.167-8.075c-0.614-4.102-3.724-6.834-6.694-6.313
			C210.624,39.362,208.625,42.991,209.447,47.057z"/>
		<path fill="#662D91" d="M230.942,52.689c-0.94-0.409-1.811-1.03-2.587-1.842c-1.575-1.644-2.628-3.907-2.939-6.396
			s0.16-4.95,1.408-6.918c0.615-0.972,1.392-1.775,2.304-2.375c0.957-0.629,2.025-1.006,3.149-1.106s2.243,0.083,3.295,0.534
			c1.003,0.43,1.909,1.084,2.687,1.932c1.574,1.716,2.472,4.056,2.604,6.561s-0.501,4.917-1.759,6.813
			c-0.622,0.936-1.368,1.702-2.221,2.27c-0.895,0.595-1.871,0.949-2.899,1.04S231.928,53.118,230.942,52.689z M227.666,44.182
			c0.472,4.12,3.31,6.968,6.11,6.719c2.801-0.249,5.088-3.552,4.825-7.691c-0.263-4.139-3.125-7.125-6.121-6.859
			C229.485,36.617,227.193,40.061,227.666,44.182z"/>
		<path fill="#662D91" d="M256.016,35.501c-2.544-0.042-3.815-0.044-6.359-0.014c0.082,6.767,0.122,10.148,0.202,16.915
			c-0.864,0.01-1.295,0.017-2.159,0.037c-0.151-6.765-0.227-10.147-0.379-16.912c-2.399,0.054-3.598,0.097-5.996,0.214
			c-0.045-0.921-0.067-1.383-0.113-2.304c5.933-0.292,8.907-0.339,14.845-0.241C256.042,34.119,256.03,34.579,256.016,35.501z"/>
		<path fill="#662D91" d="M267.54,52.249c-1.096-0.608-1.735-1.445-2.145-2.066c-0.251-0.38-0.378-0.571-0.631-0.951
			c0.734-0.506,1.104-0.758,1.848-1.257c0.244,0.37,0.364,0.556,0.606,0.926c0.634,0.973,1.295,1.814,4.41,2.103
			c2.827,0.261,4.446-0.898,4.675-2.907c0.194-1.71-1.094-2.444-4.253-3.554c-0.124-0.043-0.25-0.088-0.375-0.132
			c-1.25-0.44-2.552-0.904-3.613-1.644c-0.668-0.466-1.186-1.006-1.538-1.648c-0.396-0.721-0.565-1.55-0.511-2.433
			c0.092-1.485,0.745-2.75,1.91-3.561c1.285-0.894,3.085-1.207,5.269-1.005c2.159,0.2,4.076,1.378,5.214,3.192
			c0.248,0.396,0.372,0.594,0.618,0.991c-0.805,0.455-1.206,0.683-2.003,1.145c-0.239-0.382-0.357-0.571-0.6-0.952
			c-0.769-1.211-2.025-1.981-3.438-2.112c-1.739-0.161-2.972,0.092-3.693,0.592c-0.58,0.401-0.903,0.988-0.967,1.866
			c-0.128,1.774,1.257,2.424,4.479,3.557c1.362,0.479,2.815,0.995,3.934,1.841c0.642,0.486,1.119,1.045,1.428,1.695
			c0.348,0.731,0.458,1.559,0.351,2.424c-0.096,0.77-0.331,1.49-0.697,2.133c-0.379,0.665-0.891,1.229-1.507,1.671
			c-1.297,0.932-2.99,1.28-4.892,1.104C269.79,53.117,268.552,52.811,267.54,52.249z"/>
		<path fill="#662D91" d="M284.866,54.146c-0.805-0.637-1.489-1.461-2.031-2.445c-1.1-1.994-1.532-4.451-1.192-6.937
			s1.431-4.742,3.145-6.323c0.846-0.781,1.799-1.358,2.836-1.704c1.088-0.362,2.223-0.451,3.337-0.258s2.149,0.657,3.054,1.364
			c0.862,0.674,1.573,1.541,2.108,2.56c1.084,2.064,1.353,4.557,0.836,7.012s-1.757,4.622-3.466,6.129
			c-0.845,0.744-1.766,1.292-2.739,1.621c-1.021,0.345-2.058,0.434-3.077,0.258S285.71,54.813,284.866,54.146z M283.888,45.082
			c-0.604,4.103,1.406,7.584,4.183,8.065c2.777,0.48,5.85-2.122,6.662-6.189c0.813-4.067-1.195-7.69-4.167-8.205
			C287.596,38.239,284.492,40.979,283.888,45.082z"/>
		<path fill="#662D91" d="M296.716,57.196c4.121-6.97,6.291-10.412,10.852-17.195c0.753,0.189,1.132,0.285,1.884,0.481
			c0.734,8.139,0.982,12.202,1.243,20.294c-0.877-0.258-1.315-0.386-2.194-0.634c-0.123-2.861-0.201-4.293-0.384-7.16
			c-0.413-0.004-0.805-0.067-1.255-0.186c-1.287-0.339-1.932-0.504-3.223-0.823c-0.911-0.225-1.292,0.241-1.355,0.318
			c-1.358,2.152-2.03,3.232-3.346,5.402C298.049,57.489,297.605,57.391,296.716,57.196z M303.93,49.703
			c0.091,0.017,0.168,0.034,0.256,0.056c1.305,0.323,1.958,0.488,3.259,0.832c0.214,0.056,0.429,0.092,0.52,0.103
			c-0.179-2.542-0.278-3.813-0.504-6.359C306.027,46.473,305.318,47.545,303.93,49.703z"/>
		<path fill="#662D91" d="M330.117,52.438c-0.995,2.647-3.938,3.991-6.578,3.068c-1.998-0.695-3.001-1.03-5.012-1.674
			c-0.222-0.071-0.341-0.056-0.351-0.05c-0.011,0.006-0.037,0.052-0.044,0.066c-1.074,3.354-1.61,5.031-2.686,8.386
			c-0.831-0.266-1.248-0.397-2.082-0.654c2.271-7.35,3.403-11.025,5.671-18.375c3.177,0.98,4.758,1.5,7.905,2.6
			C329.716,46.774,331.11,49.797,330.117,52.438z M327.923,51.627c0.533-1.465-0.255-3.126-1.755-3.65
			c-2.217-0.772-3.33-1.144-5.563-1.856c-0.693,2.168-1.04,3.252-1.734,5.42c0.095,0.021,0.161,0.038,0.264,0.067
			c2.072,0.662,3.104,1.006,5.163,1.721C325.767,53.843,327.392,53.088,327.923,51.627z"/>
		<path fill="#662D91" d="M342.123,66.638c-0.634,1.36-1.754,2.402-3.125,2.942c-1.37,0.54-2.847,0.522-4.16-0.048
			c-2.816-1.223-4.232-1.808-7.082-2.922c2.805-7.163,4.206-10.745,7.009-17.908c3.113,1.219,4.663,1.859,7.74,3.197
			c2.71,1.178,3.925,4.286,2.735,6.855c-0.661,1.428-3.23,2.623-3.301,2.794c-0.027,0.066,0.261,0.51,0.365,0.791
			C342.829,63.744,342.757,65.278,342.123,66.638z M336.133,51.729c-0.826,2.046-1.24,3.069-2.066,5.116
			c-0.01,0.035-0.01,0.071-0.008,0.078c0.005,0.014,0.095,0.103,0.311,0.19c1.993,0.809,2.985,1.226,4.963,2.086
			c1.438,0.625,3.122-0.004,3.762-1.425s-0.033-3.117-1.508-3.759C339.415,53.07,338.322,52.613,336.133,51.729z M340.063,65.691
			c0.756-1.667,0.018-3.642-1.655-4.37c-1.955-0.854-2.935-1.268-4.905-2.07c-0.117-0.047-0.238-0.104-0.342-0.158
			c-0.999,2.475-1.499,3.713-2.499,6.188c1.669,0.674,2.5,1.02,4.157,1.731c0.376,0.159,0.565,0.24,0.94,0.401
			C337.382,68.119,339.307,67.358,340.063,65.691z"/>
		<path fill="#662D91" d="M346.943,74.372c-0.587-0.865-0.996-1.87-1.221-2.98c-0.454-2.251-0.12-4.73,0.973-6.988
			s2.844-4.057,4.993-5.013c1.061-0.472,2.169-0.715,3.283-0.71c1.168,0.005,2.293,0.285,3.317,0.828s1.894,1.321,2.557,2.287
			c0.632,0.921,1.053,1.979,1.262,3.125c0.422,2.32-0.079,4.784-1.335,6.955s-3.129,3.834-5.255,4.716
			c-1.05,0.435-2.114,0.656-3.162,0.654c-1.099-0.002-2.134-0.254-3.071-0.751S347.558,75.28,346.943,74.372z M348.775,65.426
			c-1.847,3.713-0.964,7.673,1.588,9.027c2.553,1.355,6.343-0.127,8.38-3.739c2.038-3.612,1.194-7.717-1.536-9.167
			C354.478,60.099,350.622,61.712,348.775,65.426z"/>
		<path fill="#662D91" d="M370.801,78.048c0.338,4.818,0.442,7.214,0.524,11.975c-0.906-0.64-1.363-0.958-2.276-1.584
			c-0.111-3.813-0.208-5.729-0.484-9.578c-3.618,1.339-5.396,2.046-8.897,3.53c-0.935-0.564-1.405-0.844-2.346-1.395
			c4.333-1.913,6.547-2.815,11.062-4.505c-0.393-4.805-0.652-7.22-1.304-12.067c1.026,0.604,1.538,0.91,2.559,1.529
			c0.478,3.9,0.675,5.844,0.985,9.715c3.652-1.317,5.506-1.939,9.271-3.104c0.998,0.682,1.496,1.026,2.487,1.722
			C377.663,75.67,375.346,76.426,370.801,78.048z"/>
	</g>
</g>
</svg>
