<?xml version="1.0" encoding="utf-8"?>
<!-- Generator: Adobe Illustrator 16.0.0, SVG Export Plug-In . SVG Version: 6.00 Build 0)  -->
<!DOCTYPE svg PUBLIC "-//W3C//DTD SVG 1.1//EN" "http://www.w3.org/Graphics/SVG/1.1/DTD/svg11.dtd">
<svg version="1.1" id="Layer_1" xmlns="http://www.w3.org/2000/svg" xmlns:xlink="http://www.w3.org/1999/xlink" x="0px" y="0px"
	 width="1500px" height="750px" viewBox="0 0 1500 750" enable-background="new 0 0 1500 750" xml:space="preserve">
<g>
	<g>
		<path fill-rule="evenodd" clip-rule="evenodd" fill="#FFFFFF" d="M879.193,445.783l0.01-87.836c0-1.035,0.941-1.879,2.092-1.879
			h30.527c0.994,0,1.801-0.728,1.801-1.611v-28.72c0-0.89-0.807-1.615-1.801-1.615h-30.527c-1.15,0-2.092-0.841-2.092-1.874v-40.384
			c0-0.886-0.805-1.611-1.801-1.611h-31.885c-0.988,0-1.793,0.726-1.793,1.611v172.611c0,13.766,12.527,25.007,27.885,25.007h40.213
			c0.994,0,1.801-0.728,1.801-1.615v-28.594c0-0.885-0.807-1.611-1.801-1.611h-30.527
			C880.135,447.662,879.193,446.818,879.193,445.783L879.193,445.783z"/>
		<path fill-rule="evenodd" clip-rule="evenodd" fill="#FFFFFF" d="M347.026,407.266c-0.489-2.638-0.735-5.307-0.735-7.979
			c0-2.67,0.246-5.344,0.735-7.981c4.309-23.304,26.892-40.396,53.218-40.396c14.359,0,27.989,5.062,38.147,14.167l4.1,3.678
			c0.699,0.625,1.844,0.625,2.543-0.005l22.539-20.213c0.699-0.629,0.699-1.656,0-2.282l-4.101-3.676
			c-16.818-15.084-39.447-23.49-63.229-23.49c-45.06,0-83.217,30.146-88.749,70.27c-0.455,3.291-0.683,6.611-0.683,9.93
			c0,3.32,0.228,6.643,0.683,9.936c5.537,40.119,43.692,70.26,88.749,70.26c23.783,0,46.411-8.405,63.229-23.489l4.101-3.678
			c0.699-0.625,0.699-1.655,0-2.28l-22.539-20.218c-0.699-0.624-1.844-0.624-2.543,0l-4.1,3.677
			c-10.158,9.107-23.788,14.166-38.147,14.166C373.917,447.66,351.337,430.568,347.026,407.266L347.026,407.266z"/>
		<path fill-rule="evenodd" clip-rule="evenodd" fill="#FFFFFF" d="M1222.389,430.588l-52.332-105.508
			c-0.297-0.609-0.896-0.958-1.637-0.958h-35.09c-0.652,0-1.158,0.247-1.51,0.739c-0.355,0.486-0.4,1.002-0.129,1.532
			l75.963,152.135c0.307,0.605,0.895,0.955,1.639,0.955h29.867c0.742,0,1.33-0.346,1.639-0.951l76.91-152.13
			c0.271-0.531,0.227-1.051-0.125-1.541c-0.354-0.487-0.861-0.739-1.514-0.739h-35.107c-0.742,0-1.338,0.345-1.637,0.95
			l-53.119,105.524c-0.344,0.69-1.068,1.108-1.91,1.104C1223.457,431.701,1222.732,431.279,1222.389,430.588L1222.389,430.588z"/>
		<path fill-rule="evenodd" clip-rule="evenodd" fill="#FFFFFF" d="M1094.441,324.122c-0.986,0-1.797,0.726-1.797,1.611v152.135
			c0,0.889,0.811,1.615,1.797,1.615h31.885c0.99,0,1.799-0.727,1.799-1.615V325.733c0-0.886-0.809-1.611-1.799-1.611H1094.441
			L1094.441,324.122z M1110.387,271.064c-11.67,0-21.131,8.486-21.131,18.953c0,10.465,9.461,18.947,21.131,18.947
			s21.129-8.482,21.129-18.947C1131.516,279.551,1122.057,271.064,1110.387,271.064L1110.387,271.064z"/>
		<path fill-rule="evenodd" clip-rule="evenodd" fill="#FFFFFF" d="M724.732,319.703c-44.741,4.953-78.35,39.178-78.35,79.581
			c0,40.405,33.611,74.626,78.35,79.584c3.673,0.407,7.374,0.613,11.076,0.613c3.703,0,7.402-0.206,11.075-0.613
			c7.999-0.887,15.844-2.738,23.284-5.514c0.7-0.265,1.107-0.809,1.107-1.49v-32.729c0-0.645-0.352-1.156-0.998-1.445
			c-0.645-0.287-1.315-0.231-1.888,0.164c-6.954,4.735-15.063,7.869-23.678,9.145c-2.941,0.439-5.923,0.664-8.903,0.664
			s-5.959-0.225-8.902-0.658l-0.745-0.114c-25.64-4.123-44.296-24.272-44.296-47.605c0-23.603,19.059-43.854,45.041-47.712
			c2.939-0.439,5.922-0.664,8.902-0.664s5.96,0.221,8.898,0.658l0.705,0.105c25.66,4.107,44.342,24.262,44.342,47.612v76.066
			c0,0.885,0.809,1.615,1.798,1.615h31.886c0.986,0,1.797-0.73,1.797-1.615v-76.066c0-40.403-33.608-74.624-78.351-79.581
			c-3.673-0.408-7.372-0.613-11.075-0.613C732.106,319.09,728.405,319.295,724.732,319.703L724.732,319.703z"/>
		<path fill-rule="evenodd" clip-rule="evenodd" fill="#FFFFFF" d="M1433.873,433.499c-5.877,5.272-12.92,9.184-20.594,11.55
			c-0.164,0.049-0.328,0.098-0.492,0.146c-5.359,1.604-11.096,2.472-17.061,2.472c-12.453,0-24.248-3.863-33.623-10.547
			c-7.023-5.004-12.686-11.594-16.25-19.328c-0.029-0.064-0.055-0.131-0.078-0.195c-2.576-5.65-3.994-11.829-3.994-18.311
			s1.42-12.662,4-18.312c0.018-0.062,0.043-0.126,0.072-0.186c3.535-7.683,9.146-14.236,16.105-19.233
			c0.004-0.003,0.012-0.006,0.018-0.012c9.24-6.654,20.979-10.637,33.75-10.637c12.512,0,24.359,3.899,33.752,10.637
			c6.967,4.995,12.586,11.554,16.125,19.245c0.025,0.06,0.053,0.124,0.072,0.186c0.363,0.792,0.701,1.595,1.02,2.407h-43.088h-40.08
			h-0.033h-2.992c-1.932,4.983-2.982,10.331-2.982,15.904c0,5.572,1.051,10.928,2.984,15.911h2.99h0.035h20.703h62.459h5.725h29.641
			c0.918,0,1.672-0.595,1.785-1.416l0.629-4.562c0.455-3.291,0.682-6.609,0.682-9.931c0-3.315-0.227-6.635-0.682-9.931
			c-5.531-40.123-43.689-70.264-88.746-70.264c-45.059,0-83.215,30.141-88.748,70.264c-0.453,3.296-0.68,6.615-0.68,9.931
			c0,3.321,0.227,6.64,0.68,9.931c5.533,40.124,43.689,70.265,88.748,70.265c23.785,0,46.414-8.4,63.232-23.484l4.1-3.678
			c0.697-0.629,0.697-1.655,0-2.28l-22.541-20.219c-0.697-0.625-1.844-0.625-2.541,0L1433.873,433.499L1433.873,433.499z"/>
		<path fill-rule="evenodd" clip-rule="evenodd" fill="#FFFFFF" d="M520.731,328.203v-47.824c0-0.885-0.811-1.612-1.796-1.612
			h-31.888c-0.987,0-1.796,0.728-1.796,1.612v197.488c0,0.885,0.81,1.615,1.796,1.615h31.888c0.986,0,1.796-0.73,1.796-1.615
			v-89.646c0-19.121,17.477-34.795,38.802-34.795c21.326,0,38.803,15.674,38.803,34.795v89.646c0,0.885,0.808,1.615,1.798,1.615
			h31.885c0.99,0,1.798-0.73,1.798-1.615v-89.643c0-36.652-33.412-66.618-74.284-66.618c-12.493,0-24.758,2.831-35.695,8.241
			c-0.668,0.334-1.42,0.322-2.078-0.024C521.104,329.475,520.731,328.891,520.731,328.203L520.731,328.203z"/>
		<path fill-rule="evenodd" clip-rule="evenodd" fill="#FFFFFF" d="M964.416,328.204v-47.825c0-0.885-0.811-1.613-1.797-1.613
			H930.73c-0.986,0-1.795,0.729-1.795,1.613v197.489c0,0.883,0.809,1.615,1.795,1.615h31.889c0.986,0,1.797-0.732,1.797-1.615
			v-89.646c0-19.125,17.477-34.797,38.803-34.797c21.324,0,38.801,15.672,38.801,34.797v89.646c0,0.883,0.809,1.615,1.801,1.615
			h31.885c0.988,0,1.797-0.732,1.797-1.615v-89.643c0-36.653-33.41-66.62-74.283-66.62c-12.492,0-24.76,2.833-35.697,8.242
			c-0.666,0.332-1.422,0.32-2.076-0.024C964.789,329.475,964.416,328.891,964.416,328.204L964.416,328.204z"/>
	</g>
	<g>
		<defs>
			<path id="SVGID_1_" d="M283.129,501.755c45.049-81.93,28.922-185.35-39.197-238.463c-6.686-5.197-15.282-10.637-22.628-14.498
				l-49.288,104.944l-49.279-104.944c-7.346,3.861-15.942,9.301-22.628,14.498c-68.119,53.113-84.246,156.533-39.19,238.463
				c2.469-1.515,4.953-3.059,7.437-4.627c-12.071-21.946-20.214-46.688-23.108-72.402c-2.189-19.414-1.417-39.127,2.414-58.15
				c0.055-0.254,0.101-0.506,0.155-0.762c0.38-1.325,1.292-2.382,2.478-2.826c1.408-0.527,2.956-0.101,3.993,1.105
				c0.857,0.994,1.246,2.381,1.076,3.738c-0.063,0.272-0.125,0.545-0.185,0.822c-9.125,42.703-1.667,87.903,20.725,123.646
				c2.451-1.586,4.898-3.185,7.343-4.8c-4.628-7.434-8.654-15.352-12.01-23.648c-25.803-63.227-6.325-137.963,42.307-176.845
				l11.794,24.562C88.485,342.513,73.4,399.86,92.617,449.75c3.181,8.276,7.212,16.081,12.01,23.261
				c2.384-1.65,4.759-3.305,7.127-4.961c-13.309-20.867-20.299-43.865-18.821-70.385c0.033-0.502,0.063-1,0.094-1.502
				c0.255-1.18,0.921-2.209,1.879-2.83c1.356-0.871,3.028-0.758,4.281,0.295c0.928,0.779,1.487,1.959,1.587,3.219
				c-0.033,0.453-0.063,0.897-0.085,1.347c-1.226,23.104,4.883,47.074,17.781,65.138c2.408-1.695,4.792-3.387,7.176-5.07
				c-26.019-36.766-21.026-92.126,11.584-121.877c4.047,8.346,8.064,16.72,12.081,25.094c-20.114,21.889-21.391,58.213-2.554,81.848
				l25.258-17.754l25.268,17.754c18.837-23.635,17.56-59.959-2.545-81.848c4.007-8.374,8.024-16.748,12.071-25.094
				c32.61,29.751,37.612,85.111,11.594,121.877c2.375,1.684,4.768,3.375,7.167,5.07c12.898-18.063,19.004-42.033,17.782-65.138
				c-0.021-0.449-0.046-0.894-0.076-1.347c0.091-1.26,0.657-2.439,1.578-3.219c1.253-1.053,2.925-1.166,4.281-0.295
				c0.958,0.621,1.633,1.65,1.879,2.83c0.03,0.502,0.061,1,0.094,1.502c1.484,26.52-5.512,49.518-18.821,70.385
				c2.369,1.656,4.743,3.311,7.127,4.961c4.798-7.18,8.83-14.984,12.017-23.261c19.211-49.89,4.135-107.237-32.726-138.183
				l11.795-24.562c48.631,38.882,68.109,113.618,42.307,176.845c-3.351,8.297-7.373,16.215-12.01,23.648
				c2.444,1.615,4.893,3.214,7.343,4.8c22.391-35.742,29.85-80.942,20.725-123.646c-0.061-0.277-0.122-0.55-0.177-0.822
				c-0.179-1.357,0.21-2.744,1.067-3.738c1.037-1.206,2.584-1.633,3.992-1.105c1.186,0.444,2.098,1.501,2.479,2.826
				c0.055,0.256,0.106,0.508,0.155,0.762c3.837,19.023,4.613,38.736,2.42,58.15c-2.9,25.715-11.043,50.456-23.105,72.402
				C278.17,498.696,280.654,500.24,283.129,501.755"/>
		</defs>
		<clipPath id="SVGID_2_">
			<use xlink:href="#SVGID_1_"  overflow="visible"/>
		</clipPath>
		<linearGradient id="SVGID_3_" gradientUnits="userSpaceOnUse" x1="15.8633" y1="375.2744" x2="328.1787" y2="375.2744">
			<stop  offset="0" style="stop-color:#FFFFFF"/>
			<stop  offset="1" style="stop-color:#FFFFFF"/>
		</linearGradient>
		<rect x="15.863" y="248.794" clip-path="url(#SVGID_2_)" fill="url(#SVGID_3_)" width="312.315" height="252.961"/>
	</g>
</g>
</svg>
