<?xml version="1.0" encoding="utf-8"?>
<!-- Generator: Adobe Illustrator 16.0.0, SVG Export Plug-In . SVG Version: 6.00 Build 0)  -->
<!DOCTYPE svg PUBLIC "-//W3C//DTD SVG 1.1//EN" "http://www.w3.org/Graphics/SVG/1.1/DTD/svg11.dtd">
<svg version="1.1" id="Layer_1" xmlns="http://www.w3.org/2000/svg" xmlns:xlink="http://www.w3.org/1999/xlink" x="0px" y="0px"
	 width="500px" height="200px" viewBox="0 0 500 200" enable-background="new 0 0 500 200" xml:space="preserve">
<g>
	<g>
		<g>
			<g>
				<g>
					<g>
						<g>
							<rect x="177.666" y="78.129" fill="#662F90" width="4.334" height="0.124"/>
							<g>
								<path fill="#662F90" d="M177.399,78.191c0-0.077,0.065-0.139,0.146-0.139c0.081,0,0.146,0.063,0.146,0.139
									s-0.065,0.14-0.146,0.14C177.464,78.331,177.399,78.268,177.399,78.191z M177.477,78.191c0,0.036,0.03,0.065,0.068,0.065
									c0.038,0,0.068-0.029,0.068-0.065s-0.03-0.065-0.068-0.065C177.507,78.126,177.477,78.155,177.477,78.191z"/>
							</g>
						</g>
						<g>
							<rect x="178.063" y="78.507" fill="#662F90" width="3.847" height="0.125"/>
							<g>
								<path fill="#662F90" d="M177.795,78.57c0-0.077,0.065-0.14,0.146-0.14c0.081,0,0.146,0.063,0.146,0.14
									c0,0.076-0.065,0.139-0.146,0.139C177.86,78.709,177.795,78.646,177.795,78.57z M177.873,78.57
									c0,0.036,0.031,0.064,0.068,0.064c0.038,0,0.069-0.029,0.069-0.064c0-0.036-0.031-0.065-0.069-0.065
									C177.904,78.505,177.873,78.534,177.873,78.57z"/>
							</g>
						</g>
						<g>
							<rect x="174.018" y="81.396" fill="#662F90" width="7.606" height="0.124"/>
							<g>
								<path fill="#662F90" d="M173.75,81.458c0-0.077,0.065-0.14,0.146-0.14c0.081,0,0.146,0.063,0.146,0.14
									c0,0.076-0.065,0.14-0.146,0.14C173.815,81.598,173.75,81.534,173.75,81.458z M173.828,81.458
									c0,0.036,0.031,0.064,0.068,0.064c0.038,0,0.068-0.029,0.068-0.064c0-0.037-0.03-0.065-0.068-0.065
									C173.858,81.393,173.828,81.421,173.828,81.458z"/>
							</g>
						</g>
						<g>
							<rect x="174.779" y="81.057" fill="#662F90" width="6.756" height="0.124"/>
							<g>
								<path fill="#662F90" d="M174.511,81.118c0-0.077,0.066-0.139,0.146-0.139c0.081,0,0.146,0.063,0.146,0.139
									c0,0.077-0.065,0.14-0.146,0.14C174.577,81.258,174.511,81.195,174.511,81.118z M174.589,81.118
									c0,0.037,0.03,0.065,0.068,0.065c0.038,0,0.068-0.028,0.068-0.065c0-0.035-0.03-0.064-0.068-0.064
									C174.62,81.054,174.589,81.083,174.589,81.118z"/>
							</g>
						</g>
						<g>
							<rect x="178.46" y="78.886" fill="#662F90" width="3.221" height="0.124"/>
							<g>
								<path fill="#662F90" d="M178.192,78.947c0-0.076,0.065-0.139,0.146-0.139c0.08,0,0.146,0.063,0.146,0.139
									c0,0.078-0.066,0.14-0.146,0.14C178.258,79.087,178.192,79.025,178.192,78.947z M178.27,78.947
									c0,0.037,0.03,0.065,0.069,0.065c0.038,0,0.068-0.029,0.068-0.065c0-0.035-0.03-0.064-0.068-0.064
									C178.3,78.883,178.27,78.912,178.27,78.947z"/>
							</g>
						</g>
						<g>
							<rect x="178.856" y="79.264" fill="#662F90" width="3.222" height="0.124"/>
							<g>
								<path fill="#662F90" d="M178.589,79.327c0-0.077,0.065-0.14,0.146-0.14c0.08,0,0.146,0.063,0.146,0.14
									c0,0.076-0.065,0.14-0.146,0.14C178.654,79.466,178.589,79.403,178.589,79.327z M178.667,79.327
									c0,0.036,0.03,0.065,0.068,0.065c0.037,0,0.067-0.029,0.067-0.065c0-0.037-0.03-0.065-0.067-0.065
									C178.697,79.261,178.667,79.29,178.667,79.327z"/>
							</g>
						</g>
						<g>
							<polygon fill="#662F90" points="177.323,79.963 178.246,80.843 178.337,80.756 177.414,79.875 							"/>
							<g>
								<path fill="#662F90" d="M177.14,79.84c0-0.077,0.065-0.14,0.146-0.14c0.081,0,0.146,0.063,0.146,0.14
									c0,0.078-0.065,0.14-0.146,0.14C177.206,79.98,177.14,79.918,177.14,79.84z M177.218,79.84c0,0.036,0.031,0.065,0.068,0.065
									c0.038,0,0.068-0.029,0.068-0.065c0-0.036-0.03-0.065-0.068-0.065C177.249,79.775,177.218,79.805,177.218,79.84z"/>
							</g>
							<rect x="178.249" y="80.714" fill="#662F90" width="3.312" height="0.125"/>
						</g>
						<g>
							<g>
								<rect x="176.259" y="78.557" fill="#662F90" width="1.205" height="0.125"/>
								<g>
									<path fill="#662F90" d="M175.992,78.62c0-0.078,0.065-0.14,0.146-0.14c0.081,0,0.146,0.062,0.146,0.14
										c0,0.076-0.065,0.139-0.146,0.139C176.058,78.759,175.992,78.696,175.992,78.62z M176.07,78.62
										c0,0.035,0.031,0.064,0.068,0.064c0.038,0,0.069-0.029,0.069-0.064c0-0.037-0.031-0.066-0.069-0.066
										C176.102,78.554,176.07,78.583,176.07,78.62z"/>
								</g>
							</g>
							<polygon fill="#662F90" points="177.373,78.645 178.519,79.739 178.611,79.651 177.464,78.557 							"/>
							<rect x="178.518" y="79.615" fill="#662F90" width="3.221" height="0.125"/>
						</g>
						<g>
							<rect x="175.619" y="78.938" fill="#662F90" width="1.767" height="0.124"/>
							<g>
								<path fill="#662F90" d="M175.352,79.001c0-0.078,0.065-0.14,0.146-0.14c0.081,0,0.146,0.063,0.146,0.14
									c0,0.077-0.065,0.139-0.146,0.139C175.417,79.14,175.352,79.078,175.352,79.001z M175.43,79.001
									c0,0.035,0.03,0.064,0.068,0.064s0.068-0.029,0.068-0.064c0-0.036-0.031-0.064-0.068-0.064S175.43,78.965,175.43,79.001z"/>
							</g>
							<polygon fill="#662F90" points="177.294,79.026 178.44,80.121 178.533,80.033 177.386,78.938 							"/>
							<rect x="178.44" y="79.997" fill="#662F90" width="3.222" height="0.124"/>
						</g>
						<g>
							<rect x="176.076" y="79.318" fill="#662F90" width="1.232" height="0.124"/>
							<g>
								<path fill="#662F90" d="M175.809,79.38c0-0.077,0.065-0.14,0.146-0.14c0.081,0,0.146,0.063,0.146,0.14
									s-0.065,0.14-0.146,0.14C175.874,79.52,175.809,79.458,175.809,79.38z M175.886,79.38c0,0.036,0.031,0.065,0.069,0.065
									c0.038,0,0.068-0.029,0.068-0.065s-0.03-0.065-0.068-0.065C175.917,79.315,175.886,79.344,175.886,79.38z"/>
							</g>
							<polygon fill="#662F90" points="177.216,79.406 178.363,80.5 178.455,80.412 177.308,79.318 							"/>
							<rect x="178.363" y="80.375" fill="#662F90" width="3.221" height="0.125"/>
						</g>
						<g>
							<rect x="177.666" y="84.662" fill="#662F90" width="4.342" height="0.124"/>
							<g>
								<path fill="#662F90" d="M177.545,84.584c0.081,0,0.146,0.063,0.146,0.14c0,0.077-0.065,0.139-0.146,0.139
									c-0.081,0-0.146-0.063-0.146-0.139C177.399,84.647,177.464,84.584,177.545,84.584z M177.545,84.789
									c0.038,0,0.068-0.029,0.068-0.065s-0.03-0.066-0.068-0.066c-0.038,0-0.068,0.03-0.068,0.066S177.507,84.789,177.545,84.789z
									"/>
							</g>
						</g>
						<g>
							<rect x="178.063" y="84.283" fill="#662F90" width="3.221" height="0.125"/>
							<g>
								<path fill="#662F90" d="M177.941,84.206c0.081,0,0.146,0.063,0.146,0.14c0,0.077-0.065,0.139-0.146,0.139
									c-0.081,0-0.146-0.062-0.146-0.139C177.795,84.269,177.86,84.206,177.941,84.206z M177.941,84.411
									c0.038,0,0.069-0.029,0.069-0.064c0-0.037-0.031-0.066-0.069-0.066c-0.037,0-0.068,0.029-0.068,0.066
									C177.873,84.381,177.904,84.411,177.941,84.411z"/>
							</g>
						</g>
						<g>
							<rect x="174.779" y="81.735" fill="#662F90" width="6.756" height="0.125"/>
							<g>
								<path fill="#662F90" d="M174.657,81.657c0.081,0,0.146,0.063,0.146,0.14s-0.065,0.139-0.146,0.139
									c-0.08,0-0.146-0.063-0.146-0.139S174.577,81.657,174.657,81.657z M174.657,81.862c0.038,0,0.068-0.029,0.068-0.065
									c0-0.036-0.03-0.065-0.068-0.065c-0.038,0-0.068,0.029-0.068,0.065C174.589,81.833,174.62,81.862,174.657,81.862z"/>
							</g>
						</g>
						<g>
							<rect x="178.46" y="83.905" fill="#662F90" width="3.221" height="0.124"/>
							<g>
								<path fill="#662F90" d="M178.339,83.828c0.08,0,0.146,0.063,0.146,0.14c0,0.077-0.066,0.14-0.146,0.14
									c-0.081,0-0.146-0.063-0.146-0.14C178.192,83.89,178.258,83.828,178.339,83.828z M178.339,84.032
									c0.038,0,0.068-0.029,0.068-0.065s-0.03-0.064-0.068-0.064c-0.039,0-0.069,0.029-0.069,0.064S178.3,84.032,178.339,84.032z"
									/>
							</g>
						</g>
						<g>
							<rect x="178.856" y="83.527" fill="#662F90" width="3.222" height="0.124"/>
							<g>
								<path fill="#662F90" d="M178.735,83.449c0.08,0,0.146,0.063,0.146,0.14c0,0.077-0.065,0.14-0.146,0.14
									c-0.081,0-0.146-0.063-0.146-0.14C178.589,83.512,178.654,83.449,178.735,83.449z M178.735,83.655
									c0.037,0,0.067-0.03,0.067-0.066c0-0.037-0.03-0.065-0.067-0.065c-0.039,0-0.068,0.028-0.068,0.065
									C178.667,83.625,178.697,83.655,178.735,83.655z"/>
							</g>
						</g>
						<g>
							<polygon fill="#662F90" points="177.323,82.952 178.246,82.072 178.337,82.159 177.414,83.04 							"/>
							<g>
								<path fill="#662F90" d="M177.286,82.936c0.081,0,0.146,0.062,0.146,0.139c0,0.076-0.065,0.14-0.146,0.14
									c-0.081,0-0.146-0.063-0.146-0.14C177.14,82.998,177.206,82.936,177.286,82.936z M177.286,83.14
									c0.038,0,0.068-0.03,0.068-0.065c0-0.036-0.03-0.065-0.068-0.065c-0.037,0-0.068,0.029-0.068,0.065
									C177.218,83.11,177.249,83.14,177.286,83.14z"/>
							</g>
							<rect x="178.249" y="82.076" fill="#662F90" width="3.312" height="0.125"/>
						</g>
						<g>
							<g>
								<rect x="176.259" y="84.234" fill="#662F90" width="1.205" height="0.124"/>
								<g>
									<path fill="#662F90" d="M176.139,84.156c0.081,0,0.146,0.063,0.146,0.14s-0.065,0.139-0.146,0.139
										c-0.081,0-0.146-0.063-0.146-0.139S176.058,84.156,176.139,84.156z M176.139,84.361c0.038,0,0.069-0.029,0.069-0.065
										s-0.031-0.066-0.069-0.066c-0.037,0-0.068,0.03-0.068,0.066S176.102,84.361,176.139,84.361z"/>
								</g>
							</g>
							<polygon fill="#662F90" points="177.373,84.27 178.519,83.177 178.611,83.264 177.464,84.358 							"/>
							<rect x="178.518" y="83.177" fill="#662F90" width="3.221" height="0.124"/>
						</g>
						<g>
							<rect x="175.619" y="83.854" fill="#662F90" width="1.767" height="0.123"/>
							<g>
								<path fill="#662F90" d="M175.498,83.774c0.081,0,0.146,0.063,0.146,0.14c0,0.077-0.065,0.14-0.146,0.14
									c-0.081,0-0.146-0.063-0.146-0.14C175.352,83.838,175.417,83.774,175.498,83.774z M175.498,83.98
									c0.038,0,0.068-0.03,0.068-0.066c0-0.035-0.031-0.064-0.068-0.064s-0.068,0.029-0.068,0.064
									C175.43,83.95,175.46,83.98,175.498,83.98z"/>
							</g>
							<polygon fill="#662F90" points="177.294,83.889 178.44,82.795 178.533,82.882 177.386,83.977 							"/>
							<rect x="178.44" y="82.795" fill="#662F90" width="3.222" height="0.124"/>
						</g>
						<g>
							<rect x="176.076" y="83.473" fill="#662F90" width="1.232" height="0.125"/>
							<g>
								<path fill="#662F90" d="M175.955,83.395c0.081,0,0.146,0.063,0.146,0.14s-0.065,0.14-0.146,0.14
									c-0.081,0-0.146-0.063-0.146-0.14S175.874,83.395,175.955,83.395z M175.955,83.6c0.038,0,0.068-0.029,0.068-0.065
									s-0.03-0.064-0.068-0.064c-0.038,0-0.069,0.028-0.069,0.064S175.917,83.6,175.955,83.6z"/>
							</g>
							<polygon fill="#662F90" points="177.216,83.509 178.363,82.416 178.455,82.503 177.308,83.597 							"/>
							<rect x="178.363" y="82.416" fill="#662F90" width="3.221" height="0.125"/>
						</g>
					</g>
				</g>
			</g>
			<g>
				<g>
					<g opacity="0.13">
						<path opacity="0" fill="#010101" d="M183.857,86.214c-0.633-0.231-1.226-0.579-1.76-1.035
							c-0.512-0.437-0.959-0.963-1.332-1.564c-0.367-0.593-0.651-1.247-0.846-1.941c-0.198-0.708-0.298-1.444-0.298-2.189
							c0-0.38,0.027-0.765,0.08-1.143l0.135-0.959l0.968,0.29c0.355,0.106,0.724,0.16,1.098,0.16c0.638,0,1.272-0.163,1.838-0.468
							l0.423-0.229l0.422,0.229c0.006,0.003,0.012,0.007,0.019,0.01l0.002,0.001c0.009,0.004,0.018,0.009,0.026,0.013
							c0.554,0.291,1.173,0.444,1.791,0.444c0.374,0,0.744-0.054,1.098-0.16l0.969-0.29l0.134,0.959
							c0.054,0.378,0.081,0.763,0.081,1.143c0,0.738-0.099,1.469-0.293,2.17c-0.192,0.689-0.471,1.337-0.833,1.928
							c-0.366,0.598-0.806,1.123-1.309,1.56c-0.525,0.456-1.108,0.808-1.732,1.045l-0.015,0.006
							c-0.018,0.007-0.036,0.014-0.055,0.021l-0.304,0.111L183.857,86.214z"/>
						<path opacity="0.0769" fill="#010101" d="M183.835,86.192c-0.633-0.23-1.226-0.579-1.76-1.035
							c-0.512-0.437-0.959-0.963-1.332-1.564c-0.366-0.593-0.651-1.247-0.846-1.941c-0.199-0.708-0.299-1.444-0.299-2.19
							c0-0.38,0.027-0.764,0.081-1.142l0.135-0.959l0.968,0.289c0.354,0.107,0.724,0.161,1.098,0.161
							c0.638,0,1.273-0.162,1.838-0.468l0.422-0.229l0.422,0.229c0.006,0.003,0.013,0.006,0.019,0.009l0.002,0.001
							c0.009,0.004,0.018,0.009,0.027,0.014c0.553,0.29,1.172,0.443,1.79,0.443c0.374,0,0.743-0.054,1.098-0.161l0.968-0.289
							l0.136,0.959c0.053,0.378,0.08,0.762,0.08,1.142c0,0.738-0.1,1.469-0.294,2.171c-0.191,0.688-0.471,1.337-0.832,1.928
							c-0.366,0.598-0.806,1.123-1.31,1.56c-0.524,0.457-1.107,0.809-1.732,1.045l-0.015,0.005c-0.018,0.006-0.036,0.014-0.055,0.02
							l-0.304,0.111L183.835,86.192z"/>
						<path opacity="0.1538" fill="#010101" d="M183.813,86.172c-0.633-0.231-1.225-0.579-1.76-1.036
							c-0.511-0.437-0.959-0.962-1.33-1.564c-0.369-0.593-0.652-1.246-0.847-1.941c-0.199-0.707-0.299-1.444-0.299-2.189
							c0-0.38,0.027-0.764,0.081-1.143l0.135-0.96l0.968,0.29c0.354,0.106,0.724,0.16,1.098,0.16c0.638,0,1.273-0.161,1.838-0.468
							l0.422-0.228l0.422,0.229c0.006,0.004,0.013,0.006,0.019,0.009l0.002,0.001c0.009,0.005,0.019,0.009,0.027,0.014
							c0.553,0.29,1.171,0.443,1.79,0.443c0.374,0,0.743-0.053,1.098-0.16l0.968-0.29l0.135,0.96c0.053,0.378,0.08,0.762,0.08,1.143
							c0,0.739-0.099,1.469-0.293,2.171c-0.191,0.688-0.471,1.337-0.833,1.927c-0.365,0.598-0.806,1.123-1.309,1.56
							c-0.525,0.457-1.108,0.808-1.732,1.045l-0.015,0.005c-0.018,0.007-0.036,0.014-0.054,0.021l-0.305,0.11L183.813,86.172z"/>
						<path opacity="0.2308" fill="#010101" d="M183.792,86.151c-0.634-0.23-1.226-0.578-1.76-1.035
							c-0.512-0.436-0.959-0.963-1.332-1.564c-0.367-0.593-0.652-1.247-0.846-1.941c-0.199-0.708-0.299-1.444-0.299-2.189
							c0-0.381,0.026-0.765,0.08-1.144l0.135-0.958l0.968,0.289c0.355,0.105,0.724,0.16,1.098,0.16c0.637,0,1.273-0.162,1.838-0.468
							l0.423-0.228l0.422,0.228c0.006,0.003,0.013,0.006,0.019,0.01l0.002,0c0.009,0.005,0.017,0.009,0.026,0.014
							c0.554,0.29,1.172,0.443,1.791,0.443c0.373,0,0.743-0.054,1.097-0.16l0.968-0.289l0.136,0.958
							c0.053,0.378,0.08,0.763,0.08,1.144c0,0.738-0.099,1.468-0.294,2.17c-0.191,0.688-0.471,1.337-0.833,1.928
							c-0.365,0.597-0.805,1.122-1.309,1.56c-0.525,0.457-1.109,0.809-1.732,1.044l-0.015,0.006
							c-0.018,0.007-0.036,0.014-0.055,0.021l-0.304,0.111L183.792,86.151z"/>
						<path opacity="0.3077" fill="#010101" d="M183.77,86.129c-0.634-0.229-1.226-0.579-1.76-1.034
							c-0.511-0.437-0.959-0.963-1.332-1.564c-0.367-0.594-0.652-1.247-0.847-1.942c-0.198-0.707-0.298-1.443-0.298-2.188
							c0-0.38,0.027-0.766,0.08-1.143l0.135-0.959l0.968,0.29c0.354,0.106,0.724,0.16,1.098,0.16c0.638,0,1.273-0.162,1.838-0.468
							l0.421-0.229l0.423,0.229c0.006,0.003,0.013,0.006,0.019,0.009l0.001,0.001c0.009,0.005,0.018,0.009,0.027,0.014
							c0.554,0.29,1.172,0.443,1.79,0.443c0.374,0,0.743-0.054,1.098-0.16l0.968-0.29l0.135,0.959
							c0.053,0.377,0.08,0.763,0.08,1.143c0,0.738-0.098,1.468-0.293,2.17c-0.191,0.689-0.471,1.337-0.832,1.927
							c-0.366,0.599-0.806,1.124-1.309,1.561c-0.526,0.457-1.108,0.809-1.731,1.045l-0.016,0.005
							c-0.018,0.006-0.036,0.014-0.054,0.02l-0.306,0.112L183.77,86.129z"/>
						<path opacity="0.3846" fill="#010101" d="M183.748,86.109c-0.634-0.231-1.226-0.579-1.76-1.036
							c-0.512-0.436-0.959-0.962-1.332-1.564c-0.367-0.593-0.651-1.247-0.846-1.941c-0.198-0.708-0.299-1.444-0.299-2.189
							c0-0.38,0.027-0.764,0.08-1.142l0.135-0.96l0.969,0.29c0.354,0.106,0.724,0.16,1.098,0.16c0.637,0,1.272-0.163,1.838-0.468
							l0.422-0.229l0.422,0.229c0.006,0.003,0.012,0.007,0.019,0.01l0.003,0.001c0.008,0.005,0.017,0.009,0.027,0.015
							c0.553,0.29,1.171,0.443,1.79,0.443c0.374,0,0.743-0.054,1.097-0.16l0.969-0.29l0.135,0.96
							c0.053,0.378,0.081,0.762,0.081,1.142c0,0.739-0.099,1.469-0.293,2.17c-0.191,0.689-0.472,1.338-0.832,1.928
							c-0.366,0.598-0.807,1.123-1.31,1.561c-0.525,0.457-1.108,0.809-1.731,1.045l-0.016,0.006
							c-0.018,0.006-0.036,0.013-0.054,0.02l-0.305,0.11L183.748,86.109z"/>
						<path opacity="0.4615" fill="#010101" d="M183.726,86.088c-0.633-0.23-1.226-0.579-1.76-1.035
							c-0.511-0.436-0.959-0.963-1.331-1.564c-0.367-0.593-0.652-1.246-0.847-1.94c-0.198-0.708-0.299-1.444-0.299-2.19
							c0-0.38,0.027-0.764,0.081-1.143l0.135-0.959l0.968,0.29c0.354,0.105,0.724,0.16,1.098,0.16c0.637,0,1.273-0.162,1.838-0.468
							l0.422-0.229l0.423,0.229c0.006,0.003,0.012,0.007,0.018,0.01l0.002,0c0.009,0.004,0.018,0.01,0.026,0.014
							c0.554,0.291,1.172,0.444,1.791,0.444c0.374,0,0.743-0.054,1.097-0.16l0.969-0.29l0.135,0.959
							c0.053,0.378,0.08,0.762,0.08,1.143c0,0.739-0.099,1.469-0.293,2.171c-0.191,0.688-0.472,1.337-0.833,1.928
							c-0.366,0.597-0.806,1.123-1.309,1.561c-0.525,0.457-1.108,0.808-1.732,1.044l-0.015,0.006
							c-0.018,0.006-0.036,0.013-0.054,0.02l-0.305,0.111L183.726,86.088z"/>
						<path opacity="0.5385" fill="#010101" d="M183.704,86.067c-0.633-0.231-1.225-0.579-1.76-1.035
							c-0.511-0.438-0.959-0.963-1.331-1.565c-0.367-0.593-0.652-1.246-0.847-1.94c-0.198-0.708-0.299-1.444-0.299-2.189
							c0-0.38,0.027-0.765,0.081-1.143l0.134-0.96l0.968,0.29c0.354,0.107,0.724,0.16,1.099,0.16c0.637,0,1.272-0.161,1.837-0.467
							l0.422-0.229l0.422,0.229c0.006,0.003,0.012,0.006,0.019,0.01l0.002,0.001c0.009,0.004,0.019,0.009,0.027,0.014
							c0.553,0.29,1.173,0.443,1.79,0.443c0.375,0,0.744-0.053,1.098-0.16l0.969-0.29l0.135,0.96
							c0.053,0.378,0.081,0.763,0.081,1.143c0,0.738-0.099,1.468-0.294,2.17c-0.191,0.689-0.472,1.337-0.833,1.927
							c-0.366,0.599-0.806,1.123-1.309,1.561c-0.525,0.456-1.108,0.808-1.732,1.045l-0.015,0.006
							c-0.018,0.007-0.036,0.014-0.054,0.021l-0.305,0.111L183.704,86.067z"/>
						<path opacity="0.6154" fill="#010101" d="M183.682,86.046c-0.633-0.23-1.225-0.579-1.759-1.035
							c-0.512-0.436-0.959-0.963-1.332-1.564c-0.367-0.594-0.652-1.247-0.846-1.941c-0.199-0.707-0.299-1.444-0.299-2.189
							c0-0.38,0.027-0.764,0.08-1.143l0.135-0.959l0.968,0.29c0.354,0.105,0.724,0.159,1.098,0.159c0.637,0,1.273-0.162,1.837-0.468
							l0.423-0.228l0.422,0.228c0.006,0.003,0.013,0.006,0.02,0.01l0.001,0.001c0.009,0.005,0.018,0.009,0.026,0.014
							c0.553,0.29,1.172,0.443,1.791,0.443c0.374,0,0.743-0.054,1.097-0.159l0.968-0.29l0.136,0.959
							c0.053,0.379,0.08,0.763,0.08,1.143c0,0.738-0.099,1.469-0.294,2.171c-0.191,0.688-0.471,1.337-0.832,1.927
							c-0.366,0.598-0.807,1.123-1.31,1.56c-0.525,0.457-1.107,0.809-1.731,1.045l-0.015,0.006
							c-0.018,0.007-0.036,0.014-0.055,0.021l-0.304,0.111L183.682,86.046z"/>
						<path opacity="0.6923" fill="#010101" d="M183.66,86.025c-0.633-0.23-1.225-0.578-1.76-1.035
							c-0.512-0.437-0.959-0.963-1.331-1.564c-0.367-0.594-0.652-1.247-0.847-1.941c-0.198-0.708-0.299-1.444-0.299-2.189
							c0-0.38,0.028-0.765,0.081-1.143l0.135-0.959l0.969,0.29c0.354,0.105,0.723,0.159,1.097,0.159
							c0.638,0,1.273-0.162,1.838-0.467l0.423-0.229l0.421,0.229c0.006,0.002,0.013,0.006,0.02,0.009l0.001,0.001
							c0.008,0.004,0.018,0.009,0.026,0.013c0.553,0.29,1.173,0.443,1.791,0.443c0.374,0,0.743-0.054,1.098-0.159l0.968-0.29
							l0.135,0.959c0.053,0.377,0.081,0.762,0.081,1.143c0,0.738-0.099,1.469-0.294,2.17c-0.19,0.688-0.471,1.337-0.832,1.928
							c-0.365,0.598-0.806,1.123-1.309,1.561c-0.526,0.456-1.108,0.808-1.732,1.045l-0.016,0.005
							c-0.017,0.006-0.035,0.014-0.054,0.02l-0.304,0.112L183.66,86.025z"/>
						<path opacity="0.7692" fill="#010101" d="M183.638,86.004c-0.633-0.23-1.225-0.579-1.76-1.035
							c-0.511-0.436-0.959-0.962-1.331-1.564c-0.368-0.593-0.653-1.247-0.847-1.941c-0.199-0.708-0.299-1.444-0.299-2.19
							c0-0.379,0.027-0.764,0.081-1.142l0.135-0.96l0.968,0.289c0.355,0.106,0.724,0.16,1.098,0.16c0.637,0,1.272-0.162,1.838-0.468
							l0.422-0.229l0.422,0.229c0.006,0.004,0.012,0.007,0.018,0.009l0.003,0.001c0.008,0.004,0.017,0.009,0.027,0.014
							c0.553,0.29,1.172,0.443,1.79,0.443c0.375,0,0.744-0.054,1.098-0.16l0.969-0.289l0.135,0.96
							c0.053,0.378,0.08,0.762,0.08,1.142c0,0.739-0.099,1.469-0.293,2.171c-0.191,0.689-0.471,1.337-0.833,1.928
							c-0.365,0.599-0.806,1.123-1.309,1.56c-0.525,0.458-1.108,0.809-1.732,1.045l-0.014,0.006
							c-0.019,0.006-0.036,0.013-0.055,0.02l-0.304,0.11L183.638,86.004z"/>
						<path opacity="0.8462" fill="#010101" d="M183.617,85.984c-0.634-0.23-1.226-0.579-1.761-1.035
							c-0.511-0.436-0.959-0.962-1.331-1.564c-0.367-0.593-0.652-1.247-0.847-1.941c-0.198-0.707-0.298-1.444-0.298-2.189
							c0-0.38,0.027-0.765,0.08-1.143l0.136-0.959l0.967,0.29c0.355,0.105,0.725,0.16,1.098,0.16c0.637,0,1.273-0.162,1.838-0.468
							l0.422-0.229l0.422,0.229c0.007,0.003,0.013,0.007,0.019,0.01l0.002,0.001c0.009,0.004,0.019,0.01,0.027,0.014
							c0.553,0.29,1.172,0.443,1.79,0.443c0.374,0,0.743-0.054,1.098-0.16l0.968-0.29l0.135,0.959
							c0.053,0.378,0.08,0.762,0.08,1.143c0,0.738-0.099,1.468-0.293,2.171c-0.191,0.688-0.471,1.337-0.832,1.927
							c-0.366,0.598-0.806,1.123-1.309,1.561c-0.525,0.457-1.108,0.808-1.732,1.044l-0.016,0.006
							c-0.018,0.007-0.036,0.014-0.054,0.021l-0.305,0.11L183.617,85.984z"/>
						<path opacity="0.9231" fill="#010101" d="M183.594,85.963c-0.633-0.231-1.226-0.579-1.76-1.035
							c-0.511-0.438-0.959-0.964-1.332-1.565c-0.367-0.594-0.652-1.246-0.847-1.941c-0.198-0.708-0.298-1.444-0.298-2.189
							c0-0.38,0.026-0.765,0.08-1.143l0.135-0.959l0.969,0.289c0.354,0.106,0.724,0.159,1.097,0.159
							c0.637,0,1.272-0.161,1.838-0.467l0.422-0.229l0.422,0.229c0.006,0.003,0.013,0.006,0.019,0.01l0.002,0
							c0.009,0.005,0.017,0.009,0.026,0.014c0.554,0.29,1.172,0.442,1.791,0.442c0.374,0,0.743-0.053,1.097-0.159l0.968-0.289
							l0.135,0.959c0.053,0.378,0.081,0.763,0.081,1.143c0,0.738-0.099,1.468-0.294,2.17c-0.191,0.689-0.471,1.337-0.832,1.927
							c-0.366,0.599-0.806,1.123-1.31,1.561c-0.525,0.457-1.108,0.808-1.731,1.044l-0.016,0.006
							c-0.018,0.007-0.036,0.014-0.055,0.021l-0.304,0.111L183.594,85.963z"/>
						<path fill="#010101" d="M183.572,85.941c-0.633-0.23-1.225-0.579-1.76-1.035c-0.512-0.437-0.959-0.963-1.332-1.564
							c-0.367-0.594-0.652-1.247-0.846-1.941c-0.199-0.707-0.299-1.444-0.299-2.189c0-0.38,0.027-0.765,0.08-1.143l0.135-0.96
							l0.969,0.29c0.354,0.106,0.723,0.16,1.097,0.16c0.638,0,1.273-0.162,1.838-0.469l0.422-0.228l0.422,0.228
							c0.006,0.004,0.012,0.007,0.018,0.01l0.002,0.001c0.009,0.005,0.018,0.01,0.026,0.015c0.554,0.289,1.172,0.443,1.791,0.443
							c0.374,0,0.743-0.054,1.098-0.16l0.968-0.29l0.135,0.96c0.054,0.378,0.081,0.763,0.081,1.143c0,0.738-0.099,1.469-0.294,2.17
							c-0.191,0.689-0.472,1.337-0.832,1.927c-0.366,0.598-0.807,1.124-1.31,1.56c-0.525,0.458-1.107,0.809-1.731,1.045
							l-0.015,0.006c-0.018,0.007-0.036,0.014-0.055,0.02l-0.305,0.111L183.572,85.941z"/>
					</g>
					<g>
						<linearGradient id="SVGID_1_" gradientUnits="userSpaceOnUse" x1="183.877" y1="86.0522" x2="183.877" y2="76.8628">
							<stop  offset="0" style="stop-color:#ABB2BA"/>
							<stop  offset="0.2032" style="stop-color:#C3C8CD"/>
							<stop  offset="0.5358" style="stop-color:#E4E6E8"/>
							<stop  offset="0.8134" style="stop-color:#F8F8F9"/>
							<stop  offset="1" style="stop-color:#FFFFFF"/>
						</linearGradient>
						<path fill="url(#SVGID_1_)" d="M183.572,85.941c-0.633-0.23-1.225-0.579-1.76-1.035c-0.512-0.437-0.959-0.963-1.332-1.564
							c-0.367-0.594-0.652-1.247-0.846-1.941c-0.199-0.707-0.299-1.444-0.299-2.189c0-0.38,0.027-0.765,0.08-1.143l0.135-0.96
							l0.969,0.29c0.354,0.106,0.723,0.16,1.097,0.16c0.638,0,1.273-0.162,1.838-0.469l0.422-0.228l0.422,0.228
							c0.006,0.004,0.012,0.007,0.018,0.01l0.002,0.001c0.009,0.005,0.018,0.01,0.026,0.015c0.554,0.289,1.172,0.443,1.791,0.443
							c0.374,0,0.743-0.054,1.098-0.16l0.968-0.29l0.135,0.96c0.054,0.378,0.081,0.763,0.081,1.143c0,0.738-0.099,1.469-0.294,2.17
							c-0.191,0.689-0.472,1.337-0.832,1.927c-0.366,0.598-0.807,1.124-1.31,1.56c-0.525,0.458-1.107,0.809-1.731,1.045
							l-0.015,0.006c-0.018,0.007-0.036,0.014-0.055,0.02l-0.305,0.111L183.572,85.941z"/>
						<linearGradient id="SVGID_2_" gradientUnits="userSpaceOnUse" x1="183.8765" y1="77.4883" x2="183.8765" y2="85.4697">
							<stop  offset="0" style="stop-color:#ABB2BA"/>
							<stop  offset="0.2032" style="stop-color:#C3C8CD"/>
							<stop  offset="0.5358" style="stop-color:#E4E6E8"/>
							<stop  offset="0.8134" style="stop-color:#F8F8F9"/>
							<stop  offset="1" style="stop-color:#FFFFFF"/>
						</linearGradient>
						<path fill="url(#SVGID_2_)" d="M183.775,85.434c-0.568-0.207-1.101-0.52-1.583-0.932c-0.468-0.399-0.878-0.881-1.22-1.436
							c-0.341-0.551-0.605-1.159-0.787-1.804c-0.186-0.663-0.28-1.352-0.28-2.049c0-0.356,0.026-0.716,0.076-1.07l0.045-0.32
							l0.323,0.097c0.41,0.123,0.836,0.185,1.268,0.185c0.736,0,1.469-0.186,2.12-0.539l0.141-0.076l0.141,0.076
							c0.011,0.006,0.021,0.011,0.032,0.018c0.007,0.003,0.015,0.007,0.022,0.011c0.637,0.333,1.351,0.51,2.064,0.51
							c0.432,0,0.858-0.062,1.269-0.185l0.323-0.097l0.045,0.32c0.05,0.354,0.075,0.714,0.075,1.07c0,0.691-0.092,1.375-0.275,2.031
							c-0.178,0.643-0.438,1.245-0.773,1.793c-0.336,0.551-0.74,1.032-1.201,1.433c-0.474,0.412-0.999,0.729-1.559,0.941
							l-0.016,0.005c-0.016,0.006-0.031,0.013-0.046,0.018l-0.102,0.036L183.775,85.434z"/>
						<path fill="#662F90" d="M187.49,78.178c-0.438,0.131-0.891,0.197-1.354,0.197c-0.767,0-1.521-0.188-2.201-0.544
							c-0.02-0.01-0.039-0.02-0.059-0.03c-0.695,0.375-1.472,0.574-2.26,0.574c-0.462,0-0.915-0.066-1.354-0.197
							c-0.048,0.342-0.072,0.689-0.072,1.034c0,2.743,1.509,5.175,3.686,5.967c0.02-0.007,0.039-0.015,0.059-0.022
							c2.146-0.814,3.627-3.226,3.627-5.945C187.563,78.867,187.539,78.521,187.49,78.178z"/>
					</g>
				</g>
			</g>
		</g>
	</g>
</g>
<g>
	<path fill="#662F90" d="M189.303,77.553h4.299c1.054,0,1.796,0.265,2.288,0.756c0.335,0.336,0.539,0.78,0.539,1.357v0.024
		c0,0.973-0.551,1.549-1.293,1.873c1.018,0.336,1.665,0.913,1.665,2.053v0.024c0,1.44-1.173,2.317-3.173,2.317h-4.323V77.553z
		 M193.027,80.903c0.706,0,1.102-0.24,1.102-0.732v-0.024c0-0.457-0.359-0.721-1.054-0.721h-1.509v1.477H193.027z M193.363,84.084
		c0.707,0,1.114-0.276,1.114-0.768v-0.024c0-0.457-0.359-0.756-1.138-0.756h-1.772v1.548H193.363z"/>
	<path fill="#662F90" d="M197.78,77.193h2.276v8.765h-2.276V77.193z"/>
	<path fill="#662F90" d="M201.061,82.74v-0.024c0-1.849,1.509-3.397,3.593-3.397c2.072,0,3.569,1.525,3.569,3.374v0.023
		c0,1.85-1.509,3.398-3.593,3.398C202.558,86.113,201.061,84.588,201.061,82.74z M206.007,82.74v-0.024
		c0-0.792-0.574-1.465-1.377-1.465c-0.826,0-1.354,0.661-1.354,1.441v0.023c0,0.792,0.575,1.465,1.377,1.465
		C205.48,84.181,206.007,83.52,206.007,82.74z"/>
	<path fill="#662F90" d="M208.917,82.74v-0.024c0-1.837,1.425-3.385,3.473-3.385c1.33,0,2.215,0.576,2.767,1.453l-1.545,1.152
		c-0.312-0.432-0.659-0.685-1.209-0.685c-0.731,0-1.27,0.649-1.27,1.441v0.023c0,0.84,0.527,1.477,1.293,1.477
		c0.54,0,0.887-0.252,1.246-0.672l1.521,1.104c-0.599,0.889-1.461,1.489-2.887,1.489C210.354,86.113,208.917,84.577,208.917,82.74z"
		/>
	<path fill="#662F90" d="M215.993,77.193h2.275v4.442l1.761-2.173h2.575l-2.251,2.605l2.311,3.89h-2.503l-1.306-2.209l-0.586,0.684
		v1.525h-2.275V77.193z"/>
	<path fill="#662F90" d="M222.591,82.74v-0.024c0-1.837,1.425-3.385,3.473-3.385c1.33,0,2.215,0.576,2.767,1.453l-1.545,1.152
		c-0.312-0.432-0.659-0.685-1.209-0.685c-0.731,0-1.27,0.649-1.27,1.441v0.023c0,0.84,0.527,1.477,1.293,1.477
		c0.54,0,0.887-0.252,1.246-0.672l1.521,1.104c-0.599,0.889-1.461,1.489-2.887,1.489C224.027,86.113,222.591,84.577,222.591,82.74z"
		/>
	<path fill="#662F90" d="M229.667,77.193h2.276v3.158c0.418-0.541,1.018-1.033,1.94-1.033c1.377,0,2.203,0.913,2.203,2.389v4.25
		h-2.275v-3.518c0-0.708-0.372-1.093-0.911-1.093c-0.551,0-0.958,0.384-0.958,1.093v3.518h-2.276V77.193z"/>
	<path fill="#662F90" d="M236.935,84.096v-0.024c0-1.345,1.018-2.041,2.539-2.041c0.599,0,1.186,0.12,1.557,0.252v-0.108
		c0-0.672-0.419-1.056-1.294-1.056c-0.683,0-1.209,0.131-1.784,0.36l-0.467-1.609c0.73-0.3,1.509-0.504,2.623-0.504
		c1.162,0,1.952,0.276,2.467,0.792c0.49,0.48,0.694,1.153,0.694,2.065v3.734h-2.251v-0.672c-0.443,0.492-1.054,0.816-1.904,0.816
		C237.881,86.101,236.935,85.393,236.935,84.096z M241.055,83.604v-0.3c-0.228-0.096-0.551-0.168-0.887-0.168
		c-0.658,0-1.042,0.324-1.042,0.804v0.024c0,0.444,0.335,0.708,0.802,0.708C240.588,84.673,241.055,84.252,241.055,83.604z"/>
	<path fill="#662F90" d="M244.431,77.193h2.371v1.681h-2.371V77.193z M244.479,79.462h2.275v6.496h-2.275V79.462z"/>
	<path fill="#662F90" d="M248.023,79.462h2.275v0.913c0.419-0.541,1.018-1.057,1.94-1.057c1.377,0,2.203,0.913,2.203,2.389v4.25
		h-2.275v-3.518c0-0.708-0.37-1.093-0.91-1.093c-0.55,0-0.958,0.384-0.958,1.093v3.518h-2.275V79.462z"/>
	<path fill="#662F90" d="M259.063,77.553h6.743v1.981h-4.443v1.272h4.024v1.837h-4.024v1.333h4.503v1.981h-6.803V77.553z"/>
	<path fill="#662F90" d="M266.918,79.462h2.275v0.913c0.42-0.541,1.018-1.057,1.939-1.057c1.378,0,2.205,0.913,2.205,2.389v4.25
		h-2.276v-3.518c0-0.708-0.371-1.093-0.91-1.093c-0.551,0-0.958,0.384-0.958,1.093v3.518h-2.275V79.462z"/>
	<path fill="#662F90" d="M274.186,84.096v-0.024c0-1.345,1.019-2.041,2.539-2.041c0.6,0,1.187,0.12,1.558,0.252v-0.108
		c0-0.672-0.42-1.056-1.294-1.056c-0.683,0-1.209,0.131-1.784,0.36l-0.468-1.609c0.73-0.3,1.51-0.504,2.623-0.504
		c1.162,0,1.952,0.276,2.468,0.792c0.49,0.48,0.694,1.153,0.694,2.065v3.734h-2.252v-0.672c-0.442,0.492-1.054,0.816-1.904,0.816
		C275.133,86.101,274.186,85.393,274.186,84.096z M278.306,83.604v-0.3c-0.228-0.096-0.551-0.168-0.886-0.168
		c-0.659,0-1.042,0.324-1.042,0.804v0.024c0,0.444,0.335,0.708,0.802,0.708C277.839,84.673,278.306,84.252,278.306,83.604z"/>
	<path fill="#662F90" d="M283.957,85.165v0.793h-2.275v-8.765h2.275v3.133c0.443-0.54,0.994-1.008,1.965-1.008
		c1.544,0,2.873,1.285,2.873,3.362v0.024c0,2.113-1.329,3.397-2.861,3.397C284.951,86.101,284.377,85.657,283.957,85.165z
		 M286.557,82.715v-0.023c0-0.853-0.587-1.465-1.33-1.465c-0.73,0-1.317,0.613-1.317,1.465v0.023c0,0.865,0.587,1.477,1.317,1.477
		C285.97,84.192,286.557,83.592,286.557,82.715z"/>
	<path fill="#662F90" d="M289.824,77.193h2.276v8.765h-2.276V77.193z"/>
	<path fill="#662F90" d="M293.105,82.74v-0.024c0-1.897,1.354-3.397,3.27-3.397c2.239,0,3.269,1.645,3.269,3.554
		c0,0.145,0,0.313-0.011,0.468h-4.336c0.179,0.709,0.694,1.069,1.401,1.069c0.539,0,0.97-0.205,1.437-0.66l1.258,1.044
		c-0.623,0.792-1.521,1.32-2.814,1.32C294.542,86.113,293.105,84.757,293.105,82.74z M297.512,82.175
		c-0.083-0.72-0.503-1.177-1.125-1.177c-0.6,0-1.007,0.469-1.126,1.177H297.512z"/>
	<path fill="#662F90" d="M300.374,82.74v-0.024c0-2.113,1.317-3.397,2.85-3.397c0.981,0,1.557,0.444,1.988,0.937v-3.062h2.274v8.765
		h-2.274v-0.865c-0.443,0.541-1.007,1.009-1.977,1.009C301.702,86.101,300.374,84.816,300.374,82.74z M305.248,82.715v-0.023
		c0-0.853-0.587-1.465-1.317-1.465s-1.329,0.601-1.329,1.465v0.023c0,0.865,0.599,1.477,1.329,1.477S305.248,83.58,305.248,82.715z"
		/>
	<path fill="#662F90" d="M312.156,77.553h6.742v1.981h-4.443v1.272h4.023v1.837h-4.023v1.333h4.503v1.981h-6.802V77.553z"/>
	<path fill="#662F90" d="M319.795,84.204l3.138-2.401c0.778-0.612,1.077-1.008,1.077-1.512c0-0.528-0.37-0.853-0.934-0.853
		c-0.563,0-1.006,0.324-1.665,1.081l-1.567-1.309c0.897-1.165,1.784-1.801,3.412-1.801c1.832,0,3.09,1.092,3.09,2.677v0.024
		c0,1.345-0.694,2.041-1.939,2.941l-1.437,1.008h3.46v1.897h-6.635V84.204z"/>
	<path fill="#662F90" d="M327.615,77.553h6.742v1.981h-4.443v1.272h4.023v1.837h-4.023v1.333h4.503v1.981h-6.802V77.553z"/>
	<path fill="#662F90" d="M338.919,77.553h6.741v1.981h-4.442v1.272h4.022v1.837h-4.022v1.333h4.502v1.981h-6.801V77.553z"/>
	<path fill="#662F90" d="M346.772,79.462h2.275v0.913c0.419-0.541,1.019-1.057,1.939-1.057c1.377,0,2.204,0.913,2.204,2.389v4.25
		h-2.274v-3.518c0-0.708-0.371-1.093-0.91-1.093c-0.552,0-0.959,0.384-0.959,1.093v3.518h-2.275V79.462z"/>
	<path fill="#662F90" d="M354.101,82.74v-0.024c0-1.837,1.425-3.385,3.474-3.385c1.328,0,2.215,0.576,2.766,1.453l-1.545,1.152
		c-0.311-0.432-0.658-0.685-1.21-0.685c-0.729,0-1.269,0.649-1.269,1.441v0.023c0,0.84,0.526,1.477,1.293,1.477
		c0.539,0,0.886-0.252,1.246-0.672l1.521,1.104c-0.6,0.889-1.461,1.489-2.887,1.489C355.537,86.113,354.101,84.577,354.101,82.74z"
		/>
	<path fill="#662F90" d="M361.178,79.462h2.275v1.309c0.37-0.888,0.97-1.465,2.048-1.417v2.401h-0.191
		c-1.186,0-1.856,0.685-1.856,2.185v2.018h-2.275V79.462z"/>
	<path fill="#662F90" d="M366.135,87.35l0.707-1.597c0.359,0.216,0.741,0.348,0.993,0.348c0.228,0,0.383-0.06,0.527-0.264
		l-2.539-6.375h2.383l1.294,3.914l1.222-3.914h2.334l-2.371,6.339c-0.563,1.513-1.172,2.113-2.467,2.113
		C367.416,87.914,366.732,87.686,366.135,87.35z"/>
	<path fill="#662F90" d="M373.798,79.462h2.276v0.864c0.442-0.54,0.993-1.008,1.963-1.008c1.545,0,2.874,1.285,2.874,3.362v0.024
		c0,2.113-1.329,3.397-2.861,3.397c-0.982,0-1.557-0.444-1.976-0.937v2.713h-2.276V79.462z M378.673,82.715v-0.023
		c0-0.853-0.587-1.465-1.33-1.465c-0.729,0-1.316,0.613-1.316,1.465v0.023c0,0.865,0.587,1.477,1.316,1.477
		C378.086,84.192,378.673,83.592,378.673,82.715z"/>
	<path fill="#662F90" d="M382.228,83.94v-2.641h-0.766v-1.837h0.766v-1.645h2.275v1.645h1.509v1.837h-1.509v2.197
		c0,0.457,0.204,0.649,0.622,0.649c0.3,0,0.588-0.084,0.863-0.217v1.789c-0.407,0.228-0.946,0.373-1.582,0.373
		C383.042,86.089,382.228,85.489,382.228,83.94z"/>
	<path fill="#662F90" d="M386.993,77.193h2.371v1.681h-2.371V77.193z M387.042,79.462h2.274v6.496h-2.274V79.462z"/>
	<path fill="#662F90" d="M390.321,82.74v-0.024c0-1.849,1.51-3.397,3.594-3.397c2.072,0,3.568,1.525,3.568,3.374v0.023
		c0,1.85-1.509,3.398-3.593,3.398C391.818,86.113,390.321,84.588,390.321,82.74z M395.269,82.74v-0.024
		c0-0.792-0.576-1.465-1.378-1.465c-0.826,0-1.354,0.661-1.354,1.441v0.023c0,0.792,0.575,1.465,1.378,1.465
		C394.741,84.181,395.269,83.52,395.269,82.74z"/>
	<path fill="#662F90" d="M398.441,79.462h2.274v0.913c0.42-0.541,1.018-1.057,1.94-1.057c1.378,0,2.204,0.913,2.204,2.389v4.25
		h-2.276v-3.518c0-0.708-0.371-1.093-0.91-1.093c-0.551,0-0.958,0.384-0.958,1.093v3.518h-2.274V79.462z"/>
</g>
<g>
	<g>
		<path fill-rule="evenodd" clip-rule="evenodd" fill="#3E215B" d="M258.207,66.412l0.002-21.959c0-0.259,0.235-0.47,0.523-0.47
			h7.632c0.248,0,0.449-0.182,0.449-0.403V36.4c0-0.223-0.201-0.404-0.449-0.404h-7.632c-0.288,0-0.523-0.21-0.523-0.468V25.432
			c0-0.221-0.201-0.402-0.45-0.402h-7.971c-0.247,0-0.448,0.181-0.448,0.402v43.153c0,3.441,3.131,6.251,6.971,6.251h10.054
			c0.248,0,0.449-0.182,0.449-0.403v-7.148c0-0.222-0.201-0.403-0.449-0.403h-7.632C258.441,66.881,258.207,66.67,258.207,66.412
			L258.207,66.412z"/>
		<path fill-rule="evenodd" clip-rule="evenodd" fill="#3E215B" d="M125.165,56.782c-0.122-0.659-0.184-1.327-0.184-1.995
			c0-0.667,0.062-1.336,0.184-1.996c1.077-5.826,6.723-10.099,13.305-10.099c3.589,0,6.997,1.265,9.537,3.542l1.025,0.919
			c0.175,0.156,0.461,0.156,0.636-0.001l5.635-5.054c0.175-0.157,0.175-0.414,0-0.57l-1.025-0.919
			c-4.205-3.771-9.862-5.873-15.808-5.873c-11.265,0-20.804,7.537-22.188,17.567c-0.113,0.823-0.17,1.653-0.17,2.482
			c0,0.83,0.057,1.661,0.17,2.484c1.385,10.029,10.923,17.564,22.188,17.564c5.946,0,11.603-2.101,15.808-5.872l1.025-0.919
			c0.175-0.156,0.175-0.414,0-0.57l-5.635-5.055c-0.175-0.156-0.461-0.156-0.636,0l-1.025,0.919
			c-2.54,2.277-5.947,3.542-9.537,3.542C131.888,66.881,126.242,62.608,125.165,56.782L125.165,56.782z"/>
		<path fill-rule="evenodd" clip-rule="evenodd" fill="#3E215B" d="M344.006,62.613l-13.084-26.377
			c-0.074-0.152-0.224-0.24-0.408-0.24h-8.773c-0.162,0-0.289,0.062-0.377,0.185c-0.089,0.122-0.1,0.25-0.032,0.383l18.991,38.033
			c0.076,0.151,0.223,0.239,0.409,0.239h7.467c0.186,0,0.333-0.087,0.409-0.238l19.229-38.032c0.067-0.133,0.057-0.263-0.031-0.385
			c-0.089-0.122-0.216-0.185-0.379-0.185h-8.777c-0.186,0-0.334,0.086-0.408,0.238l-13.28,26.381
			c-0.086,0.172-0.267,0.277-0.478,0.276C344.272,62.891,344.092,62.786,344.006,62.613L344.006,62.613z"/>
		<path fill-rule="evenodd" clip-rule="evenodd" fill="#3E215B" d="M312.019,35.996c-0.247,0-0.449,0.182-0.449,0.403v38.033
			c0,0.223,0.202,0.404,0.449,0.404h7.972c0.247,0,0.449-0.182,0.449-0.404V36.399c0-0.222-0.202-0.403-0.449-0.403H312.019
			L312.019,35.996z M316.005,22.732c-2.917,0-5.282,2.122-5.282,4.738c0,2.616,2.365,4.737,5.282,4.737s5.282-2.121,5.282-4.737
			C321.287,24.854,318.922,22.732,316.005,22.732L316.005,22.732z"/>
		<path fill-rule="evenodd" clip-rule="evenodd" fill="#3E215B" d="M219.591,34.892c-11.185,1.238-19.587,9.794-19.587,19.896
			s8.403,18.656,19.587,19.896c0.918,0.103,1.843,0.153,2.769,0.153s1.851-0.051,2.769-0.153c2-0.222,3.961-0.685,5.821-1.378
			c0.175-0.066,0.277-0.202,0.277-0.373V64.75c0-0.161-0.088-0.289-0.25-0.361c-0.161-0.072-0.329-0.058-0.472,0.041
			c-1.739,1.184-3.766,1.967-5.92,2.286c-0.735,0.11-1.48,0.166-2.226,0.166s-1.49-0.056-2.226-0.164l-0.187-0.028
			c-6.41-1.031-11.074-6.068-11.074-11.901c0-5.901,4.765-10.964,11.26-11.928c0.735-0.11,1.48-0.166,2.226-0.166
			s1.49,0.055,2.225,0.165l0.176,0.026c6.415,1.027,11.085,6.065,11.085,11.903v19.017c0,0.221,0.202,0.403,0.449,0.403h7.972
			c0.247,0,0.449-0.183,0.449-0.403V54.787c0-10.101-8.402-18.656-19.588-19.896c-0.918-0.102-1.843-0.153-2.769-0.153
			S220.51,34.79,219.591,34.892L219.591,34.892z"/>
		<path fill-rule="evenodd" clip-rule="evenodd" fill="#3E215B" d="M396.877,63.341c-1.47,1.318-3.23,2.296-5.148,2.888
			c-0.041,0.012-0.082,0.023-0.123,0.036c-1.34,0.401-2.774,0.618-4.266,0.618c-3.113,0-6.063-0.967-8.406-2.637
			c-1.756-1.251-3.171-2.898-4.063-4.832c-0.007-0.016-0.014-0.033-0.02-0.049c-0.644-1.413-0.998-2.958-0.998-4.578
			s0.355-3.166,1-4.578c0.004-0.015,0.011-0.031,0.018-0.046c0.885-1.921,2.287-3.56,4.027-4.809c0-0.001,0.002-0.001,0.004-0.003
			c2.311-1.664,5.244-2.659,8.438-2.659c3.128,0,6.09,0.975,8.438,2.659c1.742,1.249,3.146,2.889,4.031,4.812
			c0.007,0.015,0.014,0.031,0.019,0.046c0.091,0.198,0.175,0.399,0.255,0.602h-10.771H379.29h-0.009h-0.748
			c-0.482,1.246-0.745,2.583-0.745,3.976c0,1.393,0.263,2.732,0.746,3.978h0.747h0.01h5.176h15.614h1.431h7.41
			c0.23,0,0.418-0.148,0.447-0.354l0.156-1.141c0.114-0.823,0.171-1.652,0.171-2.482c0-0.829-0.057-1.659-0.171-2.483
			c-1.383-10.031-10.922-17.566-22.186-17.566c-11.266,0-20.805,7.535-22.188,17.566c-0.113,0.824-0.17,1.654-0.17,2.483
			c0,0.83,0.057,1.66,0.17,2.482c1.383,10.031,10.922,17.566,22.188,17.566c5.945,0,11.604-2.101,15.808-5.871l1.024-0.92
			c0.175-0.157,0.175-0.413,0-0.569l-5.635-5.055c-0.174-0.156-0.461-0.156-0.635,0L396.877,63.341L396.877,63.341z"/>
		<path fill-rule="evenodd" clip-rule="evenodd" fill="#3E215B" d="M168.591,37.017V25.061c0-0.221-0.202-0.403-0.449-0.403h-7.972
			c-0.247,0-0.449,0.182-0.449,0.403v49.372c0,0.222,0.203,0.403,0.449,0.403h7.972c0.247,0,0.449-0.182,0.449-0.403V52.021
			c0-4.78,4.369-8.699,9.701-8.699s9.701,3.918,9.701,8.699v22.412c0,0.222,0.202,0.403,0.45,0.403h7.971
			c0.248,0,0.449-0.182,0.449-0.403V52.022c0-9.163-8.353-16.655-18.571-16.655c-3.123,0-6.189,0.708-8.924,2.061
			c-0.167,0.083-0.355,0.081-0.52-0.006C168.684,37.334,168.591,37.188,168.591,37.017L168.591,37.017z"/>
		<path fill-rule="evenodd" clip-rule="evenodd" fill="#3E215B" d="M279.513,37.017V25.061c0-0.221-0.203-0.403-0.449-0.403h-7.973
			c-0.246,0-0.449,0.182-0.449,0.403v49.372c0,0.221,0.203,0.404,0.449,0.404h7.973c0.246,0,0.449-0.184,0.449-0.404V52.021
			c0-4.781,4.369-8.699,9.7-8.699s9.7,3.918,9.7,8.699v22.411c0,0.221,0.202,0.404,0.45,0.404h7.971
			c0.248,0,0.449-0.184,0.449-0.404v-22.41c0-9.164-8.352-16.655-18.57-16.655c-3.123,0-6.19,0.708-8.925,2.061
			c-0.166,0.083-0.355,0.08-0.519-0.006C279.605,37.334,279.513,37.188,279.513,37.017L279.513,37.017z"/>
	</g>
	<g>
		<defs>
			<path id="SVGID_3_" d="M109.19,80.404c11.263-20.482,7.23-46.337-9.799-59.615c-1.672-1.3-3.821-2.659-5.657-3.625L81.412,43.4
				L69.093,17.164c-1.837,0.966-3.986,2.325-5.657,3.625c-17.03,13.278-21.062,39.133-9.798,59.615
				c0.617-0.379,1.238-0.765,1.859-1.156c-3.018-5.486-5.053-11.672-5.777-18.101c-0.547-4.854-0.354-9.782,0.604-14.538
				c0.014-0.063,0.025-0.126,0.039-0.19c0.095-0.331,0.323-0.595,0.62-0.706c0.352-0.132,0.739-0.025,0.998,0.276
				c0.214,0.248,0.312,0.595,0.269,0.935c-0.016,0.068-0.031,0.136-0.046,0.205c-2.281,10.676-0.417,21.977,5.181,30.912
				c0.613-0.396,1.225-0.797,1.836-1.2c-1.157-1.858-2.164-3.838-3.002-5.912c-6.451-15.807-1.582-34.491,10.577-44.211l2.948,6.14
				c-9.213,7.736-12.984,22.073-8.18,34.546c0.795,2.069,1.803,4.021,3.002,5.815c0.596-0.413,1.19-0.826,1.782-1.24
				c-3.327-5.217-5.075-10.967-4.705-17.597c0.008-0.125,0.016-0.25,0.023-0.375c0.064-0.295,0.23-0.553,0.47-0.708
				c0.339-0.218,0.757-0.189,1.07,0.074c0.232,0.194,0.372,0.489,0.397,0.805c-0.008,0.113-0.016,0.224-0.021,0.336
				c-0.306,5.776,1.221,11.769,4.445,16.285c0.602-0.424,1.198-0.847,1.794-1.268c-6.505-9.191-5.257-23.032,2.896-30.47
				c1.012,2.087,2.016,4.18,3.02,6.273c-5.028,5.473-5.348,14.554-0.639,20.462l6.314-4.438l6.317,4.438
				c4.709-5.908,4.39-14.989-0.636-20.462c1.002-2.093,2.006-4.187,3.018-6.273c8.152,7.438,9.403,21.278,2.898,30.47
				c0.594,0.421,1.192,0.844,1.792,1.268c3.225-4.516,4.751-10.509,4.445-16.285c-0.005-0.112-0.011-0.223-0.019-0.336
				c0.023-0.315,0.165-0.61,0.395-0.805c0.313-0.264,0.731-0.292,1.07-0.074c0.24,0.155,0.408,0.413,0.47,0.708
				c0.008,0.125,0.015,0.25,0.024,0.375c0.371,6.63-1.378,12.38-4.706,17.597c0.592,0.414,1.186,0.827,1.782,1.24
				c1.2-1.795,2.208-3.746,3.004-5.815c4.803-12.473,1.034-26.81-8.181-34.546l2.949-6.14c12.158,9.72,17.027,28.405,10.577,44.211
				c-0.838,2.074-1.843,4.054-3.002,5.912c0.611,0.403,1.223,0.804,1.835,1.2c5.598-8.936,7.462-20.236,5.181-30.912
				c-0.015-0.069-0.03-0.137-0.044-0.205c-0.045-0.34,0.052-0.687,0.267-0.935c0.259-0.302,0.646-0.408,0.998-0.276
				c0.297,0.111,0.524,0.375,0.62,0.706c0.014,0.064,0.027,0.127,0.039,0.19c0.959,4.756,1.153,9.685,0.605,14.538
				c-0.725,6.429-2.761,12.614-5.776,18.101C107.951,79.64,108.572,80.025,109.19,80.404"/>
		</defs>
		<clipPath id="SVGID_4_">
			<use xlink:href="#SVGID_3_"  overflow="visible"/>
		</clipPath>
		<linearGradient id="SVGID_5_" gradientUnits="userSpaceOnUse" x1="42.374" y1="48.7842" x2="120.4531" y2="48.7842">
			<stop  offset="0" style="stop-color:#3E215B"/>
			<stop  offset="1" style="stop-color:#3E215B"/>
		</linearGradient>
		<rect x="42.374" y="17.164" clip-path="url(#SVGID_4_)" fill="url(#SVGID_5_)" width="78.079" height="63.24"/>
	</g>
</g>
</svg>
