<?xml version="1.0" encoding="utf-8"?>
<!-- Generator: Adobe Illustrator 16.0.0, SVG Export Plug-In . SVG Version: 6.00 Build 0)  -->
<!DOCTYPE svg PUBLIC "-//W3C//DTD SVG 1.1//EN" "http://www.w3.org/Graphics/SVG/1.1/DTD/svg11.dtd">
<svg version="1.1" id="Layer_1" xmlns="http://www.w3.org/2000/svg" xmlns:xlink="http://www.w3.org/1999/xlink" x="0px" y="0px"
	 width="200px" height="250px" viewBox="0 0 200 250" enable-background="new 0 0 200 250" xml:space="preserve">
<g>
	<path fill="none" stroke="#6D6E71" stroke-width="3" stroke-miterlimit="10" d="M31.087,186.716v8.188h17.192
		c0.047,0.042,0.091,0.089,0.138,0.131c24.132,23.344,51.645,34.432,52.25,38.563c0.613-4.11,27.965-15.155,51.923-38.636
		c0.02-0.019,0.038-0.039,0.056-0.059H168.9v-8.188h-8.494c25.127-28.138,36.681-60.43,35.956-93.938
		c-0.573-26.625-8.869-54.01-24.186-80.667c-17.89,20.055-43.369,32.637-71.687,32.698c-0.069,0-0.139,0-0.208,0
		c-28.416,0-54.011-12.615-71.958-32.757C-5.73,71.741-7.094,136.928,39.981,186.716H31.087z M108.056,218.1
		c-2.94,1.804-5.383,3.301-7.387,4.651c-2.06-1.386-4.581-2.925-7.632-4.786c-8.557-5.219-20.814-12.731-32.81-23.061h80.556
		C128.815,205.334,116.589,212.866,108.056,218.1z M100.283,52.996l0.223,0c3.434-0.008,6.85-0.205,10.243-0.56
		c-4.152,3.166-7.813,7.054-10.756,11.561c-2.969-4.547-6.669-8.467-10.869-11.646C92.819,52.761,96.541,52.996,100.283,52.996z
		 M96.444,73.97l3.549,7.892l3.551-7.892c6.14-13.656,19.407-22.478,33.805-22.478c20.605,0,37.369,17.502,37.369,39.013
		c0,21.51-16.764,39.012-37.369,39.012c-14.397,0-27.665-8.821-33.805-22.478l-3.551-7.892l-3.549,7.892
		c-6.141,13.656-19.411,22.478-33.806,22.478c-20.604,0-37.37-17.501-37.37-39.012c0-21.511,16.765-39.013,37.37-39.013
		C77.034,51.492,90.304,60.314,96.444,73.97z M106.735,125.137c-2.699,3.499-5.008,6.4-6.68,8.472
		c-1.689-2.078-4.027-4.994-6.765-8.512c1.525-1.471,2.953-3.056,4.278-4.742l2.37-2.729l2.478,2.729
		C103.755,122.056,105.196,123.655,106.735,125.137z M30.159,25.318c8.248,7.573,17.552,13.717,27.514,18.287
		c-22.6,2.592-40.246,22.628-40.246,46.9c0,26.024,20.282,47.199,45.211,47.199c8.818,0,17.275-2.75,24.45-7.591
		c5.9,7.585,9.983,12.423,10.042,12.493l2.951,3.488l2.936-3.501c0.06-0.07,4.092-4.889,9.927-12.448
		c7.165,4.821,15.606,7.559,24.404,7.559c24.931,0,45.212-21.175,45.212-47.199c0-24.116-17.425-44.034-39.816-46.832
		c10-4.568,19.336-10.726,27.608-18.315c11.584,22.697,17.691,45.397,18.171,67.604c0.746,34.61-12.778,66.95-39.078,93.753H51.304
		C6.704,144.36-0.838,86.136,30.159,25.318z"/>
	<path fill="none" stroke="#6D6E71" stroke-width="3" stroke-miterlimit="10" d="M62.639,111.842
		c11.268,0,20.437-9.57,20.437-21.337c0-11.768-9.169-21.338-20.437-21.338c-11.27,0-20.438,9.57-20.438,21.338
		C42.201,102.271,51.369,111.842,62.639,111.842z M62.639,77.354c6.945,0,12.593,5.897,12.593,13.15
		c0,7.252-5.648,13.15-12.593,13.15c-6.945,0-12.596-5.898-12.596-13.15C50.042,83.252,55.693,77.354,62.639,77.354z"/>
	<path fill="none" stroke="#6D6E71" stroke-width="3" stroke-miterlimit="10" d="M137.349,111.842
		c11.27,0,20.439-9.57,20.439-21.337c0-11.768-9.17-21.338-20.439-21.338c-11.269,0-20.437,9.57-20.437,21.338
		C116.912,102.271,126.08,111.842,137.349,111.842z M137.349,77.354c6.944,0,12.596,5.897,12.596,13.15
		c0,7.252-5.651,13.15-12.596,13.15c-6.943,0-12.595-5.898-12.595-13.15C124.754,83.252,130.405,77.354,137.349,77.354z"/>
</g>
</svg>
