<?xml version="1.0" encoding="utf-8"?>
<!-- Generator: Adobe Illustrator 16.0.0, SVG Export Plug-In . SVG Version: 6.00 Build 0)  -->
<!DOCTYPE svg PUBLIC "-//W3C//DTD SVG 1.1//EN" "http://www.w3.org/Graphics/SVG/1.1/DTD/svg11.dtd">
<svg version="1.1" id="Layer_1" xmlns="http://www.w3.org/2000/svg" xmlns:xlink="http://www.w3.org/1999/xlink" x="0px" y="0px"
	 width="500px" height="500px" viewBox="0 0 500 500" enable-background="new 0 0 500 500" xml:space="preserve">
<g>
	<polygon fill="#BBA14F" points="449.819,380.915 403.108,409.046 373.226,454.651 318.939,459.728 272.231,487.851 
		221.118,468.871 166.83,473.942 129.014,434.665 77.9,415.678 60.872,363.883 23.06,324.602 30.192,270.543 13.164,218.747 
		43.046,173.141 50.179,119.085 96.891,90.958 126.769,45.351 181.057,40.277 227.768,12.15 278.882,31.133 333.169,26.059 
		370.985,65.338 422.096,84.322 439.123,136.121 476.939,175.401 469.807,229.457 486.835,281.251 456.952,326.86 	"/>
	<g>
		<path fill="#58246B" d="M269.927,463.213l-45.821-17.014l-48.662,4.547l-33.898-35.211l-45.817-17.017l-15.265-46.434
			l-33.898-35.214l6.396-48.456l-15.265-46.43l26.785-40.882l6.396-48.458l41.872-25.212l26.784-40.883L188.2,62l41.869-25.212
			l45.82,17.016l48.663-4.548l33.898,35.212l45.82,17.017l15.265,46.433l33.898,35.209l-6.396,48.458l15.265,46.433l-26.788,40.884
			l-6.396,48.456L387.25,392.57l-26.788,40.884l-48.663,4.545L269.927,463.213z M225.663,434.432l43.068,15.998l39.361-23.701
			l45.749-4.275l25.18-38.433l39.36-23.701l6.008-45.554l25.183-38.428l-14.351-43.65l6.012-45.551l-31.863-33.099l-14.348-43.649
			L351.95,94.393l-31.868-33.1l-45.745,4.275l-43.072-15.996l-39.361,23.702l-45.745,4.275l-25.18,38.432l-39.36,23.702
			l-6.013,45.549l-25.179,38.433l14.348,43.645l-6.013,45.554l31.868,33.101l14.348,43.648l43.072,15.997l31.864,33.101
			L225.663,434.432z"/>
	</g>
	<polygon fill="#58246B" points="373.598,144.092 206.541,355.909 126.397,226.893 206.969,283.988 	"/>
</g>
</svg>
