<?xml version="1.0" encoding="utf-8"?>
<!-- Generator: Adobe Illustrator 16.0.0, SVG Export Plug-In . SVG Version: 6.00 Build 0)  -->
<!DOCTYPE svg PUBLIC "-//W3C//DTD SVG 1.1//EN" "http://www.w3.org/Graphics/SVG/1.1/DTD/svg11.dtd">
<svg version="1.1" id="Layer_1" xmlns="http://www.w3.org/2000/svg" xmlns:xlink="http://www.w3.org/1999/xlink" x="0px" y="0px"
	 width="200px" height="250px" viewBox="0 0 200 250" enable-background="new 0 0 200 250" xml:space="preserve">
<path fill="none" stroke="#6D6E71" stroke-width="3" stroke-miterlimit="10" d="M176.633,87.135
	c-2.373-39.638-35.717-71.164-75.94-71.164c-41.759,0-75.732,33.974-75.732,75.732c0,1.79,0.085,3.559,0.208,5.317v136.521h4.564
	v0.004c0.059,0,0.116-0.004,0.175-0.004h70.471c42.046,0,76.255-34.208,76.255-76.255V87.135z M100.692,25.108
	c24.825,0,46.505,13.662,57.956,33.853c-6.399-4.408-14.14-7.002-22.48-7.002c-15.504,0-28.926,8.941-35.476,21.92
	c-6.549-12.979-19.972-21.92-35.473-21.92c-8.343,0-16.085,2.596-22.485,7.005C54.186,38.771,75.866,25.108,100.692,25.108z
	 M65.22,61.096c16.878,0,31.112,13.732,31.112,30.61v29.831h9.137V91.706h0.089c0-16.878,13.732-30.61,30.61-30.61
	c16.877,0,31.12,13.732,31.12,30.61c-0.001,36.721-29.874,66.593-66.596,66.593s-66.595-29.872-66.595-66.593
	C34.098,74.828,48.342,61.096,65.22,61.096z M34.305,128.104c12.197,22.156,35.158,37.576,61.791,39.18
	c-4.615,30.808-30.25,54.816-61.791,56.951V128.104z M167.496,157.286c0,37.01-30.109,67.118-67.118,67.118H65.899
	c21.058-11.396,36.157-32.418,39.405-57.121c26.932-1.628,50.107-17.386,62.191-39.949V157.286z"/>
<path fill="none" stroke="#6D6E71" stroke-width="3" stroke-miterlimit="10" d="M145.308,94.995V83.619h-11.377
	c-5.149,0-9.325,4.174-9.325,9.325v11.376h11.377C141.133,104.32,145.308,100.146,145.308,94.995z"/>
<path fill="none" stroke="#6D6E71" stroke-width="3" stroke-miterlimit="10" d="M65.403,104.32H76.78V92.943
	c0-5.15-4.175-9.325-9.325-9.325H56.078v11.376C56.078,100.146,60.254,104.32,65.403,104.32z"/>
</svg>
