<?xml version="1.0" encoding="utf-8"?>
<!-- Generator: Adobe Illustrator 16.0.0, SVG Export Plug-In . SVG Version: 6.00 Build 0)  -->
<!DOCTYPE svg PUBLIC "-//W3C//DTD SVG 1.1//EN" "http://www.w3.org/Graphics/SVG/1.1/DTD/svg11.dtd">
<svg version="1.1" id="Layer_1" xmlns="http://www.w3.org/2000/svg" xmlns:xlink="http://www.w3.org/1999/xlink" x="0px" y="0px"
	 width="250px" height="250px" viewBox="0 0 250 250" enable-background="new 0 0 250 250" xml:space="preserve">
<g>
	<polygon fill="none" stroke="#BCBEC0" stroke-miterlimit="10" points="324.189,179.956 311.057,179.956 297.928,179.956 
		293.103,189.926 311.057,189.926 329.019,189.926 	"/>
	<path fill="none" stroke="#BCBEC0" stroke-miterlimit="10" d="M271.006,229.427c0,2.633,2.539,4.785,5.64,4.785h68.826
		c3.102,0,5.643-2.152,5.643-4.785v-4.796h-80.108V229.427z"/>
	<path fill="none" stroke="#BCBEC0" stroke-miterlimit="10" d="M351.114,194.711c0-2.633-2.541-4.785-5.643-4.785h-68.826
		c-3.101,0-5.64,2.152-5.64,4.785v4.799h80.108V194.711z"/>
	<rect x="271.006" y="199.51" fill="none" stroke="#BCBEC0" stroke-miterlimit="10" width="80.108" height="25.121"/>
	<path fill="none" stroke="#BCBEC0" stroke-miterlimit="10" d="M311.057,195.159c-11.007,0-19.934,7.573-19.934,16.909
		c0,9.34,8.927,16.91,19.934,16.91c11.015,0,19.941-7.57,19.941-16.91C330.998,202.732,322.071,195.159,311.057,195.159z
		 M311.057,225.033c-8.441,0-15.287-5.803-15.287-12.965c0-7.161,6.846-12.967,15.287-12.967c8.445,0,15.291,5.806,15.291,12.967
		C326.348,219.23,319.502,225.033,311.057,225.033z"/>
	<path fill="none" stroke="#BCBEC0" stroke-miterlimit="10" d="M311.057,199.102c-8.441,0-15.287,5.806-15.287,12.967
		c0,7.162,6.846,12.965,15.287,12.965c8.445,0,15.291-5.803,15.291-12.965C326.348,204.907,319.502,199.102,311.057,199.102z
		 M311.057,222.64c-6.879,0-12.461-4.733-12.461-10.571s5.582-10.57,12.461-10.57c6.887,0,12.465,4.732,12.465,10.57
		S317.943,222.64,311.057,222.64z"/>
	<rect x="279.018" y="187.305" fill="none" stroke="#BCBEC0" stroke-miterlimit="10" width="9.74" height="2.621"/>
	<polygon fill="none" stroke="#BCBEC0" stroke-miterlimit="10" points="301.507,183.098 301.507,189.951 307.018,189.951 
		315.104,183.098 	"/>
	<polygon fill="none" stroke="#BCBEC0" stroke-miterlimit="10" points="307.018,189.951 320.614,189.951 320.614,183.098 
		315.104,183.098 	"/>
	<path fill="none" stroke="#BCBEC0" stroke-miterlimit="10" d="M311.057,201.498c-6.879,0-12.461,4.732-12.461,10.57
		c0,2.918,1.393,5.563,3.649,7.476l17.63-14.95C317.618,202.681,314.5,201.498,311.057,201.498z"/>
	<path fill="none" stroke="#BCBEC0" stroke-miterlimit="10" d="M302.245,219.544c2.258,1.913,5.372,3.096,8.812,3.096
		c6.887,0,12.465-4.733,12.465-10.571c0-2.92-1.393-5.562-3.646-7.475L302.245,219.544z"/>
	<path fill="none" stroke="#BCBEC0" stroke-miterlimit="10" d="M341.382,194.716c0,1.376-1.318,2.492-2.942,2.492
		c-1.619,0-2.935-1.116-2.935-2.492c0-1.375,1.315-2.491,2.935-2.491C340.063,192.225,341.382,193.341,341.382,194.716z"/>
</g>
<g>
	<g>
		<path fill="none" stroke="#BCBEC0" stroke-miterlimit="10" d="M-131.782,116.148c-0.036,0-0.072,0-0.108,0
			c-0.048,0-0.095,0-0.143,0.001c-30.501,0.065-59.17,11.974-80.746,33.549c-12.603,12.603-21.907,27.624-27.479,44.019
			c-0.265,0.514-0.491,1.052-0.673,1.615c-0.188,0.577-0.324,1.161-0.411,1.746c-3.284,10.754-4.986,22.055-4.986,33.615
			c0,30.598,11.915,59.361,33.549,80.996c3.786,3.785,7.79,7.273,11.984,10.453c0.45,0.475,0.948,0.914,1.493,1.311
			c0.524,0.381,1.075,0.709,1.643,0.982c19.15,13.518,41.955,20.803,65.877,20.803c30.596,0,59.36-11.914,80.995-33.549
			s33.55-50.398,33.55-80.996c0-30.596-11.915-59.361-33.55-80.995S-101.187,116.148-131.782,116.148z M-144.5,130.902
			l-18.536,57.049h-59.798C-208.46,157.458-179.209,135.301-144.5,130.902z M-200.708,303.895
			c-19.486-18.355-31.665-44.381-31.665-73.201c0-6.404,0.602-12.672,1.752-18.748l48.371,35.143L-200.708,303.895z
			 M-131.782,331.285c-17.587,0-34.136-4.539-48.535-12.504l48.373-35.145l48.512,35.246
			C-97.788,326.785-114.27,331.285-131.782,331.285z M-31.192,230.693c0,28.941-12.283,55.066-31.913,73.436l-18.533-57.041
			l48.655-35.35C-31.808,217.88-31.192,224.215-31.192,230.693z M-100.854,187.951l-18.55-57.09
			c34.857,4.297,64.253,26.498,78.673,57.09H-100.854z"/>
	</g>
	<g>
		<polyline fill="none" stroke="#BCBEC0" stroke-miterlimit="10" points="-81.202,-1.586 -36.185,19.122 -36.185,112.708 
			-7.65,130.629 -7.65,233.775 		"/>
		<polyline fill="none" stroke="#BCBEC0" stroke-miterlimit="10" points="-136.681,232.383 -136.681,77.465 -177.572,96.631 
			-179.081,97.339 -227.985,120.262 -227.985,233.883 		"/>
		<polyline fill="none" stroke="#BCBEC0" stroke-miterlimit="10" points="-182.261,98.175 -182.261,47.551 -81.202,-1.586 
			-81.202,163.563 -50.63,182.764 -50.63,231.678 		"/>
		<polyline fill="none" stroke="#BCBEC0" stroke-miterlimit="10" points="-81.202,-1.586 -36.185,19.122 -36.185,112.708 
			-7.65,130.629 -7.65,233.775 		"/>
		<line fill="none" stroke="#BCBEC0" stroke-miterlimit="10" x1="-101.801" y1="8.431" x2="-101.801" y2="232.658"/>
		<polygon fill="none" stroke="#BCBEC0" stroke-miterlimit="10" points="-101.978,36.183 -180.002,71.269 -180.002,61.432 
			-101.978,26.347 		"/>
		<rect x="-127.817" y="136.117" fill="none" stroke="#BCBEC0" stroke-miterlimit="10" width="18.726" height="11.762"/>
		<rect x="-80.913" y="45.947" fill="none" stroke="#BCBEC0" stroke-miterlimit="10" width="25.747" height="16.173"/>
		<rect x="-195.223" y="171.891" fill="none" stroke="#BCBEC0" stroke-miterlimit="10" width="27.309" height="17.152"/>
		<polygon fill="none" stroke="#BCBEC0" stroke-miterlimit="10" points="-79.746,101.078 -7.211,140.277 -7.18,130.975 
			-79.715,91.773 		"/>
		<polyline fill="none" stroke="#BCBEC0" stroke-miterlimit="10" points="-87.155,173.363 -61.018,189.779 -61.018,231.678 
			-87.155,231.678 		"/>
		<rect x="-87.155" y="205.215" fill="none" stroke="#BCBEC0" stroke-miterlimit="10" width="18.725" height="11.762"/>
		<rect x="-41.672" y="159.15" fill="none" stroke="#BCBEC0" stroke-miterlimit="10" width="18.726" height="11.762"/>
		<rect x="-64.188" y="139.115" fill="none" stroke="#BCBEC0" stroke-miterlimit="10" width="16.369" height="10.279"/>
		<polygon fill="none" stroke="#BCBEC0" stroke-miterlimit="10" points="-138.649,110.985 -226.034,149.57 -226.034,139.35 
			-138.649,100.765 		"/>
	</g>
</g>
<g>
	<path fill="none" stroke="#BCBEC0" stroke-miterlimit="10" d="M303.678,456.373v-26.977c3.689-0.166,7.396-0.258,11.103-0.258
		c1.899,0,3.439-1.607,3.439-3.588c0-1.982-1.54-3.588-3.439-3.588c-3.541,0-7.265,0.098-11.103,0.283v-47.648h13.18
		c1.899,0,3.438-1.607,3.438-3.59s-1.539-3.588-3.438-3.588h-13.18v-100.9c3.564,0.127,7.124,0.447,10.625,0.959
		c1.884,0.277,3.619-1.092,3.884-3.055c0.264-1.963-1.047-3.777-2.928-4.053c-4.942-0.723-9.995-1.09-15.021-1.09
		c-28.603,0-55.495,11.621-75.722,32.725c-20.226,21.102-31.364,49.158-31.364,79.002c0,27.66,9.761,54.201,27.486,74.738
		c0.08,0.094,0.167,0.182,0.248,0.275c0.013,0.016,0.026,0.031,0.041,0.045c17.564,20.191,41.451,32.969,67.319,35.977
		c0.121,0.014,0.24,0.02,0.359,0.02c0.007,0,0.014,0.004,0.02,0.004c0.195,0,0.386-0.023,0.574-0.057
		c0.063-0.01,0.121-0.027,0.181-0.041c0.128-0.029,0.253-0.066,0.376-0.111c0.061-0.021,0.121-0.041,0.179-0.066
		c0.146-0.064,0.284-0.137,0.421-0.219c0.025-0.014,0.051-0.025,0.076-0.041c0.16-0.104,0.312-0.223,0.455-0.354
		c0.033-0.029,0.063-0.063,0.096-0.096c0.104-0.102,0.201-0.209,0.293-0.326c0.042-0.053,0.08-0.105,0.119-0.16
		c0.072-0.105,0.139-0.213,0.202-0.326c0.037-0.066,0.074-0.131,0.106-0.199c0.014-0.027,0.029-0.051,0.043-0.08
		c0.025-0.059,0.036-0.119,0.059-0.178c0.051-0.131,0.098-0.262,0.135-0.4c0.027-0.105,0.045-0.211,0.063-0.316
		c0.012-0.074,0.036-0.145,0.044-0.223c0.005-0.043-0.001-0.084,0.001-0.127c0.01-0.129,0.009-0.256,0.004-0.385
		c-0.003-0.111-0.006-0.223-0.02-0.334c-0.014-0.113-0.038-0.225-0.063-0.338c-0.025-0.117-0.049-0.23-0.086-0.344
		c-0.033-0.105-0.076-0.205-0.119-0.307c-0.047-0.107-0.09-0.215-0.145-0.318c-0.056-0.1-0.119-0.193-0.181-0.287
		c-0.063-0.094-0.124-0.186-0.196-0.273c-0.07-0.088-0.15-0.168-0.23-0.248c-0.081-0.084-0.162-0.164-0.25-0.238
		c-0.082-0.066-0.17-0.125-0.257-0.186c-0.104-0.072-0.211-0.143-0.324-0.201c-0.036-0.02-0.065-0.047-0.104-0.063
		c-11.551-5.607-21.608-20.584-28.572-40.568c10.774-2.232,22.837-3.969,35.294-4.859v26.576c0,1.98,1.539,3.588,3.438,3.588
		C302.139,459.961,303.678,458.354,303.678,456.373z M229.382,297.08c13.286-13.863,29.653-23.334,47.486-27.758
		c-6.179,5.646-11.82,13.582-16.665,23.604c-2.146,4.439-4.074,9.205-5.802,14.209c-9.318-2.473-17.912-5.705-25.43-9.607
		C229.112,297.381,229.241,297.227,229.382,297.08z M224.157,303.004c8.226,4.471,17.717,8.162,28.061,10.943
		c-4.718,16.063-7.357,34.359-7.651,53.473h-44.452C200.883,343.525,209.304,321.035,224.157,303.004z M224.17,439.027
		c-14.825-18.033-23.284-40.691-24.061-64.43h44.452c0.311,19.674,3.159,38.449,7.946,54.744
		C241.474,431.959,231.554,435.217,224.17,439.027z M274.597,472.084c-17.183-4.736-32.915-14.189-45.557-27.51
		c6.353-2.98,15.217-5.906,25.646-8.396C259.801,451.107,266.615,463.541,274.597,472.084z M296.8,422.666
		c-12.264,0.902-25.335,2.666-37.488,5.172c-4.701-15.803-7.552-34.158-7.871-53.24H296.8V422.666z M296.8,367.42h-45.356
		c0.296-18.605,2.884-36.35,7.489-51.834c11.92,2.672,24.748,4.193,37.867,4.42V367.42z M296.8,312.83
		c-12.366-0.221-24.436-1.625-35.653-4.082c1.562-4.428,3.291-8.645,5.198-12.59c8.412-17.4,19.119-27.67,30.455-29.406V312.83z"/>
	<path fill="none" stroke="#BCBEC0" stroke-miterlimit="10" d="M423.345,484.92l-2.45-9.721c-2.51-9.953-9.351-17.512-17.678-20.258
		l-3.15-8.746c-1.203-3.342-3.354-5.955-5.982-7.482l-7.358-86.051h0.911c4.775,0,8.66-4.053,8.66-9.033
		c0-1.557-0.38-3.023-1.047-4.303l4.498-0.43c3.242-0.307,6.172-1.918,8.247-4.537c2.077-2.617,3.047-5.92,2.73-9.301l-2.686-28.736
		c-0.172-1.838-1.653-3.238-3.423-3.238H390.69c-1.663,0-3.088,1.24-3.384,2.947l-3.021,17.352h-5.27l-5.151-30.129
		c-0.293-1.711-1.719-2.957-3.386-2.957h-16.749c-1.666,0-3.093,1.246-3.387,2.957l-5.151,30.129h-5.268l-3.021-17.352
		c-0.297-1.707-1.723-2.947-3.385-2.947h-13.927c-1.771,0-3.251,1.4-3.422,3.24l-2.693,28.813
		c-0.647,6.934,4.229,13.137,10.874,13.83l5.565,0.58c-0.599,1.229-0.943,2.611-0.943,4.082c0,4.93,3.807,8.943,8.515,9.025
		l-7.359,86.059c-2.63,1.527-4.78,4.141-5.984,7.482l-3.149,8.746c-8.327,2.746-15.168,10.305-17.678,20.258l-2.449,9.721
		c-0.273,1.074-0.05,2.221,0.602,3.102c0.65,0.883,1.656,1.398,2.725,1.398h115.826c1.066,0,2.073-0.516,2.725-1.398
		C423.395,487.141,423.616,485.994,423.345,484.92z M325.032,331.824c-2.877-0.299-4.99-2.988-4.709-5.992l2.389-25.572h7.935
		l3.021,17.352c0.297,1.707,1.723,2.947,3.385,2.947h11.019c1.667,0,3.094-1.246,3.387-2.959l5.151-30.125h10.989l5.15,30.125
		c0.295,1.713,1.721,2.959,3.388,2.959h11.02c1.661,0,3.086-1.24,3.383-2.947l3.021-17.352h7.937l2.382,25.494
		c0.138,1.465-0.283,2.896-1.183,4.031c-0.899,1.133-2.169,1.832-3.574,1.965l-28.613,2.725c-0.203,0.02-0.398,0.066-0.589,0.119
		h-18.341L325.032,331.824z M335.85,343.629c0-1.025,0.799-1.859,1.78-1.859h13.777c0.001,0,0.002,0.002,0.004,0.002
		c0.001,0,0.002-0.002,0.003-0.002h36.223c0.982,0,1.781,0.834,1.781,1.859c0,1.023-0.799,1.855-1.781,1.855H337.63
		C336.648,345.484,335.85,344.652,335.85,343.629z M385.979,424.688h-47.746l6.158-72.025h35.428L385.979,424.688z M330.582,448.719
		c0.947-2.633,2.908-4.332,4.995-4.332h17.807c1.898,0,3.438-1.607,3.438-3.588c0-1.984-1.54-3.59-3.438-3.59h-16.223l0.457-5.344
		h48.974l0.456,5.344h-16.142c-1.9,0-3.44,1.605-3.44,3.59c0,1.98,1.54,3.588,3.44,3.588h17.727c2.086,0,4.048,1.699,4.995,4.332
		l1.831,5.086h-66.708L330.582,448.719z M308.652,482.242l1.315-5.219c2.383-9.445,9.751-16.043,17.919-16.043h68.437
		c8.169,0,15.537,6.598,17.919,16.043l1.316,5.219H308.652z"/>
	<path fill="none" stroke="#BCBEC0" stroke-miterlimit="10" d="M326.7,289.959c5.717,0,10.369-4.854,10.369-10.818
		s-4.652-10.818-10.369-10.818c-5.718,0-10.369,4.854-10.369,10.818S320.982,289.959,326.7,289.959z M326.7,275.5
		c1.924,0,3.489,1.633,3.489,3.641s-1.565,3.641-3.489,3.641c-1.925,0-3.49-1.633-3.49-3.641S324.775,275.5,326.7,275.5z"/>
	<path fill="none" stroke="#BCBEC0" stroke-miterlimit="10" d="M396.957,289.959c5.717,0,10.368-4.854,10.368-10.818
		s-4.651-10.818-10.368-10.818s-10.369,4.854-10.369,10.818S391.24,289.959,396.957,289.959z M396.957,275.5
		c1.924,0,3.489,1.633,3.489,3.641s-1.565,3.641-3.489,3.641c-1.925,0-3.489-1.633-3.489-3.641S395.032,275.5,396.957,275.5z"/>
	<path fill="none" stroke="#BCBEC0" stroke-miterlimit="10" d="M362.104,278.307c5.718,0,10.369-4.854,10.369-10.818
		s-4.651-10.818-10.369-10.818c-5.717,0-10.367,4.854-10.367,10.818S356.387,278.307,362.104,278.307z M362.104,263.846
		c1.925,0,3.491,1.635,3.491,3.643s-1.566,3.641-3.491,3.641c-1.924,0-3.489-1.633-3.489-3.641S360.18,263.846,362.104,263.846z"/>
</g>
<g>
	<g>
		<g>
			<g>
				<path fill="none" stroke="#BCBEC0" stroke-miterlimit="10" d="M422.482,282.387C349.547,271.034,332.17,182.602,332,181.711
					l-0.045-0.247V80.256l90.995-32.5l90.956,32.5v101.208l-0.048,0.247c-0.167,0.891-17.544,89.323-90.438,100.676l-0.471,0.07
					L422.482,282.387z"/>
			</g>
		</g>
		<g>
			<g>
				<path fill="none" stroke="#BCBEC0" stroke-miterlimit="10" d="M422.95,50.775l88.019,31.45v98.986
					c0,0-16.335,87.221-88.019,98.38c-71.724-11.159-88.058-98.38-88.058-98.38V82.226L422.95,50.775 M422.95,44.741l-2.046,0.73
					l-88.057,31.449l-3.829,1.368v3.938v98.986v0.504l0.093,0.499c0.695,3.718,17.934,91.299,92.899,102.962l0.939,0.145
					l0.937-0.145c74.931-11.669,92.167-99.244,92.864-102.962l0.092-0.499v-0.504V82.226v-3.938l-3.832-1.368l-88.016-31.449
					L422.95,44.741L422.95,44.741z"/>
			</g>
		</g>
	</g>
	<g>
		<g>
			<path fill="#BCBEC0" stroke="#BCBEC0" stroke-miterlimit="10" d="M422.939,268.1c-57.361-10.349-74.365-79.317-76.285-88.025
				V90.107l76.285-27.26l76.283,27.26v89.967C497.317,188.718,480.325,257.745,422.939,268.1z"/>
		</g>
	</g>
	<g opacity="0.07">
		<g>
			<path fill="none" stroke="#BCBEC0" stroke-miterlimit="10" d="M510.969,82.226v98.986c0,0-16.335,87.221-88.019,98.38V50.775
				L510.969,82.226z"/>
		</g>
	</g>
</g>
<g>
	<path fill="none" stroke="#BCBEC0" stroke-miterlimit="10" d="M132.763,477.346c-1.569,1.056-3.968,2.044-7.051,2.957
		c-11.196,3.282-31.495,5.492-54.679,5.492c-23.175,0-43.474-2.21-54.673-5.492c-3.084-0.913-5.474-1.901-7.043-2.957
		c-1.416-0.929-2.182-1.92-2.182-2.946v5.903c0,6.288,28.612,11.384,63.898,11.384c35.295,0,63.911-5.096,63.911-11.384v-5.903
		C134.944,475.426,134.169,476.417,132.763,477.346z"/>
	<path fill="none" stroke="#BCBEC0" stroke-miterlimit="10" d="M71.033,463.024c-35.286,0-63.898,5.097-63.898,11.375
		c0,1.026,0.767,2.018,2.182,2.946c1.569,1.056,3.958,2.044,7.043,2.957c11.2,3.282,31.498,5.492,54.673,5.492
		c23.184,0,43.482-2.21,54.679-5.492c3.083-0.913,5.481-1.901,7.051-2.957c1.406-0.929,2.182-1.92,2.182-2.946
		C134.944,468.121,106.328,463.024,71.033,463.024z"/>
	<path fill="none" stroke="#BCBEC0" stroke-miterlimit="10" d="M71.042,412.964c-4.103,0-7.431,3.567-7.421,7.976v48.614
		c-0.009,2.889,3.319,4.846,7.421,4.846c4.094,0,7.422-1.898,7.422-4.846v-48.614C78.464,416.531,75.136,412.964,71.042,412.964z"/>
	<path fill="none" stroke="#BCBEC0" stroke-miterlimit="10" d="M-28.043,293.932c0,25.455,0,50.912,0,76.377
		c0,25.466,0,50.921,0,76.378c65.594-11.84,132.568-11.84,198.155,0c0-25.457,0-50.912,0-76.378c0-25.465,0-50.922,0-76.377
		C104.525,305.771,37.551,305.771-28.043,293.932z"/>
	<path fill="none" stroke="#BCBEC0" stroke-miterlimit="10" d="M-40.947,277.574c0,30.912,0,61.822,0,92.734s0,61.823,0,92.745
		c73.989-15.165,149.98-15.165,223.974,0c0-30.922,0-61.833,0-92.745s0-61.822,0-92.734
		C109.033,292.739,33.042,292.739-40.947,277.574z M170.112,446.687c-65.587-11.84-132.561-11.84-198.155,0
		c0-25.457,0-50.912,0-76.378c0-25.465,0-50.922,0-76.377c65.594,11.84,132.568,11.84,198.155,0c0,25.455,0,50.912,0,76.377
		C170.112,395.774,170.112,421.229,170.112,446.687z"/>
	<polygon fill="none" stroke="#BCBEC0" stroke-miterlimit="10" points="-45.465,463.045 -40.947,463.054 -40.947,277.574 
		-45.465,277.574 	"/>
	<rect x="183.027" y="277.574" fill="none" stroke="#BCBEC0" stroke-miterlimit="10" width="4.508" height="185.479"/>
</g>
<g>
	<polygon fill="none" stroke="#BCBEC0" stroke-miterlimit="10" points="-286.585,-36.816 -324.084,-36.816 -361.573,-36.816 
		-375.35,-6.123 -324.084,-6.123 -272.8,-6.123 	"/>
	<path fill="none" stroke="#BCBEC0" stroke-miterlimit="10" d="M-438.443,115.481c0,8.109,7.25,14.734,16.103,14.734h196.519
		c8.857,0,16.112-6.625,16.112-14.734V100.72h-228.734V115.481z"/>
	<path fill="none" stroke="#BCBEC0" stroke-miterlimit="10" d="M-209.709,8.609c0-8.106-7.255-14.732-16.112-14.732H-422.34
		c-8.854,0-16.103,6.625-16.103,14.732v14.773h228.734V8.609z"/>
	<rect x="-438.443" y="23.382" fill="none" stroke="#BCBEC0" stroke-miterlimit="10" width="228.734" height="77.337"/>
	<path fill="#BCBEC0" stroke="#BCBEC0" stroke-miterlimit="10" d="M-324.084,9.987c-31.429,0-56.919,23.315-56.919,52.057
		c0,28.754,25.49,52.063,56.919,52.063c31.446,0,56.938-23.309,56.938-52.063C-267.146,33.302-292.638,9.987-324.084,9.987z
		 M-324.084,101.958c-24.104,0-43.65-17.865-43.65-39.914c0-22.046,19.546-39.919,43.65-39.919
		c24.113,0,43.661,17.873,43.661,39.919C-280.423,84.093-299.971,101.958-324.084,101.958z"/>
	<path fill="none" stroke="#BCBEC0" stroke-miterlimit="10" d="M-324.084,22.125c-24.104,0-43.65,17.873-43.65,39.919
		c0,22.049,19.546,39.914,43.65,39.914c24.113,0,43.661-17.865,43.661-39.914C-280.423,39.998-299.971,22.125-324.084,22.125z
		 M-324.084,94.589c-19.643,0-35.582-14.572-35.582-32.545c0-17.972,15.938-32.541,35.582-32.541
		c19.664,0,35.59,14.569,35.59,32.541C-288.494,80.017-304.42,94.589-324.084,94.589z"/>
	<rect x="-415.567" y="-14.193" fill="none" stroke="#BCBEC0" stroke-miterlimit="10" width="27.812" height="8.07"/>
	<polygon fill="none" stroke="#BCBEC0" stroke-miterlimit="10" points="-351.353,-27.145 -351.353,-6.044 -335.618,-6.044 
		-312.528,-27.145 	"/>
	<polygon fill="none" stroke="#BCBEC0" stroke-miterlimit="10" points="-335.618,-6.044 -296.797,-6.044 -296.797,-27.145 
		-312.528,-27.145 	"/>
	<path fill="#BCBEC0" stroke="#BCBEC0" stroke-miterlimit="10" d="M-324.084,29.503c-19.643,0-35.582,14.569-35.582,32.541
		c0,8.984,3.977,17.127,10.421,23.016l50.339-46.026C-305.353,33.143-314.251,29.503-324.084,29.503z"/>
	<path fill="#BCBEC0" stroke="#BCBEC0" stroke-miterlimit="10" d="M-349.244,85.06c6.446,5.889,15.337,9.529,25.16,9.529
		c19.664,0,35.59-14.572,35.59-32.545c0-8.989-3.977-17.121-10.411-23.011L-349.244,85.06z"/>
	<path fill="none" stroke="#BCBEC0" stroke-miterlimit="10" d="M-237.501,8.624c0,4.235-3.762,7.672-8.396,7.672
		c-4.624,0-8.384-3.437-8.384-7.672c0-4.234,3.76-7.669,8.384-7.669C-241.263,0.954-237.501,4.39-237.501,8.624z"/>
</g>
<g>
	<g>
		<g>
			<polygon fill="none" stroke="#BCBEC0" stroke-miterlimit="10" points="339.979,-33.615 318.942,31.824 256.702,31.824 
				301.396,-33.615 			"/>
		</g>
	</g>
	<g>
		<g>
			<polygon fill="none" stroke="#BCBEC0" stroke-miterlimit="10" points="428.407,31.824 318.942,31.824 339.979,-33.615 
				407.37,-33.615 			"/>
		</g>
	</g>
	<g>
		<g>
			<polygon fill="none" stroke="#BCBEC0" stroke-miterlimit="10" points="490.647,31.824 428.407,31.824 407.37,-33.615 
				445.954,-33.615 			"/>
		</g>
	</g>
	<g>
		<g>
			<polygon fill="none" stroke="#BCBEC0" stroke-miterlimit="10" points="490.647,31.824 373.675,176.152 428.407,31.824 			"/>
		</g>
	</g>
	<g>
		<g>
			<polygon fill="none" stroke="#BCBEC0" stroke-miterlimit="10" points="373.675,176.152 256.702,31.824 318.942,31.824 			"/>
		</g>
	</g>
	<g>
		<g>
			<polygon fill="none" stroke="#BCBEC0" stroke-miterlimit="10" points="428.407,31.824 373.675,176.152 318.942,31.824 			"/>
		</g>
	</g>
</g>
<g>
	<path fill="none" stroke="#BCBEC0" stroke-miterlimit="10" d="M-289.877,226.029c1.787,0.825,3.938,0.104,4.799-1.613
		c3.859-7.696,8.739-14.827,14.476-21.253c8.352,4.169,17.983,7.61,28.474,10.21c-1.617,5.109-3.025,10.518-4.185,16.217
		c-0.379,1.869,0.893,3.681,2.841,4.045c0.233,0.043,0.464,0.064,0.693,0.064c1.686,0,3.19-1.143,3.525-2.789
		c1.142-5.615,2.539-10.947,4.152-15.959c12.101,2.488,25.116,3.906,38.427,4.125v2.717c0,1.904,1.61,3.449,3.595,3.449
		c1.986,0,3.596-1.545,3.596-3.449v-2.717c13.312-0.219,26.328-1.637,38.429-4.125c0.992,3.086,1.906,6.293,2.729,9.621
		c0.457,1.855,2.392,3.002,4.327,2.563c1.933-0.438,3.128-2.296,2.671-4.15c-0.815-3.3-1.718-6.505-2.705-9.608
		c10.494-2.601,20.128-6.045,28.483-10.216c5.945,6.664,10.97,14.082,14.891,22.103c0.611,1.251,1.906,1.985,3.258,1.985
		c0.511,0,1.031-0.105,1.524-0.326c1.799-0.811,2.571-2.864,1.728-4.588c-4.605-9.42-10.63-18.064-17.826-25.713
		c-0.023-0.028-0.049-0.054-0.074-0.08c-6.361-6.748-13.632-12.72-21.688-17.729c-17.67-10.989-38.189-16.797-59.341-16.797
		c-20.968,0-41.335,5.715-58.904,16.527c-8.227,5.063-15.653,11.13-22.134,18.008c-0.019,0.02-0.039,0.04-0.058,0.061
		c-6.966,7.403-12.836,15.745-17.384,24.817C-292.42,223.144-291.668,225.205-289.877,226.029z M-232.795,208.379
		c8.587-22.423,21.81-37.074,36.12-39.195v42.994C-209.202,211.968-221.425,210.66-232.795,208.379z M-189.484,212.178V169.18
		c14.274,2.107,27.499,16.657,36.117,39.199C-164.736,210.66-176.96,211.968-189.484,212.178z M-137.65,184.6
		c6.201,3.857,11.906,8.323,17.05,13.301c-7.605,3.619-16.288,6.624-25.703,8.926c-4.019-10.708-9.092-19.96-14.999-27.244
		c-2.444-3.013-5.006-5.645-7.659-7.9C-157.889,174.256-147.312,178.592-137.65,184.6z M-248.1,184.348
		c9.539-5.871,19.965-10.12,30.869-12.659c-9.086,7.718-16.904,19.771-22.643,35.134c-9.404-2.301-18.079-5.303-25.68-8.92
		C-260.294,192.814-254.456,188.258-248.1,184.348z"/>
	<path fill="none" stroke="#BCBEC0" stroke-miterlimit="10" d="M-99.765,336.004c-1.72-0.955-3.919-0.391-4.914,1.26
		c-3.146,5.223-6.791,10.137-10.861,14.697c-7.973-4.059-19.54-9.02-33.101-12.025c-0.049-0.012-0.096-0.01-0.144-0.02
		c-0.127-0.023-0.252-0.035-0.378-0.045c-0.112-0.01-0.224-0.018-0.333-0.014c-0.125,0-0.247,0.012-0.369,0.025
		c-0.11,0.01-0.218,0.025-0.326,0.047c-0.119,0.023-0.236,0.059-0.354,0.094c-0.101,0.031-0.202,0.063-0.301,0.104
		c-0.115,0.045-0.226,0.102-0.333,0.158c-0.092,0.049-0.183,0.096-0.269,0.152c-0.104,0.068-0.202,0.143-0.3,0.221
		c-0.081,0.064-0.16,0.127-0.235,0.201c-0.088,0.08-0.166,0.172-0.243,0.264c-0.073,0.084-0.143,0.166-0.206,0.258
		c-0.064,0.094-0.119,0.191-0.177,0.291c-0.059,0.105-0.114,0.209-0.161,0.32c-0.02,0.045-0.047,0.082-0.063,0.129
		c-9.437,24.979-23.207,41.262-36.653,43.768v-25.248c0-1.906-1.609-3.451-3.596-3.451c-1.985,0-3.595,1.545-3.595,3.451v25.246
		c-13.406-2.512-27.133-18.793-36.542-43.764c-0.015-0.045-0.043-0.082-0.062-0.125c-0.048-0.113-0.103-0.221-0.164-0.326
		c-0.053-0.098-0.109-0.191-0.171-0.281c-0.066-0.098-0.139-0.186-0.215-0.273c-0.074-0.086-0.149-0.172-0.23-0.25
		c-0.081-0.078-0.165-0.146-0.252-0.217c-0.091-0.07-0.183-0.143-0.279-0.205c-0.094-0.061-0.192-0.113-0.291-0.164
		c-0.102-0.055-0.204-0.107-0.312-0.15c-0.105-0.043-0.212-0.076-0.321-0.109c-0.112-0.035-0.221-0.066-0.335-0.09
		c-0.111-0.023-0.224-0.037-0.339-0.049c-0.12-0.014-0.238-0.025-0.358-0.025c-0.113-0.004-0.225,0.004-0.338,0.014
		c-0.125,0.01-0.25,0.021-0.375,0.045c-0.048,0.01-0.095,0.006-0.144,0.018c-11.112,2.447-22.528,6.604-33.206,12.041
		c-4.074-4.564-7.725-9.484-10.874-14.711c-0.994-1.65-3.192-2.215-4.912-1.26c-1.72,0.951-2.309,3.063-1.314,4.711
		c3.879,6.439,8.469,12.443,13.646,17.928c0.044,0.045,0.083,0.094,0.127,0.137c7.377,7.789,15.951,14.52,25.449,19.893
		c16.726,9.463,35.885,14.463,55.406,14.463c19.523,0,38.682-5,55.406-14.463c9.497-5.373,18.073-12.105,25.448-19.893
		c0.046-0.043,0.085-0.09,0.127-0.135c5.179-5.486,9.77-11.49,13.648-17.93C-97.457,339.066-98.046,336.955-99.765,336.004z
		 M-244.832,372.73c-7.604-4.301-14.579-9.527-20.754-15.512c8.659-4.264,17.776-7.605,26.741-9.83
		c6.503,16.26,14.77,28.764,23.858,36.561C-225.467,381.746-235.553,377.98-244.832,372.73z M-141.327,372.73
		c-9.28,5.25-19.368,9.018-29.85,11.221c1.94-1.664,3.848-3.529,5.711-5.625c6.975-7.844,13.253-18.5,18.26-30.947
		c10.618,2.652,19.809,6.482,26.631,9.842C-126.751,363.205-133.726,368.43-141.327,372.73z"/>
	<path fill="none" stroke="#BCBEC0" stroke-miterlimit="10" d="M-191.857,323.16c-2.253-2.16-5.241-3.357-8.422-3.389
		c-0.032-2.928-1.204-5.844-3.527-8.072c-2.325-2.23-5.37-3.354-8.423-3.385c-0.031-2.928-1.203-5.848-3.527-8.078
		c-2.251-2.158-5.237-3.357-8.416-3.389c-0.033-3.049-1.282-5.912-3.534-8.072c-2.281-2.188-5.314-3.393-8.542-3.393
		c-3.228,0-6.261,1.205-8.543,3.393l-5.07,4.863c-2.282,2.189-3.539,5.1-3.539,8.193c0,3.098,1.257,6.006,3.539,8.195
		c2.252,2.158,5.238,3.357,8.416,3.389c0.033,3.049,1.282,5.912,3.533,8.072c2.253,2.16,5.241,3.357,8.423,3.389
		c0.032,2.928,1.205,5.846,3.527,8.074c2.325,2.229,5.369,3.354,8.422,3.383c0.03,2.928,1.203,5.848,3.527,8.078
		c2.283,2.189,5.316,3.395,8.542,3.395c3.229,0,6.262-1.207,8.543-3.395l3.436-3.295c2.271,2.137,5.265,3.314,8.452,3.314
		c3.227,0,6.26-1.205,8.542-3.393c1.707-1.641,2.842-3.682,3.304-5.904c0.864,0.188,1.756,0.293,2.664,0.293
		c3.228,0,6.262-1.205,8.544-3.395c1.636-1.57,2.735-3.516,3.231-5.631c1.029,0.266,2.086,0.408,3.146,0.408
		c3.094,0,6.187-1.129,8.542-3.389c3.964-3.803,4.579-9.605,1.872-14.043c1.66-0.557,3.222-1.455,4.546-2.727
		c4.71-4.518,4.71-11.869,0-16.387l-29.104-27.913c-1.403-1.347-3.679-1.347-5.084,0s-1.405,3.53,0,4.877l29.101,27.913
		c1.907,1.83,1.907,4.803,0,6.633c-1.734,1.664-4.45,1.797-6.363,0.432l-0.038-0.035c-0.171-0.166-0.356-0.309-0.55-0.432
		l-16.231-15.57c-1.404-1.348-3.682-1.348-5.086,0s-1.404,3.531,0,4.877l16.27,15.605c0.308,0.297,0.631,0.57,0.963,0.828
		l4.62,4.432c1.907,1.828,1.907,4.805,0,6.633c-1.905,1.828-5.008,1.83-6.915,0l-2.062-1.979c-0.27-0.318-0.553-0.627-0.858-0.92
		l-17.994-17.26c-1.403-1.346-3.68-1.346-5.085,0c-1.403,1.348-1.403,3.531,0,4.879l15.396,14.766
		c0.13,0.186,0.277,0.361,0.448,0.527l2.614,2.508c0.618,0.801,0.968,1.758,0.968,2.771c0,1.254-0.51,2.432-1.433,3.316
		c-0.923,0.887-2.15,1.375-3.458,1.375c-1.305,0-2.532-0.488-3.456-1.375l-1.653-1.584c-0.269-0.318-0.553-0.627-0.857-0.918
		l-15.94-15.291c-1.404-1.346-3.681-1.346-5.086,0c-1.403,1.348-1.403,3.531,0,4.879l12.93,12.402
		c0.13,0.186,0.278,0.363,0.449,0.527l3.024,2.9c0.619,0.803,0.968,1.758,0.968,2.775c0,1.252-0.509,2.43-1.433,3.314
		c-0.923,0.887-2.15,1.375-3.456,1.375c-1.308,0-2.534-0.488-3.458-1.375l-0.642-0.613c0.532-1.322,0.821-2.734,0.821-4.193
		C-188.318,328.26-189.575,325.35-191.857,323.16z M-246.208,301.832c0-1.252,0.508-2.43,1.432-3.316l5.071-4.863
		c0.923-0.885,2.151-1.373,3.458-1.373c1.305,0,2.533,0.488,3.458,1.373c0.923,0.887,1.433,2.064,1.433,3.316
		c0,1.096-0.409,2.119-1.122,2.955c-0.12,0.105-0.246,0.203-0.361,0.313l-5.071,4.865c-0.116,0.109-0.216,0.23-0.326,0.344
		c-0.873,0.686-1.94,1.076-3.081,1.076c-1.307,0-2.535-0.486-3.458-1.373C-245.7,304.264-246.208,303.086-246.208,301.832z
		 M-234.259,313.295c0-1.096,0.409-2.119,1.124-2.955c0.118-0.105,0.243-0.203,0.359-0.313l5.071-4.865h-0.001
		c0.116-0.109,0.216-0.229,0.326-0.344c0.871-0.686,1.941-1.076,3.082-1.076c1.306,0,2.534,0.486,3.457,1.373
		c1.794,1.719,1.877,4.441,0.298,6.283c-0.114,0.102-0.236,0.193-0.349,0.301l-5.07,4.863c-0.115,0.111-0.214,0.229-0.323,0.344
		c-0.872,0.686-1.942,1.078-3.083,1.078c-1.307,0-2.535-0.486-3.458-1.373C-233.75,315.725-234.259,314.547-234.259,313.295z
		 M-221.181,321.795c0.116-0.104,0.24-0.197,0.353-0.307l5.072-4.863c0.001,0,0.001,0,0.001,0c0.115-0.111,0.212-0.23,0.321-0.342
		c0.871-0.688,1.942-1.082,3.085-1.082c1.306,0,2.534,0.488,3.457,1.375c1.792,1.719,1.878,4.438,0.304,6.277
		c-0.118,0.104-0.242,0.199-0.354,0.307l-5.07,4.865c-0.113,0.107-0.209,0.225-0.316,0.334c-1.919,1.514-4.755,1.432-6.548-0.287
		C-222.669,326.355-222.755,323.637-221.181,321.795z M-205.471,340.906c-1.305,0-2.533-0.486-3.456-1.371
		c-1.793-1.721-1.878-4.441-0.298-6.283c0.116-0.102,0.236-0.193,0.349-0.301l5.071-4.865c0.115-0.109,0.214-0.229,0.323-0.344
		c0.872-0.686,1.94-1.078,3.083-1.078c1.307,0,2.535,0.488,3.458,1.373c0.923,0.887,1.432,2.064,1.432,3.316
		c0,1.254-0.509,2.432-1.432,3.316l0,0l-5.072,4.865C-202.937,340.42-204.164,340.906-205.471,340.906z"/>
	<path fill="none" stroke="#BCBEC0" stroke-miterlimit="10" d="M-81.39,315.43h-16.215v-63.16h16.215
		c1.986,0,3.597-1.543,3.597-3.449c0-1.904-1.61-3.447-3.597-3.447h-19.812h-18.769c-1.986,0-3.598,1.543-3.598,3.447v5.133h-14.288
		l-11.091-15.571c-2.273-3.191-6.036-5.097-10.067-5.097h-25.535c-3.256,0-6.318,1.217-8.622,3.425l-5.284,5.069h-21.203
		c-7.366,0-14.291,2.75-19.5,7.746l-3.894,3.734h-19.583v-4.439c0-1.904-1.61-3.447-3.597-3.447h-18.769h-19.812
		c-1.987,0-3.597,1.543-3.597,3.447c0,1.906,1.61,3.449,3.597,3.449h16.215v63.16h-16.215c-1.987,0-3.597,1.545-3.597,3.449
		s1.61,3.449,3.597,3.449h19.812h18.769c1.987,0,3.597-1.545,3.597-3.449v-3.629h6.798c1.987,0,3.597-1.545,3.597-3.449
		s-1.61-3.449-3.597-3.449h-6.798v-48.194h21.072c0.953,0,1.868-0.363,2.542-1.01l4.948-4.744c3.849-3.692,8.968-5.727,14.413-5.727
		h14.012l-4.013,3.851c-2.576,2.469-3.994,5.753-3.994,9.246c0,3.492,1.418,6.775,3.993,9.245s5.998,3.831,9.641,3.831
		c3.64,0,7.063-1.361,9.64-3.831l12.813-12.29h14.561c1.987,0,3.598-1.545,3.598-3.449s-1.61-3.449-3.598-3.449h-16.05
		c-0.955,0-1.869,0.363-2.544,1.012l-13.866,13.299c-1.217,1.167-2.835,1.811-4.554,1.811c-1.721,0-3.338-0.644-4.556-1.811
		c-1.216-1.166-1.887-2.718-1.887-4.367c0-1.65,0.67-3.202,1.888-4.369l10.151-9.736c0.001-0.002,0.001-0.002,0.002-0.002
		l6.336-6.078c0.945-0.906,2.202-1.404,3.536-1.404h25.535c1.654,0,3.196,0.78,4.13,2.09l12.163,17.076
		c0.669,0.939,1.78,1.502,2.967,1.502h16.187v47.5h-14.088c-1.984,0-3.595,1.545-3.595,3.449s1.61,3.449,3.595,3.449h14.088v3.629
		c0,1.904,1.611,3.449,3.598,3.449h18.769h19.812c1.986,0,3.597-1.545,3.597-3.449S-79.403,315.43-81.39,315.43z M-269.825,315.43
		h-11.577v-63.16h11.577V315.43z M-116.374,252.27h11.577v63.16h-11.577V252.27z"/>
</g>
<g>
	<path fill="none" stroke="#6D6E71" stroke-width="3" stroke-miterlimit="10" d="M214.479,136.866
		c-0.049-0.063-0.103-0.122-0.156-0.183c-3.108-3.61-6.421-7.053-9.946-10.296c-1.505-1.386-3.795-1.226-5.114,0.354
		c-1.319,1.584-1.167,3.988,0.339,5.373c2.138,1.965,4.189,4.011,6.166,6.124c-2.242,1.183-4.57,2.322-6.983,3.396
		c-1.843,0.821-2.702,3.056-1.921,4.991c0.585,1.45,1.927,2.319,3.337,2.319c0.473,0,0.952-0.098,1.414-0.301
		c3.218-1.435,6.313-2.972,9.244-4.582c12.8,15.65,21.473,34.52,25.187,54.704h-49.36c-0.727-8.296-1.851-16.422-3.387-24.293
		c-0.402-2.06-2.32-3.387-4.279-2.964c-1.96,0.421-3.224,2.433-2.821,4.493c1.439,7.378,2.508,14.987,3.214,22.764h-50.438v-23.529
		c0-2.102-1.622-3.806-3.624-3.806c-2.001,0-3.624,1.704-3.624,3.806v23.529H71.289c0.705-7.776,1.773-15.386,3.214-22.767
		c0.401-2.06-0.862-4.069-2.823-4.493c-1.958-0.418-3.876,0.907-4.278,2.967c-1.537,7.871-2.659,15.997-3.387,24.293H14.648
		c3.711-20.194,12.386-39.054,25.194-54.704c2.966,1.631,6.1,3.184,9.358,4.632c0.461,0.205,0.94,0.303,1.412,0.303
		c1.412,0,2.754-0.873,3.338-2.325c0.78-1.935-0.082-4.169-1.925-4.988c-2.454-1.089-4.821-2.249-7.098-3.446
		c2.155-2.306,4.406-4.524,6.753-6.655c1.515-1.373,1.682-3.777,0.373-5.368c-1.309-1.592-3.596-1.767-5.111-0.394
		c-3.76,3.412-7.282,7.048-10.574,10.871c-0.047,0.053-0.096,0.104-0.14,0.16C16.463,159.88,5.354,189.863,5.354,221.227
		c0,2.103,1.622,3.807,3.624,3.807c2.001,0,3.624-1.704,3.624-3.807c0-4.994,0.31-9.952,0.897-14.845h49.97
		c-0.279,4.898-0.438,9.849-0.438,14.845c0,2.103,1.622,3.807,3.625,3.807c2.001,0,3.624-1.704,3.624-3.807
		c0-4.999,0.162-9.949,0.45-14.845h50.996v14.845c0,2.103,1.623,3.807,3.624,3.807c2.002,0,3.624-1.704,3.624-3.807v-14.845h50.996
		c0.289,4.896,0.45,9.846,0.45,14.845c0,2.103,1.622,3.807,3.623,3.807c2.002,0,3.625-1.704,3.625-3.807
		c0-4.996-0.157-9.946-0.438-14.845h49.968c0.59,4.896,0.898,9.851,0.898,14.845c0,2.103,1.623,3.807,3.624,3.807
		s3.624-1.704,3.624-3.807C245.345,189.904,234.232,159.895,214.479,136.866z"/>
	<path fill="none" stroke="#6D6E71" stroke-width="3" stroke-miterlimit="10" d="M49.311,157.599c-2.001,0-3.624,1.705-3.624,3.808
		c0,2.101,1.622,3.806,3.624,3.806H62.01h20.583h14.923h20.584h14.924h20.583h14.923h20.585h11.083c2.002,0,3.625-1.705,3.625-3.806
		c0-2.103-1.623-3.808-3.625-3.808h-7.459V61.868c0-2.101-1.623-3.804-3.624-3.804H168.53c-2.001,0-3.623,1.703-3.623,3.804v95.731
		h-7.676V20.995c0-2.103-1.623-3.807-3.624-3.807h-20.583c-2.002,0-3.624,1.705-3.624,3.807v136.604h-7.676V66.944
		c0-2.103-1.622-3.808-3.624-3.808H97.517c-2.002,0-3.624,1.705-3.624,3.808v90.654h-7.675v-56.291c0-2.101-1.622-3.805-3.625-3.805
		H62.01c-2.001,0-3.624,1.705-3.624,3.805v56.291H49.311z M172.155,65.675h13.335v91.923h-13.335V65.675z M136.648,24.801h13.335
		v132.798h-13.335V24.801z M101.141,70.75h13.335v86.848h-13.335V70.75z M65.634,105.115H78.97v52.484H65.634V105.115z"/>
</g>
</svg>
