<?xml version="1.0" encoding="utf-8"?>
<!-- Generator: Adobe Illustrator 16.0.0, SVG Export Plug-In . SVG Version: 6.00 Build 0)  -->
<!DOCTYPE svg PUBLIC "-//W3C//DTD SVG 1.1//EN" "http://www.w3.org/Graphics/SVG/1.1/DTD/svg11.dtd">
<svg version="1.1" id="Layer_1" xmlns="http://www.w3.org/2000/svg" xmlns:xlink="http://www.w3.org/1999/xlink" x="0px" y="0px"
	 width="250px" height="250px" viewBox="0 0 250 250" enable-background="new 0 0 250 250" xml:space="preserve">
<g>
	<g>
		<g>
			
				<rect x="124.828" y="13.464" fill="none" stroke="#6D6E71" stroke-width="3" stroke-miterlimit="10" width="3.443" height="22.99"/>
		</g>
	</g>
	<g>
		<g>
			<path fill="none" stroke="#6D6E71" stroke-width="3" stroke-miterlimit="10" d="M182.168,104.246
				c0,1.311-0.041,2.623-0.124,3.933c-0.184,3.125-0.607,6.208-1.24,9.181H72.294c-0.632-2.974-1.058-6.056-1.242-9.181
				c-0.081-1.31-0.122-2.622-0.122-3.933c0-1.092,0.02-2.185,0.102-3.277c1.424-28.564,21.547-51.795,47.491-55.839
				c2.624-0.392,5.309-0.612,8.037-0.612c2.728,0,5.391,0.22,8.016,0.612c25.924,4.022,46.066,27.275,47.488,55.839
				C182.145,102.061,182.168,103.154,182.168,104.246z"/>
		</g>
	</g>
	<g>
		<g>
			<g>
				
					<rect x="44.704" y="163.998" fill="none" stroke="#6D6E71" stroke-width="3" stroke-miterlimit="10" width="13.896" height="41.15"/>
			</g>
		</g>
		<g>
			<g>
				
					<rect x="74.655" y="163.998" fill="none" stroke="#6D6E71" stroke-width="3" stroke-miterlimit="10" width="13.916" height="41.15"/>
			</g>
		</g>
		<g>
			<g>
				
					<rect x="104.626" y="163.998" fill="none" stroke="#6D6E71" stroke-width="3" stroke-miterlimit="10" width="13.896" height="41.15"/>
			</g>
		</g>
		<g>
			<g>
				
					<rect x="134.575" y="163.998" fill="none" stroke="#6D6E71" stroke-width="3" stroke-miterlimit="10" width="13.916" height="41.15"/>
			</g>
		</g>
		<g>
			<g>
				
					<rect x="164.547" y="163.998" fill="none" stroke="#6D6E71" stroke-width="3" stroke-miterlimit="10" width="13.896" height="41.15"/>
			</g>
		</g>
		<g>
			<g>
				
					<rect x="194.498" y="163.998" fill="none" stroke="#6D6E71" stroke-width="3" stroke-miterlimit="10" width="13.916" height="41.15"/>
			</g>
		</g>
	</g>
	<g>
		<g>
			<g>
				
					<rect x="59.678" y="117.36" fill="none" stroke="#6D6E71" stroke-width="3" stroke-miterlimit="10" width="13.897" height="30.246"/>
			</g>
		</g>
		<g>
			<g>
				
					<rect x="89.649" y="117.36" fill="none" stroke="#6D6E71" stroke-width="3" stroke-miterlimit="10" width="13.896" height="30.246"/>
			</g>
		</g>
		<g>
			<g>
				
					<rect x="119.601" y="117.36" fill="none" stroke="#6D6E71" stroke-width="3" stroke-miterlimit="10" width="13.896" height="30.246"/>
			</g>
		</g>
		<g>
			<g>
				
					<rect x="149.572" y="117.36" fill="none" stroke="#6D6E71" stroke-width="3" stroke-miterlimit="10" width="13.896" height="30.246"/>
			</g>
		</g>
		<g>
			<g>
				
					<rect x="179.521" y="117.36" fill="none" stroke="#6D6E71" stroke-width="3" stroke-miterlimit="10" width="13.897" height="30.246"/>
			</g>
		</g>
	</g>
	<g>
		<g>
			<path fill="none" stroke="#6D6E71" stroke-width="3" stroke-miterlimit="10" d="M223.878,215.705v5.836H29.218v-5.836
				c0-0.811,0.083-1.596,0.266-2.361c0.976-4.699,4.903-8.195,9.582-8.195h174.983c4.681,0,8.588,3.496,9.564,8.195
				C223.796,214.109,223.878,214.895,223.878,215.705z"/>
		</g>
	</g>
	<g>
		<g>
			<path fill="none" stroke="#6D6E71" stroke-width="3" stroke-miterlimit="10" d="M223.878,155.801c0,4.523-3.42,8.197-7.631,8.197
				H36.85c-2.095,0-4.008-0.92-5.392-2.404c-1.384-1.486-2.239-3.541-2.239-5.793c0-0.131,0-0.283,0.02-0.414
				c0.205-4.326,3.522-7.781,7.611-7.781h179.397c2.117,0,4.009,0.918,5.392,2.406c1.304,1.396,2.137,3.277,2.219,5.375
				C223.878,155.518,223.878,155.67,223.878,155.801z"/>
		</g>
	</g>
	<g>
		<g>
			<path fill="none" stroke="#6D6E71" stroke-width="3" stroke-miterlimit="10" d="M210.408,109.163
				c0,4.525-3.397,8.197-7.633,8.197H50.318c-2.095,0-4.008-0.919-5.392-2.406c-1.381-1.484-2.237-3.538-2.237-5.792
				c0-0.326,0.021-0.655,0.06-0.984c0.446-4.063,3.662-7.21,7.569-7.21h152.457c2.119,0,4.032,0.918,5.415,2.402
				c1.159,1.269,1.954,2.951,2.156,4.808C210.389,108.507,210.408,108.837,210.408,109.163z"/>
		</g>
	</g>
	<g>
		<g>
			<path fill="none" stroke="#6D6E71" stroke-width="3" stroke-miterlimit="10" d="M238.222,237.799v0.133H14.894v-0.133
				c0-6.863,3.947-12.717,9.544-15.123c1.729-0.723,3.621-1.135,5.595-1.135h193.052c1.138,0,2.236,0.131,3.294,0.391
				C233.156,223.549,238.222,230.041,238.222,237.799z"/>
		</g>
	</g>
	<g>
		<g>
			<path fill="none" stroke="#6D6E71" stroke-width="3" stroke-miterlimit="10" d="M134.575,41.131v6.381h-16.053v-6.381
				c0-4.13,2.705-7.585,6.305-8.436c0.572-0.13,1.142-0.195,1.732-0.195c0.589,0,1.159,0.065,1.711,0.195
				C131.867,33.524,134.575,37,134.575,41.131z"/>
		</g>
	</g>
	<g>
		<g>
			<path fill="none" stroke="#6D6E71" stroke-width="3" stroke-miterlimit="10" d="M155.53,26.218
				c-9.086-5.074-18.176,5.075-27.26,0c0-4.226,0-8.455,0-12.684c9.084,5.074,18.174-5.074,27.26,0
				C155.53,17.764,155.53,21.992,155.53,26.218z"/>
		</g>
	</g>
	<g opacity="0.07">
		<g>
			<path fill="none" stroke="#6D6E71" stroke-width="3" stroke-miterlimit="10" d="M182.063,100.969H126.56V32.5h1.711v0.195
				c3.597,0.829,6.305,4.306,6.305,8.436v3.999C160.499,49.151,180.642,72.405,182.063,100.969z"/>
		</g>
	</g>
	<g opacity="0.07">
		<g>
			<path fill="none" stroke="#6D6E71" stroke-width="3" stroke-miterlimit="10" d="M210.408,109.163
				c0,4.525-3.397,8.197-7.633,8.197h-9.356v8.021h-13.897v-8.021h-16.054v8.021h-13.896v-8.021h-16.076v8.021h-13.896v-8.021
				h-16.055v8.021H89.649v-8.021H73.575v8.021H59.678v-8.021h-9.359c-2.095,0-4.008-0.919-5.392-2.406
				c-1.381-1.484-2.237-3.538-2.237-5.792c0-0.326,0.021-0.655,0.06-0.984h167.597C210.389,108.507,210.408,108.837,210.408,109.163
				z"/>
		</g>
	</g>
	<g opacity="0.07">
		<g>
			<path fill="none" stroke="#6D6E71" stroke-width="3" stroke-miterlimit="10" d="M223.878,155.801c0,4.523-3.42,8.197-7.631,8.197
				h-7.833v8.586h-13.916v-8.586h-16.056v8.586h-13.896v-8.586h-16.056v8.586h-13.916v-8.586h-16.053v8.586h-13.896v-8.586H88.571
				v8.586H74.655v-8.586H58.6v8.586H44.704v-8.586H36.85c-2.095,0-4.008-0.92-5.392-2.404c-1.384-1.486-2.239-3.541-2.239-5.793
				c0-0.131,0-0.283,0.02-0.414h194.619C223.878,155.518,223.878,155.67,223.878,155.801z"/>
		</g>
	</g>
	<g opacity="0.07">
		<g>
			<path fill="none" stroke="#6D6E71" stroke-width="3" stroke-miterlimit="10" d="M223.878,215.705v5.836H29.218v-5.836
				c0-0.811,0.083-1.596,0.266-2.361h194.129C223.796,214.109,223.878,214.895,223.878,215.705z"/>
		</g>
	</g>
</g>
<g>
	<polygon fill="none" stroke="#BCBEC0" stroke-miterlimit="10" points="322.366,140.368 309.233,140.368 296.104,140.368 
		291.279,150.338 309.233,150.338 327.195,150.338 	"/>
	<path fill="none" stroke="#BCBEC0" stroke-miterlimit="10" d="M269.183,189.839c0,2.633,2.539,4.785,5.64,4.785h68.826
		c3.102,0,5.643-2.152,5.643-4.785v-4.796h-80.108V189.839z"/>
	<path fill="none" stroke="#BCBEC0" stroke-miterlimit="10" d="M349.291,155.123c0-2.633-2.541-4.785-5.643-4.785h-68.826
		c-3.101,0-5.64,2.152-5.64,4.785v4.799h80.108V155.123z"/>
	<rect x="269.183" y="159.922" fill="none" stroke="#BCBEC0" stroke-miterlimit="10" width="80.108" height="25.121"/>
	<path fill="none" stroke="#BCBEC0" stroke-miterlimit="10" d="M309.233,155.571c-11.007,0-19.934,7.573-19.934,16.909
		c0,9.34,8.927,16.91,19.934,16.91c11.015,0,19.941-7.57,19.941-16.91C329.175,163.145,320.248,155.571,309.233,155.571z
		 M309.233,185.445c-8.441,0-15.287-5.803-15.287-12.965c0-7.161,6.846-12.967,15.287-12.967c8.445,0,15.291,5.806,15.291,12.967
		C324.524,179.643,317.679,185.445,309.233,185.445z"/>
	<path fill="none" stroke="#BCBEC0" stroke-miterlimit="10" d="M309.233,159.514c-8.441,0-15.287,5.806-15.287,12.967
		c0,7.162,6.846,12.965,15.287,12.965c8.445,0,15.291-5.803,15.291-12.965C324.524,165.319,317.679,159.514,309.233,159.514z
		 M309.233,183.052c-6.879,0-12.461-4.733-12.461-10.571s5.582-10.57,12.461-10.57c6.887,0,12.465,4.732,12.465,10.57
		S316.12,183.052,309.233,183.052z"/>
	<rect x="277.194" y="147.717" fill="none" stroke="#BCBEC0" stroke-miterlimit="10" width="9.74" height="2.621"/>
	<polygon fill="none" stroke="#BCBEC0" stroke-miterlimit="10" points="299.684,143.51 299.684,150.363 305.194,150.363 
		313.28,143.51 	"/>
	<polygon fill="none" stroke="#BCBEC0" stroke-miterlimit="10" points="305.194,150.363 318.791,150.363 318.791,143.51 
		313.28,143.51 	"/>
	<path fill="none" stroke="#BCBEC0" stroke-miterlimit="10" d="M309.233,161.91c-6.879,0-12.461,4.732-12.461,10.57
		c0,2.918,1.393,5.563,3.649,7.476l17.63-14.95C315.795,163.093,312.677,161.91,309.233,161.91z"/>
	<path fill="none" stroke="#BCBEC0" stroke-miterlimit="10" d="M300.422,179.956c2.258,1.913,5.372,3.096,8.812,3.096
		c6.887,0,12.465-4.733,12.465-10.571c0-2.92-1.393-5.562-3.646-7.475L300.422,179.956z"/>
	<path fill="none" stroke="#BCBEC0" stroke-miterlimit="10" d="M339.559,155.128c0,1.376-1.318,2.492-2.942,2.492
		c-1.619,0-2.935-1.116-2.935-2.492c0-1.375,1.315-2.491,2.935-2.491C338.24,152.637,339.559,153.753,339.559,155.128z"/>
</g>
<g>
	<polyline fill="none" stroke="#BCBEC0" stroke-miterlimit="10" points="-34.594,23.006 -20.047,33.071 -20.047,78.561 
		-10.827,87.271 -10.827,137.407 	"/>
	<polyline fill="none" stroke="#BCBEC0" stroke-miterlimit="10" points="-52.521,136.729 -52.521,61.43 -65.733,70.746 
		-66.221,71.09 -82.023,82.231 -82.023,137.459 	"/>
	<polyline fill="none" stroke="#BCBEC0" stroke-miterlimit="10" points="-67.249,71.496 -67.249,46.889 -34.594,23.006 
		-34.594,103.278 -24.715,112.611 -24.715,136.387 	"/>
	<polyline fill="none" stroke="#BCBEC0" stroke-miterlimit="10" points="-34.594,23.006 -20.047,33.071 -20.047,78.561 
		-10.827,87.271 -10.827,137.407 	"/>
	<line fill="none" stroke="#BCBEC0" stroke-miterlimit="10" x1="-41.25" y1="27.875" x2="-41.25" y2="136.863"/>
	<polygon fill="none" stroke="#BCBEC0" stroke-miterlimit="10" points="-41.307,41.364 -66.519,58.418 -66.519,53.637 
		-41.307,36.583 	"/>
	<rect x="-49.656" y="89.938" fill="none" stroke="#BCBEC0" stroke-miterlimit="10" width="6.051" height="5.717"/>
	<rect x="-34.5" y="46.11" fill="none" stroke="#BCBEC0" stroke-miterlimit="10" width="8.319" height="7.861"/>
	<rect x="-71.437" y="107.327" fill="none" stroke="#BCBEC0" stroke-miterlimit="10" width="8.824" height="8.337"/>
	<polygon fill="none" stroke="#BCBEC0" stroke-miterlimit="10" points="-34.123,72.907 -10.685,91.961 -10.675,87.438 
		-34.113,68.385 	"/>
	<polyline fill="none" stroke="#BCBEC0" stroke-miterlimit="10" points="-36.518,108.042 -28.071,116.021 -28.071,136.387 
		-36.518,136.387 	"/>
	<rect x="-36.518" y="123.524" fill="none" stroke="#BCBEC0" stroke-miterlimit="10" width="6.051" height="5.717"/>
	<rect x="-21.82" y="101.134" fill="none" stroke="#BCBEC0" stroke-miterlimit="10" width="6.051" height="5.717"/>
	<rect x="-29.096" y="91.396" fill="none" stroke="#BCBEC0" stroke-miterlimit="10" width="5.289" height="4.997"/>
	<polygon fill="none" stroke="#BCBEC0" stroke-miterlimit="10" points="-53.156,77.723 -81.393,96.478 -81.393,91.51 
		-53.156,72.755 	"/>
	<g>
		<path fill="none" stroke="#BCBEC0" stroke-miterlimit="10" d="M-120.239,126.383c-0.036,0-0.072,0-0.108,0
			c-0.048,0-0.095,0-0.143,0.001c-30.501,0.065-59.17,11.974-80.746,33.549c-12.603,12.603-21.907,27.624-27.479,44.019
			c-0.265,0.514-0.491,1.052-0.673,1.615c-0.188,0.577-0.324,1.161-0.411,1.746c-3.284,10.754-4.986,22.055-4.986,33.615
			c0,30.598,11.915,59.361,33.549,80.996c3.786,3.785,7.79,7.273,11.984,10.453c0.45,0.475,0.948,0.914,1.493,1.311
			c0.524,0.381,1.075,0.709,1.643,0.982c19.15,13.518,41.955,20.803,65.877,20.803c30.596,0,59.36-11.914,80.995-33.549
			s33.55-50.398,33.55-80.996c0-30.596-11.915-59.361-33.55-80.995S-89.643,126.383-120.239,126.383z M-132.956,141.137
			l-18.536,57.049h-59.798C-196.917,167.692-167.666,145.535-132.956,141.137z M-189.165,314.129
			c-19.486-18.355-31.665-44.381-31.665-73.201c0-6.404,0.602-12.672,1.752-18.748l48.371,35.143L-189.165,314.129z
			 M-120.239,341.52c-17.587,0-34.136-4.539-48.535-12.504l48.373-35.145l48.512,35.246
			C-86.245,337.02-102.726,341.52-120.239,341.52z M-19.649,240.928c0,28.941-12.283,55.066-31.913,73.436l-18.533-57.041
			l48.655-35.35C-20.264,228.114-19.649,234.449-19.649,240.928z M-89.311,198.186l-18.55-57.09
			c34.857,4.297,64.253,26.498,78.673,57.09H-89.311z"/>
	</g>
</g>
</svg>
