<?xml version="1.0" encoding="utf-8"?>
<!-- Generator: Adobe Illustrator 16.0.0, SVG Export Plug-In . SVG Version: 6.00 Build 0)  -->
<!DOCTYPE svg PUBLIC "-//W3C//DTD SVG 1.1//EN" "http://www.w3.org/Graphics/SVG/1.1/DTD/svg11.dtd">
<svg version="1.1" id="Layer_1" xmlns="http://www.w3.org/2000/svg" xmlns:xlink="http://www.w3.org/1999/xlink" x="0px" y="0px"
	 width="250px" height="250px" viewBox="0 0 250 250" enable-background="new 0 0 250 250" xml:space="preserve">
<g>
	<polygon fill="none" stroke="#BCBEC0" stroke-miterlimit="10" points="324.189,179.956 311.057,179.956 297.928,179.956 
		293.103,189.926 311.057,189.926 329.019,189.926 	"/>
	<path fill="none" stroke="#BCBEC0" stroke-miterlimit="10" d="M271.006,229.427c0,2.633,2.539,4.785,5.64,4.785h68.826
		c3.102,0,5.643-2.152,5.643-4.785v-4.796h-80.108V229.427z"/>
	<path fill="none" stroke="#BCBEC0" stroke-miterlimit="10" d="M351.114,194.711c0-2.633-2.541-4.785-5.643-4.785h-68.826
		c-3.101,0-5.64,2.152-5.64,4.785v4.799h80.108V194.711z"/>
	<rect x="271.006" y="199.51" fill="none" stroke="#BCBEC0" stroke-miterlimit="10" width="80.108" height="25.121"/>
	<path fill="none" stroke="#BCBEC0" stroke-miterlimit="10" d="M311.057,195.159c-11.007,0-19.934,7.573-19.934,16.909
		c0,9.34,8.927,16.91,19.934,16.91c11.015,0,19.941-7.57,19.941-16.91C330.998,202.732,322.071,195.159,311.057,195.159z
		 M311.057,225.033c-8.441,0-15.287-5.803-15.287-12.965c0-7.161,6.846-12.967,15.287-12.967c8.445,0,15.291,5.806,15.291,12.967
		C326.348,219.23,319.502,225.033,311.057,225.033z"/>
	<path fill="none" stroke="#BCBEC0" stroke-miterlimit="10" d="M311.057,199.102c-8.441,0-15.287,5.806-15.287,12.967
		c0,7.162,6.846,12.965,15.287,12.965c8.445,0,15.291-5.803,15.291-12.965C326.348,204.907,319.502,199.102,311.057,199.102z
		 M311.057,222.64c-6.879,0-12.461-4.733-12.461-10.571s5.582-10.57,12.461-10.57c6.887,0,12.465,4.732,12.465,10.57
		S317.943,222.64,311.057,222.64z"/>
	<rect x="279.018" y="187.305" fill="none" stroke="#BCBEC0" stroke-miterlimit="10" width="9.74" height="2.621"/>
	<polygon fill="none" stroke="#BCBEC0" stroke-miterlimit="10" points="301.507,183.098 301.507,189.951 307.018,189.951 
		315.104,183.098 	"/>
	<polygon fill="none" stroke="#BCBEC0" stroke-miterlimit="10" points="307.018,189.951 320.614,189.951 320.614,183.098 
		315.104,183.098 	"/>
	<path fill="none" stroke="#BCBEC0" stroke-miterlimit="10" d="M311.057,201.498c-6.879,0-12.461,4.732-12.461,10.57
		c0,2.918,1.393,5.563,3.649,7.476l17.63-14.95C317.618,202.681,314.5,201.498,311.057,201.498z"/>
	<path fill="none" stroke="#BCBEC0" stroke-miterlimit="10" d="M302.245,219.544c2.258,1.913,5.372,3.096,8.812,3.096
		c6.887,0,12.465-4.733,12.465-10.571c0-2.92-1.393-5.562-3.646-7.475L302.245,219.544z"/>
	<path fill="none" stroke="#BCBEC0" stroke-miterlimit="10" d="M341.382,194.716c0,1.376-1.318,2.492-2.942,2.492
		c-1.619,0-2.935-1.116-2.935-2.492c0-1.375,1.315-2.491,2.935-2.491C340.063,192.225,341.382,193.341,341.382,194.716z"/>
</g>
<g>
	<g>
		<path fill="none" stroke="#BCBEC0" stroke-miterlimit="10" d="M-131.782,116.148c-0.036,0-0.072,0-0.108,0
			c-0.048,0-0.095,0-0.143,0.001c-30.501,0.065-59.17,11.974-80.746,33.549c-12.603,12.603-21.907,27.624-27.479,44.019
			c-0.265,0.514-0.491,1.052-0.673,1.615c-0.188,0.577-0.324,1.161-0.411,1.746c-3.284,10.754-4.986,22.055-4.986,33.615
			c0,30.598,11.915,59.361,33.549,80.996c3.786,3.785,7.79,7.273,11.984,10.453c0.45,0.475,0.948,0.914,1.493,1.311
			c0.524,0.381,1.075,0.709,1.643,0.982c19.15,13.518,41.955,20.803,65.877,20.803c30.596,0,59.36-11.914,80.995-33.549
			s33.55-50.398,33.55-80.996c0-30.596-11.915-59.361-33.55-80.995S-101.187,116.148-131.782,116.148z M-144.5,130.902
			l-18.536,57.049h-59.798C-208.46,157.458-179.209,135.301-144.5,130.902z M-200.708,303.895
			c-19.486-18.355-31.665-44.381-31.665-73.201c0-6.404,0.602-12.672,1.752-18.748l48.371,35.143L-200.708,303.895z
			 M-131.782,331.285c-17.587,0-34.136-4.539-48.535-12.504l48.373-35.145l48.512,35.246
			C-97.788,326.785-114.27,331.285-131.782,331.285z M-31.192,230.693c0,28.941-12.283,55.066-31.913,73.436l-18.533-57.041
			l48.655-35.35C-31.808,217.88-31.192,224.215-31.192,230.693z M-100.854,187.951l-18.55-57.09
			c34.857,4.297,64.253,26.498,78.673,57.09H-100.854z"/>
	</g>
	<g>
		<polyline fill="none" stroke="#BCBEC0" stroke-miterlimit="10" points="-81.202,-1.586 -36.185,19.122 -36.185,112.708 
			-7.65,130.629 -7.65,233.775 		"/>
		<polyline fill="none" stroke="#BCBEC0" stroke-miterlimit="10" points="-136.681,232.383 -136.681,77.465 -177.572,96.631 
			-179.081,97.339 -227.985,120.262 -227.985,233.883 		"/>
		<polyline fill="none" stroke="#BCBEC0" stroke-miterlimit="10" points="-182.261,98.175 -182.261,47.551 -81.202,-1.586 
			-81.202,163.563 -50.63,182.764 -50.63,231.678 		"/>
		<polyline fill="none" stroke="#BCBEC0" stroke-miterlimit="10" points="-81.202,-1.586 -36.185,19.122 -36.185,112.708 
			-7.65,130.629 -7.65,233.775 		"/>
		<line fill="none" stroke="#BCBEC0" stroke-miterlimit="10" x1="-101.801" y1="8.431" x2="-101.801" y2="232.658"/>
		<polygon fill="none" stroke="#BCBEC0" stroke-miterlimit="10" points="-101.978,36.183 -180.002,71.269 -180.002,61.432 
			-101.978,26.347 		"/>
		<rect x="-127.817" y="136.117" fill="none" stroke="#BCBEC0" stroke-miterlimit="10" width="18.726" height="11.762"/>
		<rect x="-80.913" y="45.947" fill="none" stroke="#BCBEC0" stroke-miterlimit="10" width="25.747" height="16.173"/>
		<rect x="-195.223" y="171.891" fill="none" stroke="#BCBEC0" stroke-miterlimit="10" width="27.309" height="17.152"/>
		<polygon fill="none" stroke="#BCBEC0" stroke-miterlimit="10" points="-79.746,101.078 -7.211,140.277 -7.18,130.975 
			-79.715,91.773 		"/>
		<polyline fill="none" stroke="#BCBEC0" stroke-miterlimit="10" points="-87.155,173.363 -61.018,189.779 -61.018,231.678 
			-87.155,231.678 		"/>
		<rect x="-87.155" y="205.215" fill="none" stroke="#BCBEC0" stroke-miterlimit="10" width="18.725" height="11.762"/>
		<rect x="-41.672" y="159.15" fill="none" stroke="#BCBEC0" stroke-miterlimit="10" width="18.726" height="11.762"/>
		<rect x="-64.188" y="139.115" fill="none" stroke="#BCBEC0" stroke-miterlimit="10" width="16.369" height="10.279"/>
		<polygon fill="none" stroke="#BCBEC0" stroke-miterlimit="10" points="-138.649,110.985 -226.034,149.57 -226.034,139.35 
			-138.649,100.765 		"/>
	</g>
	<g>
		<g>
			<g>
				<polygon fill="none" stroke="#BCBEC0" stroke-miterlimit="10" points="307.422,38.843 301.807,53.125 285.193,53.125 
					297.123,38.843 				"/>
			</g>
		</g>
		<g>
			<g>
				<polygon fill="none" stroke="#BCBEC0" stroke-miterlimit="10" points="331.025,53.125 301.807,53.125 307.422,38.843 
					325.41,38.843 				"/>
			</g>
		</g>
		<g>
			<g>
				<polygon fill="none" stroke="#BCBEC0" stroke-miterlimit="10" points="347.639,53.125 331.025,53.125 325.41,38.843 
					335.709,38.843 				"/>
			</g>
		</g>
		<g>
			<g>
				<polygon fill="none" stroke="#BCBEC0" stroke-miterlimit="10" points="347.639,53.125 316.416,84.623 331.025,53.125 				"/>
			</g>
		</g>
		<g>
			<g>
				<polygon fill="none" stroke="#BCBEC0" stroke-miterlimit="10" points="316.416,84.623 285.193,53.125 301.807,53.125 				"/>
			</g>
		</g>
		<g>
			<g>
				<polygon fill="none" stroke="#BCBEC0" stroke-miterlimit="10" points="331.025,53.125 316.416,84.623 301.807,53.125 				"/>
			</g>
		</g>
	</g>
</g>
<g>
	<path fill="none" stroke="#BCBEC0" stroke-miterlimit="10" d="M315.247,466.459v-26.977c3.689-0.166,7.396-0.258,11.103-0.258
		c1.899,0,3.439-1.607,3.439-3.588c0-1.982-1.54-3.588-3.439-3.588c-3.541,0-7.265,0.098-11.103,0.283v-47.648h13.18
		c1.899,0,3.438-1.607,3.438-3.589c0-1.983-1.539-3.589-3.438-3.589h-13.18V276.606c3.564,0.126,7.124,0.446,10.625,0.958
		c1.884,0.277,3.619-1.091,3.884-3.055c0.264-1.963-1.047-3.777-2.928-4.053c-4.942-0.723-9.995-1.09-15.021-1.09
		c-28.603,0-55.495,11.621-75.722,32.725c-20.226,21.102-31.364,49.158-31.364,79.003c0,27.659,9.761,54.2,27.486,74.737
		c0.08,0.094,0.167,0.182,0.248,0.275c0.013,0.016,0.026,0.031,0.041,0.045c17.564,20.191,41.451,32.969,67.319,35.977
		c0.121,0.014,0.24,0.02,0.359,0.02c0.007,0,0.014,0.004,0.02,0.004c0.195,0,0.386-0.023,0.574-0.057
		c0.063-0.01,0.121-0.027,0.181-0.041c0.128-0.029,0.253-0.066,0.376-0.111c0.061-0.021,0.121-0.041,0.179-0.066
		c0.146-0.064,0.284-0.137,0.421-0.219c0.025-0.014,0.051-0.025,0.076-0.041c0.16-0.104,0.312-0.223,0.455-0.354
		c0.033-0.029,0.063-0.063,0.096-0.096c0.104-0.102,0.201-0.209,0.293-0.326c0.042-0.053,0.08-0.105,0.119-0.16
		c0.072-0.105,0.139-0.213,0.202-0.326c0.037-0.066,0.074-0.131,0.106-0.199c0.014-0.027,0.029-0.051,0.043-0.08
		c0.025-0.059,0.036-0.119,0.059-0.178c0.051-0.131,0.098-0.262,0.135-0.4c0.027-0.105,0.045-0.211,0.063-0.316
		c0.012-0.074,0.036-0.145,0.044-0.223c0.005-0.043-0.001-0.084,0.001-0.127c0.01-0.129,0.009-0.256,0.004-0.385
		c-0.003-0.111-0.006-0.223-0.02-0.334c-0.014-0.113-0.038-0.225-0.063-0.338c-0.025-0.117-0.049-0.23-0.086-0.344
		c-0.033-0.105-0.076-0.205-0.119-0.307c-0.047-0.107-0.09-0.215-0.145-0.318c-0.056-0.1-0.119-0.193-0.181-0.287
		c-0.063-0.094-0.124-0.186-0.196-0.273c-0.07-0.088-0.15-0.168-0.23-0.248c-0.081-0.084-0.162-0.164-0.25-0.238
		c-0.082-0.066-0.17-0.125-0.257-0.186c-0.104-0.072-0.211-0.143-0.324-0.201c-0.036-0.02-0.065-0.047-0.104-0.063
		c-11.551-5.607-21.608-20.584-28.572-40.568c10.774-2.232,22.837-3.969,35.294-4.859v26.576c0,1.98,1.539,3.588,3.438,3.588
		C313.708,470.047,315.247,468.439,315.247,466.459z M240.951,307.166c13.286-13.862,29.653-23.333,47.486-27.758
		c-6.179,5.646-11.82,13.582-16.665,23.604c-2.146,4.439-4.074,9.204-5.802,14.208c-9.318-2.473-17.912-5.705-25.43-9.607
		C240.682,307.467,240.811,307.313,240.951,307.166z M235.727,313.09c8.226,4.471,17.717,8.162,28.061,10.943
		c-4.718,16.063-7.357,34.359-7.651,53.473h-44.452C212.452,353.611,220.873,331.122,235.727,313.09z M235.739,449.113
		c-14.825-18.033-23.284-40.691-24.061-64.43h44.452c0.311,19.674,3.159,38.449,7.946,54.744
		C253.043,442.045,243.123,445.303,235.739,449.113z M286.166,482.17c-17.183-4.736-32.915-14.189-45.557-27.51
		c6.353-2.98,15.217-5.906,25.646-8.396C271.37,461.193,278.185,473.627,286.166,482.17z M308.369,432.752
		c-12.264,0.902-25.335,2.666-37.488,5.172c-4.701-15.803-7.552-34.158-7.871-53.24h45.359V432.752z M308.369,377.506h-45.356
		c0.296-18.605,2.884-36.349,7.489-51.834c11.92,2.672,24.748,4.193,37.867,4.421V377.506z M308.369,322.916
		c-12.366-0.22-24.436-1.625-35.653-4.082c1.562-4.428,3.291-8.645,5.198-12.59c8.412-17.4,19.119-27.669,30.455-29.406V322.916z"/>
	<path fill="none" stroke="#BCBEC0" stroke-miterlimit="10" d="M434.914,495.006l-2.45-9.721
		c-2.51-9.953-9.351-17.512-17.678-20.258l-3.15-8.746c-1.203-3.342-3.354-5.955-5.982-7.482l-7.358-86.051h0.911
		c4.775,0,8.66-4.053,8.66-9.033c0-1.557-0.38-3.023-1.047-4.303l4.498-0.429c3.242-0.308,6.172-1.919,8.247-4.537
		c2.077-2.617,3.047-5.921,2.73-9.302l-2.686-28.735c-0.172-1.838-1.653-3.239-3.423-3.239H402.26c-1.663,0-3.088,1.24-3.384,2.947
		l-3.021,17.352h-5.27l-5.151-30.129c-0.293-1.711-1.719-2.957-3.386-2.957h-16.749c-1.666,0-3.093,1.246-3.387,2.957l-5.151,30.129
		h-5.268l-3.021-17.352c-0.297-1.707-1.723-2.947-3.385-2.947H331.16c-1.771,0-3.251,1.401-3.422,3.24l-2.693,28.813
		c-0.647,6.934,4.229,13.137,10.874,13.83l5.565,0.58c-0.599,1.229-0.943,2.612-0.943,4.082c0,4.93,3.807,8.943,8.515,9.025
		l-7.359,86.059c-2.63,1.527-4.78,4.141-5.984,7.482l-3.149,8.746c-8.327,2.746-15.168,10.305-17.678,20.258l-2.449,9.721
		c-0.273,1.074-0.05,2.221,0.602,3.102c0.65,0.883,1.656,1.398,2.725,1.398h115.826c1.066,0,2.073-0.516,2.725-1.398
		C434.964,497.227,435.186,496.08,434.914,495.006z M336.602,341.91c-2.877-0.299-4.99-2.987-4.709-5.991l2.389-25.573h7.935
		l3.021,17.352c0.297,1.707,1.723,2.947,3.385,2.947h11.019c1.667,0,3.094-1.246,3.387-2.959l5.151-30.125h10.989l5.15,30.125
		c0.295,1.713,1.721,2.959,3.388,2.959h11.02c1.661,0,3.086-1.24,3.383-2.947l3.021-17.352h7.937l2.382,25.494
		c0.138,1.466-0.283,2.896-1.183,4.031c-0.899,1.134-2.169,1.832-3.574,1.966l-28.613,2.724c-0.203,0.02-0.398,0.066-0.589,0.119
		h-18.341L336.602,341.91z M347.419,353.715c0-1.025,0.799-1.858,1.78-1.858h13.777c0.001,0,0.002,0.001,0.004,0.001
		c0.001,0,0.002-0.001,0.003-0.001h36.223c0.982,0,1.781,0.833,1.781,1.858c0,1.023-0.799,1.855-1.781,1.855h-50.007
		C348.218,355.57,347.419,354.738,347.419,353.715z M397.548,434.773h-47.746l6.158-72.025h35.428L397.548,434.773z
		 M342.151,458.805c0.947-2.633,2.908-4.332,4.995-4.332h17.807c1.898,0,3.438-1.607,3.438-3.588c0-1.984-1.54-3.59-3.438-3.59
		H348.73l0.457-5.344h48.974l0.456,5.344h-16.142c-1.9,0-3.44,1.605-3.44,3.59c0,1.98,1.54,3.588,3.44,3.588h17.727
		c2.086,0,4.048,1.699,4.995,4.332l1.831,5.086H340.32L342.151,458.805z M320.222,492.328l1.315-5.219
		c2.383-9.445,9.751-16.043,17.919-16.043h68.437c8.169,0,15.537,6.598,17.919,16.043l1.316,5.219H320.222z"/>
	<path fill="none" stroke="#BCBEC0" stroke-miterlimit="10" d="M338.27,300.045c5.717,0,10.369-4.854,10.369-10.818
		s-4.652-10.818-10.369-10.818c-5.718,0-10.369,4.854-10.369,10.818S332.552,300.045,338.27,300.045z M338.27,285.586
		c1.924,0,3.489,1.633,3.489,3.641s-1.565,3.641-3.489,3.641c-1.925,0-3.49-1.633-3.49-3.641S336.345,285.586,338.27,285.586z"/>
	<path fill="none" stroke="#BCBEC0" stroke-miterlimit="10" d="M408.526,300.045c5.717,0,10.368-4.854,10.368-10.818
		s-4.651-10.818-10.368-10.818s-10.369,4.854-10.369,10.818S402.81,300.045,408.526,300.045z M408.526,285.586
		c1.924,0,3.489,1.633,3.489,3.641s-1.565,3.641-3.489,3.641c-1.925,0-3.489-1.633-3.489-3.641S406.602,285.586,408.526,285.586z"/>
	<path fill="none" stroke="#BCBEC0" stroke-miterlimit="10" d="M373.673,288.393c5.718,0,10.369-4.854,10.369-10.818
		s-4.651-10.818-10.369-10.818c-5.717,0-10.367,4.854-10.367,10.818S367.956,288.393,373.673,288.393z M373.673,273.933
		c1.925,0,3.491,1.634,3.491,3.642s-1.566,3.641-3.491,3.641c-1.924,0-3.489-1.633-3.489-3.641S371.749,273.933,373.673,273.933z"/>
</g>
<g>
	<g>
		<g>
			<g>
				<path fill="none" stroke="#BCBEC0" stroke-miterlimit="10" d="M422.482,282.387C349.547,271.034,332.17,182.602,332,181.711
					l-0.045-0.247V80.256l90.995-32.5l90.956,32.5v101.208l-0.048,0.247c-0.167,0.891-17.544,89.323-90.438,100.676l-0.471,0.07
					L422.482,282.387z"/>
			</g>
		</g>
		<g>
			<g>
				<path fill="none" stroke="#BCBEC0" stroke-miterlimit="10" d="M422.95,50.775l88.019,31.45v98.986
					c0,0-16.335,87.221-88.019,98.38c-71.724-11.159-88.058-98.38-88.058-98.38V82.226L422.95,50.775 M422.95,44.741l-2.046,0.73
					l-88.057,31.449l-3.829,1.368v3.938v98.986v0.504l0.093,0.499c0.695,3.718,17.934,91.299,92.899,102.962l0.939,0.145
					l0.937-0.145c74.931-11.669,92.167-99.244,92.864-102.962l0.092-0.499v-0.504V82.226v-3.938l-3.832-1.368l-88.016-31.449
					L422.95,44.741L422.95,44.741z"/>
			</g>
		</g>
	</g>
	<g>
		<g>
			<path fill="#BCBEC0" stroke="#BCBEC0" stroke-miterlimit="10" d="M422.939,268.1c-57.361-10.349-74.365-79.317-76.285-88.025
				V90.107l76.285-27.26l76.283,27.26v89.967C497.317,188.718,480.325,257.745,422.939,268.1z"/>
		</g>
	</g>
	<g opacity="0.07">
		<g>
			<path fill="none" stroke="#BCBEC0" stroke-miterlimit="10" d="M510.969,82.226v98.986c0,0-16.335,87.221-88.019,98.38V50.775
				L510.969,82.226z"/>
		</g>
	</g>
</g>
<g>
	<path fill="none" stroke="#BCBEC0" stroke-miterlimit="10" d="M132.763,477.346c-1.569,1.056-3.968,2.044-7.051,2.957
		c-11.196,3.282-31.495,5.492-54.679,5.492c-23.175,0-43.474-2.21-54.673-5.492c-3.084-0.913-5.474-1.901-7.043-2.957
		c-1.416-0.929-2.182-1.92-2.182-2.946v5.903c0,6.288,28.612,11.384,63.898,11.384c35.295,0,63.911-5.096,63.911-11.384v-5.903
		C134.944,475.426,134.169,476.417,132.763,477.346z"/>
	<path fill="none" stroke="#BCBEC0" stroke-miterlimit="10" d="M71.033,463.024c-35.286,0-63.898,5.097-63.898,11.375
		c0,1.026,0.767,2.018,2.182,2.946c1.569,1.056,3.958,2.044,7.043,2.957c11.2,3.282,31.498,5.492,54.673,5.492
		c23.184,0,43.482-2.21,54.679-5.492c3.083-0.913,5.481-1.901,7.051-2.957c1.406-0.929,2.182-1.92,2.182-2.946
		C134.944,468.121,106.328,463.024,71.033,463.024z"/>
	<path fill="none" stroke="#BCBEC0" stroke-miterlimit="10" d="M71.042,412.964c-4.103,0-7.431,3.567-7.421,7.976v48.614
		c-0.009,2.889,3.319,4.846,7.421,4.846c4.094,0,7.422-1.898,7.422-4.846v-48.614C78.464,416.531,75.136,412.964,71.042,412.964z"/>
	<path fill="none" stroke="#BCBEC0" stroke-miterlimit="10" d="M-28.043,293.932c0,25.455,0,50.912,0,76.377
		c0,25.466,0,50.921,0,76.378c65.594-11.84,132.568-11.84,198.155,0c0-25.457,0-50.912,0-76.378c0-25.465,0-50.922,0-76.377
		C104.525,305.771,37.551,305.771-28.043,293.932z"/>
	<path fill="none" stroke="#BCBEC0" stroke-miterlimit="10" d="M-40.947,277.574c0,30.912,0,61.822,0,92.734s0,61.823,0,92.745
		c73.989-15.165,149.98-15.165,223.974,0c0-30.922,0-61.833,0-92.745s0-61.822,0-92.734
		C109.033,292.739,33.042,292.739-40.947,277.574z M170.112,446.687c-65.587-11.84-132.561-11.84-198.155,0
		c0-25.457,0-50.912,0-76.378c0-25.465,0-50.922,0-76.377c65.594,11.84,132.568,11.84,198.155,0c0,25.455,0,50.912,0,76.377
		C170.112,395.774,170.112,421.229,170.112,446.687z"/>
	<polygon fill="none" stroke="#BCBEC0" stroke-miterlimit="10" points="-45.465,463.045 -40.947,463.054 -40.947,277.574 
		-45.465,277.574 	"/>
	<rect x="183.027" y="277.574" fill="none" stroke="#BCBEC0" stroke-miterlimit="10" width="4.508" height="185.479"/>
</g>
<g>
	<polygon fill="none" stroke="#6D6E71" stroke-width="3" stroke-miterlimit="10" points="164.915,37.029 127.416,37.029 
		89.927,37.029 76.15,67.722 127.416,67.722 178.7,67.722 	"/>
	<path fill="none" stroke="#6D6E71" stroke-width="3" stroke-miterlimit="10" d="M13.057,189.326c0,8.109,7.25,14.734,16.103,14.734
		h196.519c8.857,0,16.112-6.625,16.112-14.734v-14.762H13.057V189.326z"/>
	<path fill="none" stroke="#6D6E71" stroke-width="3" stroke-miterlimit="10" d="M241.791,82.454
		c0-8.106-7.255-14.732-16.112-14.732H29.16c-8.854,0-16.103,6.625-16.103,14.732v14.773h228.734V82.454z"/>
	
		<rect x="13.057" y="97.227" fill="none" stroke="#6D6E71" stroke-width="3" stroke-miterlimit="10" width="228.734" height="77.337"/>
	<path fill="#BCBEC0" stroke="#6D6E71" stroke-width="3" stroke-miterlimit="10" d="M127.416,83.832
		c-31.429,0-56.919,23.315-56.919,52.057c0,28.754,25.49,52.063,56.919,52.063c31.446,0,56.938-23.309,56.938-52.063
		C184.354,107.147,158.862,83.832,127.416,83.832z M127.416,175.803c-24.104,0-43.65-17.865-43.65-39.914
		c0-22.046,19.546-39.919,43.65-39.919c24.113,0,43.661,17.873,43.661,39.919C171.077,157.938,151.529,175.803,127.416,175.803z"/>
	<path fill="none" stroke="#6D6E71" stroke-width="3" stroke-miterlimit="10" d="M127.416,95.97
		c-24.104,0-43.65,17.873-43.65,39.919c0,22.049,19.546,39.914,43.65,39.914c24.113,0,43.661-17.865,43.661-39.914
		C171.077,113.843,151.529,95.97,127.416,95.97z M127.416,168.434c-19.643,0-35.582-14.572-35.582-32.545
		c0-17.972,15.938-32.541,35.582-32.541c19.664,0,35.59,14.569,35.59,32.541C163.006,153.861,147.08,168.434,127.416,168.434z"/>
	<rect x="35.933" y="59.651" fill="none" stroke="#6D6E71" stroke-width="3" stroke-miterlimit="10" width="27.812" height="8.07"/>
	<polygon fill="none" stroke="#6D6E71" stroke-width="3" stroke-miterlimit="10" points="100.147,46.7 100.147,67.8 115.882,67.8 
		138.972,46.7 	"/>
	<polygon fill="none" stroke="#6D6E71" stroke-width="3" stroke-miterlimit="10" points="115.882,67.8 154.703,67.8 154.703,46.7 
		138.972,46.7 	"/>
	<path fill="#BCBEC0" stroke="#6D6E71" stroke-width="3" stroke-miterlimit="10" d="M127.416,103.348
		c-19.643,0-35.582,14.569-35.582,32.541c0,8.984,3.977,17.127,10.421,23.016l50.339-46.026
		C146.147,106.988,137.249,103.348,127.416,103.348z"/>
	<path fill="#BCBEC0" stroke="#6D6E71" stroke-width="3" stroke-miterlimit="10" d="M102.256,158.904
		c6.446,5.889,15.337,9.529,25.16,9.529c19.664,0,35.59-14.572,35.59-32.545c0-8.989-3.977-17.121-10.411-23.011L102.256,158.904z"
		/>
	<path fill="none" stroke="#6D6E71" stroke-width="3" stroke-miterlimit="10" d="M213.999,82.468c0,4.235-3.762,7.672-8.396,7.672
		c-4.624,0-8.384-3.437-8.384-7.672c0-4.234,3.76-7.669,8.384-7.669C210.237,74.799,213.999,78.234,213.999,82.468z"/>
</g>
</svg>
