<?xml version="1.0" encoding="utf-8"?>
<!-- Generator: Adobe Illustrator 16.0.0, SVG Export Plug-In . SVG Version: 6.00 Build 0)  -->
<!DOCTYPE svg PUBLIC "-//W3C//DTD SVG 1.1//EN" "http://www.w3.org/Graphics/SVG/1.1/DTD/svg11.dtd">
<svg version="1.1" id="Layer_1" xmlns="http://www.w3.org/2000/svg" xmlns:xlink="http://www.w3.org/1999/xlink" x="0px" y="0px"
	 width="200px" height="250px" viewBox="0 0 200 250" enable-background="new 0 0 200 250" xml:space="preserve">
<path fill="none" stroke="#6D6E71" stroke-width="3" stroke-miterlimit="10" d="M182.283,175.568v-60.916h-0.305
	c-0.414-16.273-6.799-32.424-19.191-44.816C150.836,57.885,135.391,51.51,119.708,50.7c8.552-12.845,7.173-30.391-4.147-41.713
	l-2.691-2.691L86.787,32.377l19.068,19.068C92.635,53.55,79.937,59.67,69.77,69.836C59.603,80.004,53.482,92.702,51.377,105.92
	L32.311,86.854L6.229,112.936l2.691,2.691c6.449,6.449,14.919,9.674,23.391,9.674c6.399,0,12.794-1.846,18.32-5.525
	c0.026,0.5,0.07,1,0.107,1.5v120.521h3.912v0.002c0.033,0,0.064-0.002,0.098-0.002h61.311c4.081,0,8.07-0.391,11.949-1.102h61.268
	v-7.615h-40.443C168.793,221.66,182.283,200.168,182.283,175.568z M17.196,112.735l15.114-15.114l15.114,15.114
	C38.473,119.342,26.148,119.342,17.196,112.735z M148.439,69.023v0.003c3.821,3.819,5.926,8.9,5.926,14.304
	s-2.104,10.484-5.926,14.306c-3.82,3.82-8.901,5.924-14.305,5.924s-10.484-2.104-14.307-5.926c-3.818-3.819-5.924-8.9-5.924-14.304
	s2.105-10.484,5.927-14.307c3.819-3.819,8.9-5.923,14.304-5.923S144.619,65.204,148.439,69.023z M97.554,32.377l15.114-15.113
	c6.607,8.949,6.607,21.277,0,30.229L97.554,32.377z M58.306,113.024l0.087-0.088l-0.079-0.08
	c0.817-13.709,6.389-27.185,16.839-37.637c10.453-10.451,23.93-16.022,37.637-16.839l0.08,0.079l0.087-0.088
	c1.106-0.063,2.212-0.157,3.321-0.157c2.082,0,4.162,0.139,6.236,0.36c-2.83,1.331-5.452,3.128-7.729,5.404
	c-5.168,5.17-8.016,12.041-8.016,19.351s2.848,14.183,8.016,19.348c5.168,5.17,12.041,8.019,19.35,8.019
	c7.31,0,14.182-2.849,19.348-8.017c5.17-5.167,8.018-12.04,8.018-19.35c0-1.325-0.125-2.628-0.309-3.918
	c18.794,22.824,17.539,56.729-3.787,78.057c-21.328,21.326-55.234,22.586-78.061,3.789c1.289,0.184,2.594,0.311,3.919,0.311
	c7.31,0,14.183-2.85,19.348-8.016c5.17-5.168,8.018-12.041,8.018-19.352c0-7.309-2.848-14.179-8.015-19.347c0,0,0,0-0.003-0.002
	c-5.168-5.168-12.038-8.016-19.348-8.016s-14.181,2.848-19.351,8.016c-2.312,2.313-4.092,4.949-5.4,7.754
	C58.169,119.42,58.124,116.219,58.306,113.024z M68.959,148.506c-7.89-7.887-7.89-20.721,0-28.608
	c3.819-3.821,8.9-5.927,14.304-5.927s10.483,2.105,14.304,5.924l0.002,0.003c3.82,3.819,5.924,8.901,5.924,14.303
	c0,5.404-2.104,10.484-5.926,14.307c-3.82,3.82-8.9,5.924-14.304,5.924S72.778,152.328,68.959,148.506z M58.354,233.08v-85.592
	c2.965,5.521,6.762,10.711,11.416,15.365c11.964,11.965,27.43,18.34,43.13,19.141c-2.797,25.551-22.079,46.209-46.954,51.086H58.354
	z M127.34,233.08H87.427c18.218-10.424,31.038-29.24,33.134-51.15c15.389-0.996,30.492-7.344,42.227-19.078
	c4.899-4.9,8.855-10.389,11.882-16.238v28.955C174.669,204.029,154.277,227.807,127.34,233.08z"/>
<path fill="none" stroke="#6D6E71" stroke-width="3" stroke-miterlimit="10" d="M91.395,142.334c4.484-4.484,4.484-11.781,0-16.264
	c-4.486-4.482-11.777-4.482-16.264,0c-4.484,4.482-4.484,11.779,0,16.264c2.242,2.24,5.188,3.361,8.132,3.361
	S89.151,144.574,91.395,142.334z M80.177,131.115c0.851-0.852,1.968-1.275,3.086-1.275s2.235,0.424,3.085,1.275
	c1.703,1.701,1.703,4.473,0,6.172c-1.699,1.705-4.471,1.705-6.171,0C78.475,135.588,78.475,132.816,80.177,131.115z"/>
<path fill="none" stroke="#6D6E71" stroke-width="3" stroke-miterlimit="10" d="M134.135,94.823c2.945,0,5.889-1.121,8.133-3.361
	c4.483-4.483,4.483-11.78,0-16.264c-4.486-4.482-11.779-4.482-16.265,0c-4.483,4.483-4.483,11.78,0,16.264
	C128.246,93.702,131.19,94.823,134.135,94.823z M131.049,80.244c0.85-0.853,1.969-1.276,3.086-1.276
	c1.118,0,2.236,0.424,3.086,1.276c1.703,1.7,1.703,4.472,0,6.171c-1.7,1.706-4.471,1.706-6.172,0
	C129.346,84.715,129.346,81.944,131.049,80.244z"/>
<path fill="none" stroke="#6D6E71" stroke-width="3" stroke-miterlimit="10" d="M141.139,114.309l-26.133,0.764l-0.762,26.13
	l36.423,9.533L141.139,114.309z M121.541,135.74l0.399-13.733l13.736-0.401l5.007,19.142L121.541,135.74z"/>
</svg>
